999
dxfrw 0.6.3
  0
SECTION
  2
HEADER
  9
$ACADVER
  1
AC1021
  9
$DWGCODEPAGE
  3
ANSI_1252
  9
$INSBASE
 10
0
 20
0
 30
0
  9
$EXTMIN
 10
10000000000
 20
10000000000
 30
0
  9
$EXTMAX
 10
-10000000000
 20
-10000000000
 30
0
  9
$LIMMIN
 10
0
 20
0
  9
$LIMMAX
 10
12
 20
9
  9
$ORTHOMODE
 70
    0
  9
$REGENMODE
 70
    1
  9
$FILLMODE
 70
    1
  9
$QTEXTMODE
 70
    0
  9
$MIRRTEXT
 70
    1
  9
$LTSCALE
 40
1
  9
$ATTMODE
 70
    1
  9
$TEXTSIZE
 40
0.2
  9
$TRACEWID
 40
0.05
  9
$TEXTSTYLE
  7
Standard
  9
$CLAYER
  8
0
  9
$CELTYPE
  6
ByLayer
  9
$CECOLOR
 62
  178
  9
$CELTSCALE
 40
1
  9
$DISPSILH
 70
    0
  9
$DIMSCALE
 40
1
  9
$DIMASZ
 40
2.5
  9
$DIMEXO
 40
0.625
  9
$DIMDLI
 40
0.38
  9
$DIMRND
 40
0
  9
$DIMDLE
 40
0
  9
$DIMEXE
 40
1.25
  9
$DIMTP
 40
0
  9
$DIMTM
 40
0
  9
$DIMTXT
 40
2.5
  9
$DIMCEN
 40
0.09
  9
$DIMTSZ
 40
0
  9
$DIMTOL
 70
    0
  9
$DIMLIM
 70
    0
  9
$DIMTIH
 70
    1
  9
$DIMTOH
 70
    1
  9
$DIMSE1
 70
    0
  9
$DIMSE2
 70
    0
  9
$DIMTAD
 70
    0
  9
$DIMZIN
 70
    8
  9
$DIMBLK
  1

  9
$DIMASO
 70
    1
  9
$DIMSHO
 70
    1
  9
$DIMPOST
  1

  9
$DIMAPOST
  1

  9
$DIMALT
 70
    0
  9
$DIMALTD
 70
    2
  9
$DIMALTF
 40
25.4
  9
$DIMLFAC
 40
1
  9
$DIMTOFL
 70
    0
  9
$DIMTVP
 40
0
  9
$DIMTIX
 70
    0
  9
$DIMSOXD
 70
    0
  9
$DIMSAH
 70
    0
  9
$DIMBLK1
  1

  9
$DIMBLK2
  1

  9
$DIMSTYLE
  2
Standard
  9
$DIMCLRD
 70
  178
  9
$DIMCLRE
 70
  178
  9
$DIMCLRT
 70
  178
  9
$DIMTFAC
 40
1
  9
$DIMGAP
 40
0.625
  9
$DIMJUST
 70
    0
  9
$DIMSD1
 70
    0
  9
$DIMSD2
 70
    0
  9
$DIMTOLJ
 70
    1
  9
$DIMTZIN
 70
    0
  9
$DIMALTZ
 70
    0
  9
$DIMALTTZ
 70
    0
  9
$DIMUPT
 70
    0
  9
$DIMDEC
 70
    4
  9
$DIMTDEC
 70
    4
  9
$DIMALTU
 70
    2
  9
$DIMALTTD
 70
    2
  9
$DIMTXSTY
  7
Standard
  9
$DIMAUNIT
 70
    0
  9
$DIMADEC
 70
    0
  9
$DIMALTRND
 40
0
  9
$DIMAZIN
 70
    3
  9
$DIMDSEP
 70
   46
  9
$DIMATFIT
 70
    3
  9
$DIMFRAC
 70
    0
  9
$DIMLDRBLK
  1

  9
$DIMLUNIT
 70
    2
  9
$DIMLWD
 70
   -2
  9
$DIMLWE
 70
   -2
  9
$DIMTMOVE
 70
    0
  9
$DIMFXL
 40
1
  9
$DIMFXLON
 70
    0
  9
$DIMJOGANG
 40
0.7853981633974483
  9
$DIMTFILL
 70
    0
  9
$DIMTFILLCLR
 70
    0
  9
$DIMARCSYM
 70
    0
  9
$DIMLTYPE
  6

  9
$DIMLTEX1
  6

  9
$DIMLTEX2
  6

  9
$LUNITS
 70
    2
  9
$LUPREC
 70
    4
  9
$SKETCHINC
 40
0.1
  9
$FILLETRAD
 40
0.5
  9
$AUNITS
 70
    0
  9
$AUPREC
 70
    0
  9
$MENU
  1
.
  9
$ELEVATION
 40
0
  9
$PELEVATION
 40
0
  9
$THICKNESS
 40
0
  9
$LIMCHECK
 70
    0
  9
$CHAMFERA
 40
0.5
  9
$CHAMFERB
 40
0.5
  9
$CHAMFERC
 40
1
  9
$CHAMFERD
 40
0
  9
$SKPOLY
 70
    0
  9
$USRTIMER
 70
    1
  9
$ANGBASE
 50
0
  9
$ANGDIR
 70
    0
  9
$PDMODE
 70
    0
  9
$PDSIZE
 40
0
  9
$PLINEWID
 40
0
  9
$SPLFRAME
 70
    0
  9
$SPLINETYPE
 70
    6
  9
$SPLINESEGS
 70
    8
  9
$HANDSEED
  5
20000
  9
$SURFTAB1
 70
    6
  9
$SURFTAB2
 70
    6
  9
$SURFTYPE
 70
    6
  9
$SURFU
 70
    6
  9
$SURFV
 70
    6
  9
$UCSBASE
  2

  9
$UCSNAME
  2

  9
$UCSORG
 10
0
 20
0
 30
0
  9
$UCSXDIR
 10
1
 20
0
 30
0
  9
$UCSYDIR
 10
0
 20
1
 30
0
  9
$UCSORTHOREF
  2

  9
$UCSORTHOVIEW
 70
    0
  9
$UCSORGTOP
 10
0
 20
0
 30
0
  9
$UCSORGBOTTOM
 10
0
 20
0
 30
0
  9
$UCSORGLEFT
 10
0
 20
0
 30
0
  9
$UCSORGRIGHT
 10
0
 20
0
 30
0
  9
$UCSORGFRONT
 10
0
 20
0
 30
0
  9
$UCSORGBACK
 10
0
 20
0
 30
0
  9
$PUCSBASE
  2

  9
$PUCSNAME
  2

  9
$PUCSORG
 10
0
 20
0
 30
0
  9
$PUCSXDIR
 10
1
 20
0
 30
0
  9
$PUCSYDIR
 10
0
 20
1
 30
0
  9
$PUCSORTHOREF
  2

  9
$PUCSORTHOVIEW
 70
    0
  9
$PUCSORGTOP
 10
0
 20
0
 30
0
  9
$PUCSORGBOTTOM
 10
0
 20
0
 30
0
  9
$PUCSORGLEFT
 10
0
 20
0
 30
0
  9
$PUCSORGRIGHT
 10
0
 20
0
 30
0
  9
$PUCSORGFRONT
 10
0
 20
0
 30
0
  9
$PUCSORGBACK
 10
0
 20
0
 30
0
  9
$USERI1
 70
    0
  9
$USERI2
 70
    0
  9
$USERI3
 70
    0
  9
$USERI4
 70
    0
  9
$USERI5
 70
    0
  9
$USERR1
 40
0
  9
$USERR2
 40
0
  9
$USERR3
 40
0
  9
$USERR4
 40
0
  9
$USERR5
 40
0
  9
$WORLDVIEW
 70
    1
  9
$SHADEDGE
 70
    3
  9
$SHADEDIF
 70
   70
  9
$TILEMODE
 70
    1
  9
$MAXACTVP
 70
   64
  9
$PINSBASE
 10
0
 20
0
 30
0
  9
$PLIMCHECK
 70
    0
  9
$PEXTMIN
 10
1e+20
 20
1e+20
 30
1e+20
  9
$PEXTMAX
 10
-1e+20
 20
-1e+20
 30
-1e+20
  9
$GRIDMODE
 70
    0
  9
$SNAPSTYLE
 70
    0
  9
$PLIMMIN
 10
0
 20
0
  9
$PLIMMAX
 10
12
 20
9
  9
$UNITMODE
 70
    0
  9
$VISRETAIN
 70
    1
  9
$PLINEGEN
 70
    0
  9
$PSLTSCALE
 70
    1
  9
$TREEDEPTH
 70
 3020
  9
$CMLSTYLE
  2
Standard
  9
$CMLJUST
 70
    0
  9
$CMLSCALE
 40
1
  9
$PROXYGRAPHICS
 70
    1
  9
$MEASUREMENT
 70
    1
  9
$CELWEIGHT
370
   -1
  9
$ENDCAPS
280
    0
  9
$JOINSTYLE
280
    0
  9
$LWDISPLAY
290
    0
  9
$INSUNITS
 70
    0
  9
$HYPERLINKBASE
  1

  9
$STYLESHEET
  1

  9
$XEDIT
290
    1
  9
$CEPSNTYPE
380
    0
  9
$PSTYLEMODE
290
    1
  9
$EXTNAMES
290
    1
  9
$PSVPSCALE
 40
0
  9
$OLESTARTUP
290
    0
  9
$SORTENTS
280
  127
  9
$INDEXCTL
280
    0
  9
$HIDETEXT
280
    1
  9
$XCLIPFRAME
290
    2
  9
$HALOGAP
280
    0
  9
$OBSCOLOR
 70
  257
  9
$OBSLTYPE
280
    0
  9
$INTERSECTIONDISPLAY
280
    0
  9
$INTERSECTIONCOLOR
 70
  257
  9
$DIMASSOC
280
    2
  9
$PROJECTNAME
  1

  9
$CAMERADISPLAY
290
    0
  9
$LENSLENGTH
 40
50
  9
$CAMERAHEIGHT
 40
0
  9
$STEPSPERSEC
 40
2
  9
$STEPSIZE
 40
6
  9
$3DDWFPREC
 40
2
  9
$PSOLWIDTH
 40
0.25
  9
$PSOLHEIGHT
 40
4
  9
$LOFTANG1
 40
1.570796326794897
  9
$LOFTANG2
 40
1.570796326794897
  9
$LOFTMAG1
 40
0
  9
$LOFTMAG2
 40
0
  9
$LOFTPARAM
 70
    7
  9
$LOFTNORMALS
280
    1
  9
$LATITUDE
 40
37.795
  9
$LONGITUDE
 40
-122.394
  9
$NORTHDIRECTION
 40
0
  9
$TIMEZONE
 70
-8000
  9
$LIGHTGLYPHDISPLAY
280
    1
  9
$TILEMODELIGHTSYNCH
280
    1
  9
$SOLIDHIST
280
    1
  9
$SHOWHIST
280
    1
  9
$DWFFRAME
280
    2
  9
$DGNFRAME
280
    2
  9
$REALWORLDSCALE
290
    1
  9
$INTERFERECOLOR
 62
  256
  9
$CSHADOW
280
    0
  9
$SHADOWPLANELOCATION
 40
0
  0
ENDSEC
  0
SECTION
  2
CLASSES
  0
ENDSEC
  0
SECTION
  2
TABLES
  0
TABLE
  2
VPORT
  5
8
330
0
100
AcDbSymbolTable
 70
    1
  0
VPORT
  5
31
330
2
100
AcDbSymbolTableRecord
100
AcDbViewportTableRecord
  2
*ACTIVE
 70
    0
 10
0
 20
0
 11
1
 21
1
 12
687.5596756306664
 22
545.7341531859378
 13
0
 23
0
 14
10
 24
10
 15
10
 25
10
 16
0
 26
0
 36
1
 17
0
 27
0
 37
0
 40
1173.818609726879
 41
1.749443207126949
 42
50
 43
0
 44
0
 50
0
 51
0
 71
    0
 72
  100
 73
    1
 74
    3
 75
    0
 76
    0
 77
    0
 78
    0
281
    0
 65
    1
110
0
120
0
130
0
111
1
121
0
131
0
112
0
122
1
132
0
 79
    0
146
0
348
10020
 60
    7
 61
    5
292
1
282
    1
141
0
142
0
 63
  250
421
3358443
  0
ENDTAB
  0
TABLE
  2
LTYPE
  5
5
330
0
100
AcDbSymbolTable
 70
    4
  0
LTYPE
  5
14
330
5
100
AcDbSymbolTableRecord
100
AcDbLinetypeTableRecord
  2
ByBlock
 70
    0
  3

 72
   65
 73
    0
 40
0
  0
LTYPE
  5
15
330
5
100
AcDbSymbolTableRecord
100
AcDbLinetypeTableRecord
  2
ByLayer
 70
    0
  3

 72
   65
 73
    0
 40
0
  0
LTYPE
  5
16
330
5
100
AcDbSymbolTableRecord
100
AcDbLinetypeTableRecord
  2
Continuous
 70
    0
  3
Solid line
 72
   65
 73
    0
 40
0
  0
LTYPE
  5
32
330
5
100
AcDbSymbolTableRecord
100
AcDbLinetypeTableRecord
  2
DOT
 70
    0
  3
Dot . . . . . . . . . . . . . . . . . . . . . .
 72
   65
 73
    2
 40
6.35
 49
0
 74
    0
 49
-6.35
 74
    0
  0
LTYPE
  5
33
330
5
100
AcDbSymbolTableRecord
100
AcDbLinetypeTableRecord
  2
DOTTINY
 70
    0
  3
Dot (.15x) .....................................
 72
   65
 73
    2
 40
0.9525
 49
0
 74
    0
 49
-0.9525
 74
    0
  0
LTYPE
  5
34
330
5
100
AcDbSymbolTableRecord
100
AcDbLinetypeTableRecord
  2
DOT2
 70
    0
  3
Dot (.5x) .....................................
 72
   65
 73
    2
 40
3.175
 49
0
 74
    0
 49
-3.175
 74
    0
  0
LTYPE
  5
35
330
5
100
AcDbSymbolTableRecord
100
AcDbLinetypeTableRecord
  2
DOTX2
 70
    0
  3
Dot (2x) .  .  .  .  .  .  .  .  .  .  .  .  .
 72
   65
 73
    2
 40
12.7
 49
0
 74
    0
 49
-12.7
 74
    0
  0
LTYPE
  5
36
330
5
100
AcDbSymbolTableRecord
100
AcDbLinetypeTableRecord
  2
DASHED
 70
    0
  3
Dashed _ _ _ _ _ _ _ _ _ _ _ _ _ _ _ _ _
 72
   65
 73
    2
 40
19.05
 49
12.7
 74
    0
 49
-6.35
 74
    0
  0
LTYPE
  5
37
330
5
100
AcDbSymbolTableRecord
100
AcDbLinetypeTableRecord
  2
DASHEDTINY
 70
    0
  3
Dashed (.15x) _ _ _ _ _ _ _ _ _ _ _ _ _ _ _ _ _
 72
   65
 73
    2
 40
2.8575
 49
1.905
 74
    0
 49
-0.9525
 74
    0
  0
LTYPE
  5
38
330
5
100
AcDbSymbolTableRecord
100
AcDbLinetypeTableRecord
  2
DASHED2
 70
    0
  3
Dashed (.5x) _ _ _ _ _ _ _ _ _ _ _ _ _ _ _ _ _
 72
   65
 73
    2
 40
9.524999999999999
 49
6.35
 74
    0
 49
-3.175
 74
    0
  0
LTYPE
  5
39
330
5
100
AcDbSymbolTableRecord
100
AcDbLinetypeTableRecord
  2
DASHEDX2
 70
    0
  3
Dashed (2x) ____  ____  ____  ____  ____  ___
 72
   65
 73
    2
 40
38.09999999999999
 49
25.4
 74
    0
 49
-12.7
 74
    0
  0
LTYPE
  5
3A
330
5
100
AcDbSymbolTableRecord
100
AcDbLinetypeTableRecord
  2
DASHDOT
 70
    0
  3
Dash dot __ . __ . __ . __ . __ . __ . __ . __
 72
   65
 73
    4
 40
25.4
 49
12.7
 74
    0
 49
-6.35
 74
    0
 49
0
 74
    0
 49
-6.35
 74
    0
  0
LTYPE
  5
3B
330
5
100
AcDbSymbolTableRecord
100
AcDbLinetypeTableRecord
  2
DASHDOTTINY
 70
    0
  3
Dash dot (.15x) _._._._._._._._._._._._._._._.
 72
   65
 73
    4
 40
3.81
 49
1.905
 74
    0
 49
-0.9525
 74
    0
 49
0
 74
    0
 49
-0.9525
 74
    0
  0
LTYPE
  5
3C
330
5
100
AcDbSymbolTableRecord
100
AcDbLinetypeTableRecord
  2
DASHDOT2
 70
    0
  3
Dash dot (.5x) _._._._._._._._._._._._._._._.
 72
   65
 73
    4
 40
12.7
 49
6.35
 74
    0
 49
-3.175
 74
    0
 49
0
 74
    0
 49
-3.175
 74
    0
  0
LTYPE
  5
3D
330
5
100
AcDbSymbolTableRecord
100
AcDbLinetypeTableRecord
  2
DASHDOTX2
 70
    0
  3
Dash dot (2x) ____  .  ____  .  ____  .  ___
 72
   65
 73
    4
 40
50.8
 49
25.4
 74
    0
 49
-12.7
 74
    0
 49
0
 74
    0
 49
-12.7
 74
    0
  0
LTYPE
  5
3E
330
5
100
AcDbSymbolTableRecord
100
AcDbLinetypeTableRecord
  2
DIVIDE
 70
    0
  3
Divide ____ . . ____ . . ____ . . ____ . . ____
 72
   65
 73
    6
 40
31.75
 49
12.7
 74
    0
 49
-6.35
 74
    0
 49
0
 74
    0
 49
-6.35
 74
    0
 49
0
 74
    0
 49
-6.35
 74
    0
  0
LTYPE
  5
3F
330
5
100
AcDbSymbolTableRecord
100
AcDbLinetypeTableRecord
  2
DIVIDETINY
 70
    0
  3
Divide (.15x) __..__..__..__..__..__..__..__.._
 72
   65
 73
    6
 40
4.7625
 49
1.905
 74
    0
 49
-0.9525
 74
    0
 49
0
 74
    0
 49
-0.9525
 74
    0
 49
0
 74
    0
 49
-0.9525
 74
    0
  0
LTYPE
  5
40
330
5
100
AcDbSymbolTableRecord
100
AcDbLinetypeTableRecord
  2
DIVIDE2
 70
    0
  3
Divide (.5x) __..__..__..__..__..__..__..__.._
 72
   65
 73
    6
 40
15.875
 49
6.35
 74
    0
 49
-3.175
 74
    0
 49
0
 74
    0
 49
-3.175
 74
    0
 49
0
 74
    0
 49
-3.175
 74
    0
  0
LTYPE
  5
41
330
5
100
AcDbSymbolTableRecord
100
AcDbLinetypeTableRecord
  2
DIVIDEX2
 70
    0
  3
Divide (2x) ________  .  .  ________  .  .  _
 72
   65
 73
    6
 40
63.5
 49
25.4
 74
    0
 49
-12.7
 74
    0
 49
0
 74
    0
 49
-12.7
 74
    0
 49
0
 74
    0
 49
-12.7
 74
    0
  0
LTYPE
  5
42
330
5
100
AcDbSymbolTableRecord
100
AcDbLinetypeTableRecord
  2
BORDER
 70
    0
  3
Border __ __ . __ __ . __ __ . __ __ . __ __ .
 72
   65
 73
    6
 40
44.45
 49
12.7
 74
    0
 49
-6.35
 74
    0
 49
12.7
 74
    0
 49
-6.35
 74
    0
 49
0
 74
    0
 49
-6.35
 74
    0
  0
LTYPE
  5
43
330
5
100
AcDbSymbolTableRecord
100
AcDbLinetypeTableRecord
  2
BORDERTINY
 70
    0
  3
Border (.15x) __.__.__.__.__.__.__.__.__.__.__.
 72
   65
 73
    6
 40
6.6675
 49
1.905
 74
    0
 49
-0.9525
 74
    0
 49
1.905
 74
    0
 49
-0.9525
 74
    0
 49
0
 74
    0
 49
-0.9525
 74
    0
  0
LTYPE
  5
44
330
5
100
AcDbSymbolTableRecord
100
AcDbLinetypeTableRecord
  2
BORDER2
 70
    0
  3
Border (.5x) __.__.__.__.__.__.__.__.__.__.__.
 72
   65
 73
    6
 40
22.225
 49
6.35
 74
    0
 49
-3.175
 74
    0
 49
6.35
 74
    0
 49
-3.175
 74
    0
 49
0
 74
    0
 49
-3.175
 74
    0
  0
LTYPE
  5
45
330
5
100
AcDbSymbolTableRecord
100
AcDbLinetypeTableRecord
  2
BORDERX2
 70
    0
  3
Border (2x) ____  ____  .  ____  ____  .  ___
 72
   65
 73
    6
 40
88.89999999999999
 49
25.4
 74
    0
 49
-12.7
 74
    0
 49
25.4
 74
    0
 49
-12.7
 74
    0
 49
0
 74
    0
 49
-12.7
 74
    0
  0
LTYPE
  5
46
330
5
100
AcDbSymbolTableRecord
100
AcDbLinetypeTableRecord
  2
CENTER
 70
    0
  3
Center ____ _ ____ _ ____ _ ____ _ ____ _ ____
 72
   65
 73
    4
 40
50.8
 49
31.75
 74
    0
 49
-6.35
 74
    0
 49
6.35
 74
    0
 49
-6.35
 74
    0
  0
LTYPE
  5
47
330
5
100
AcDbSymbolTableRecord
100
AcDbLinetypeTableRecord
  2
CENTERTINY
 70
    0
  3
Center (.15x) ___ _ ___ _ ___ _ ___ _ ___ _ ___
 72
   65
 73
    4
 40
7.619999999999999
 49
4.7625
 74
    0
 49
-0.9525
 74
    0
 49
0.9525
 74
    0
 49
-0.9525
 74
    0
  0
LTYPE
  5
48
330
5
100
AcDbSymbolTableRecord
100
AcDbLinetypeTableRecord
  2
CENTER2
 70
    0
  3
Center (.5x) ___ _ ___ _ ___ _ ___ _ ___ _ ___
 72
   65
 73
    4
 40
28.575
 49
19.05
 74
    0
 49
-3.175
 74
    0
 49
3.175
 74
    0
 49
-3.175
 74
    0
  0
LTYPE
  5
49
330
5
100
AcDbSymbolTableRecord
100
AcDbLinetypeTableRecord
  2
CENTERX2
 70
    0
  3
Center (2x) ________  __  ________  __  _____
 72
   65
 73
    4
 40
101.6
 49
63.5
 74
    0
 49
-12.7
 74
    0
 49
12.7
 74
    0
 49
-12.7
 74
    0
  0
ENDTAB
  0
TABLE
  2
LAYER
  5
2
330
0
100
AcDbSymbolTable
 70
    1
  0
LAYER
  5
10
330
2
100
AcDbSymbolTableRecord
100
AcDbLayerTableRecord
  2
0
 70
    0
 62
  255
  6
CONTINUOUS
370
    9
390
F
  0
LAYER
  5
4A
330
2
100
AcDbSymbolTableRecord
100
AcDbLayerTableRecord
  2
Defpoints
 70
    0
 62
  255
  6
CONTINUOUS
290
0
370
   -3
390
F
  0
LAYER
  5
4B
330
2
100
AcDbSymbolTableRecord
100
AcDbLayerTableRecord
  2
boxes
 70
    0
 62
  255
  6
CONTINUOUS
370
   -3
390
F
  0
LAYER
  5
4C
330
2
100
AcDbSymbolTableRecord
100
AcDbLayerTableRecord
  2
entities
 70
    0
 62
  255
  6
CONTINUOUS
370
   13
390
F
  0
ENDTAB
  0
TABLE
  2
STYLE
  5
3
330
0
100
AcDbSymbolTable
 70
    3
  0
STYLE
  5
4D
330
2
100
AcDbSymbolTableRecord
100
AcDbTextStyleTableRecord
  2
textstyle2
 70
    0
 40
0
 41
1
 50
0
 71
    0
 42
1
  3
textstyle2
  4

  0
STYLE
  5
4E
330
2
100
AcDbSymbolTableRecord
100
AcDbTextStyleTableRecord
  2
textstyle3
 70
    0
 40
0
 41
1
 50
0
 71
    0
 42
1
  3
textstyle3
  4

  0
STYLE
  5
4F
330
2
100
AcDbSymbolTableRecord
100
AcDbTextStyleTableRecord
  2
textstyle4
 70
    0
 40
0
 41
1
 50
0
 71
    0
 42
1
  3
textstyle4
  4

  0
STYLE
  5
50
330
2
100
AcDbSymbolTableRecord
100
AcDbTextStyleTableRecord
  2
textstyle5
 70
    0
 40
0
 41
1
 50
0
 71
    0
 42
1
  3
textstyle5
  4

  0
STYLE
  5
51
330
2
100
AcDbSymbolTableRecord
100
AcDbTextStyleTableRecord
  2
textstyle20
 70
    0
 40
0
 41
1
 50
0
 71
    0
 42
1
  3
textstyle20
  4

  0
STYLE
  5
52
330
2
100
AcDbSymbolTableRecord
100
AcDbTextStyleTableRecord
  2
textstyle6
 70
    0
 40
0
 41
1
 50
0
 71
    0
 42
1
  3
textstyle6
  4

  0
STYLE
  5
53
330
2
100
AcDbSymbolTableRecord
100
AcDbTextStyleTableRecord
  2
textstyle21
 70
    0
 40
0
 41
1
 50
0
 71
    0
 42
1
  3
textstyle21
  4

  0
STYLE
  5
54
330
2
100
AcDbSymbolTableRecord
100
AcDbTextStyleTableRecord
  2
textstyle7
 70
    0
 40
0
 41
1
 50
0
 71
    0
 42
1
  3
textstyle7
  4

  0
STYLE
  5
55
330
2
100
AcDbSymbolTableRecord
100
AcDbTextStyleTableRecord
  2
textstyle22
 70
    0
 40
0
 41
1
 50
0
 71
    0
 42
1
  3
textstyle22
  4

  0
STYLE
  5
56
330
2
100
AcDbSymbolTableRecord
100
AcDbTextStyleTableRecord
  2
textstyle8
 70
    0
 40
0
 41
1
 50
0
 71
    0
 42
1
  3
textstyle8
  4

  0
STYLE
  5
57
330
2
100
AcDbSymbolTableRecord
100
AcDbTextStyleTableRecord
  2
textstyle23
 70
    0
 40
0
 41
1
 50
0
 71
    0
 42
1
  3
textstyle23
  4

  0
STYLE
  5
58
330
2
100
AcDbSymbolTableRecord
100
AcDbTextStyleTableRecord
  2
textstyle9
 70
    0
 40
0
 41
1
 50
0
 71
    0
 42
1
  3
textstyle9
  4

  0
STYLE
  5
59
330
2
100
AcDbSymbolTableRecord
100
AcDbTextStyleTableRecord
  2
textstyle24
 70
    0
 40
0
 41
1
 50
0
 71
    0
 42
1
  3
textstyle24
  4

  0
STYLE
  5
5A
330
2
100
AcDbSymbolTableRecord
100
AcDbTextStyleTableRecord
  2
textstyle25
 70
    0
 40
0
 41
1
 50
0
 71
    0
 42
1
  3
textstyle25
  4

  0
STYLE
  5
5B
330
2
100
AcDbSymbolTableRecord
100
AcDbTextStyleTableRecord
  2
textstyle10
 70
    0
 40
0
 41
1
 50
0
 71
    0
 42
1
  3
textstyle10
  4

  0
STYLE
  5
5C
330
2
100
AcDbSymbolTableRecord
100
AcDbTextStyleTableRecord
  2
textstyle26
 70
    0
 40
0
 41
1
 50
0
 71
    0
 42
1
  3
textstyle26
  4

  0
STYLE
  5
5D
330
2
100
AcDbSymbolTableRecord
100
AcDbTextStyleTableRecord
  2
textstyle11
 70
    0
 40
0
 41
1
 50
0
 71
    0
 42
1
  3
textstyle11
  4

  0
STYLE
  5
5E
330
2
100
AcDbSymbolTableRecord
100
AcDbTextStyleTableRecord
  2
textstyle27
 70
    0
 40
0
 41
1
 50
0
 71
    0
 42
1
  3
textstyle27
  4

  0
STYLE
  5
5F
330
2
100
AcDbSymbolTableRecord
100
AcDbTextStyleTableRecord
  2
textstyle12
 70
    0
 40
0
 41
1
 50
0
 71
    0
 42
1
  3
textstyle12
  4

  0
STYLE
  5
60
330
2
100
AcDbSymbolTableRecord
100
AcDbTextStyleTableRecord
  2
textstyle28
 70
    0
 40
0
 41
1
 50
0
 71
    0
 42
1
  3
textstyle28
  4

  0
STYLE
  5
61
330
2
100
AcDbSymbolTableRecord
100
AcDbTextStyleTableRecord
  2
textstyle13
 70
    0
 40
0
 41
1
 50
0
 71
    0
 42
1
  3
textstyle13
  4

  0
STYLE
  5
62
330
2
100
AcDbSymbolTableRecord
100
AcDbTextStyleTableRecord
  2
textstyle29
 70
    0
 40
0
 41
1
 50
0
 71
    0
 42
1
  3
textstyle29
  4

  0
STYLE
  5
63
330
2
100
AcDbSymbolTableRecord
100
AcDbTextStyleTableRecord
  2
textstyle14
 70
    0
 40
0
 41
1
 50
0
 71
    0
 42
1
  3
textstyle14
  4

  0
STYLE
  5
64
330
2
100
AcDbSymbolTableRecord
100
AcDbTextStyleTableRecord
  2
textstyle15
 70
    0
 40
0
 41
1
 50
0
 71
    0
 42
1
  3
textstyle15
  4

  0
STYLE
  5
65
330
2
100
AcDbSymbolTableRecord
100
AcDbTextStyleTableRecord
  2
textstyle16
 70
    0
 40
0
 41
1
 50
0
 71
    0
 42
1
  3
textstyle16
  4

  0
STYLE
  5
66
330
2
100
AcDbSymbolTableRecord
100
AcDbTextStyleTableRecord
  2
textstyle17
 70
    0
 40
0
 41
1
 50
0
 71
    0
 42
1
  3
textstyle17
  4

  0
STYLE
  5
67
330
2
100
AcDbSymbolTableRecord
100
AcDbTextStyleTableRecord
  2
textstyle18
 70
    0
 40
0
 41
1
 50
0
 71
    0
 42
1
  3
textstyle18
  4

  0
STYLE
  5
68
330
2
100
AcDbSymbolTableRecord
100
AcDbTextStyleTableRecord
  2
textstyle19
 70
    0
 40
0
 41
1
 50
0
 71
    0
 42
1
  3
textstyle19
  4

  0
STYLE
  5
69
330
2
100
AcDbSymbolTableRecord
100
AcDbTextStyleTableRecord
  2
textstyle30
 70
    0
 40
0
 41
1
 50
0
 71
    0
 42
1
  3
textstyle30
  4

  0
STYLE
  5
6A
330
2
100
AcDbSymbolTableRecord
100
AcDbTextStyleTableRecord
  2
textstyle31
 70
    0
 40
0
 41
1
 50
0
 71
    0
 42
1
  3
textstyle31
  4

  0
STYLE
  5
6B
330
2
100
AcDbSymbolTableRecord
100
AcDbTextStyleTableRecord
  2
textstyle0
 70
    0
 40
0
 41
1
 50
0
 71
    0
 42
1
  3
textstyle0
  4

  0
STYLE
  5
6C
330
2
100
AcDbSymbolTableRecord
100
AcDbTextStyleTableRecord
  2
textstyle1
 70
    0
 40
0
 41
1
 50
0
 71
    0
 42
1
  3
textstyle1
  4

  0
STYLE
  5
6D
330
2
100
AcDbSymbolTableRecord
100
AcDbTextStyleTableRecord
  2
Standard
 70
    0
 40
0
 41
1
 50
0
 71
    0
 42
1
  3
txt
  4

  0
ENDTAB
  0
TABLE
  2
VIEW
  5
6
330
0
100
AcDbSymbolTable
 70
    0
  0
ENDTAB
  0
TABLE
  2
UCS
  5
7
330
0
100
AcDbSymbolTable
 70
    0
  0
ENDTAB
  0
TABLE
  2
APPID
  5
9
330
0
100
AcDbSymbolTable
 70
    1
  0
APPID
  5
12
330
9
100
AcDbSymbolTableRecord
100
AcDbRegAppTableRecord
  2
ACAD
 70
    0
  0
APPID
  5
6E
330
9
100
AcDbSymbolTableRecord
100
AcDbRegAppTableRecord
  2
LibreCad
 70
    0
  0
ENDTAB
  0
TABLE
  2
DIMSTYLE
  5
A
330
0
100
AcDbSymbolTable
 70
    1
100
AcDbDimStyleTable
 71
    1
  0
DIMSTYLE
105
6F
330
A
100
AcDbSymbolTableRecord
100
AcDbDimStyleTableRecord
  2
Standard
 70
    0
 40
1
 41
2.5
 42
0.625
 43
0.38
 44
1.25
 45
0
 46
0
 47
0
 48
0
 49
1
140
2.5
141
0.09
142
0
143
25.4
144
1
145
0
146
1
147
0.625
148
0
 71
    0
 72
    0
 73
    1
 74
    1
 75
    0
 76
    0
 77
    0
 78
    8
 79
    3
170
    0
171
    2
172
    0
173
    0
174
    0
175
    0
176
  178
177
  178
178
  178
179
    0
271
    4
272
    4
273
    2
274
    2
275
    0
276
    0
277
    2
278
   46
279
    0
280
    0
281
    0
282
    0
283
    1
284
    0
285
    0
286
    0
288
    0
289
    3
340
Standard
341

371
   -2
372
   -2
  0
ENDTAB
  0
TABLE
  2
BLOCK_RECORD
  5
1
330
0
100
AcDbSymbolTable
 70
    2
  0
BLOCK_RECORD
  5
1F
330
1
100
AcDbSymbolTableRecord
100
AcDbBlockTableRecord
  2
*Model_Space
 70
    0
280
    1
281
    0
  0
BLOCK_RECORD
  5
1E
330
1
100
AcDbSymbolTableRecord
100
AcDbBlockTableRecord
  2
*Paper_Space
 70
    0
280
    1
281
    0
  0
BLOCK_RECORD
  5
70
330
1
100
AcDbSymbolTableRecord
100
AcDbBlockTableRecord
  2
spline_fp_closed
 70
    0
280
    1
281
    0
  0
BLOCK_RECORD
  5
73
330
1
100
AcDbSymbolTableRecord
100
AcDbBlockTableRecord
  2
polyline
 70
    0
280
    1
281
    0
  0
BLOCK_RECORD
  5
76
330
1
100
AcDbSymbolTableRecord
100
AcDbBlockTableRecord
  2
dim_ordinate
 70
    0
280
    1
281
    0
  0
BLOCK_RECORD
  5
79
330
1
100
AcDbSymbolTableRecord
100
AcDbBlockTableRecord
  2
arc
 70
    0
280
    1
281
    0
  0
BLOCK_RECORD
  5
7C
330
1
100
AcDbSymbolTableRecord
100
AcDbBlockTableRecord
  2
text
 70
    0
280
    1
281
    0
  0
BLOCK_RECORD
  5
7F
330
1
100
AcDbSymbolTableRecord
100
AcDbBlockTableRecord
  2
dim_angular_arc
 70
    0
280
    1
281
    0
  0
BLOCK_RECORD
  5
82
330
1
100
AcDbSymbolTableRecord
100
AcDbBlockTableRecord
  2
line
 70
    0
280
    1
281
    0
  0
BLOCK_RECORD
  5
85
330
1
100
AcDbSymbolTableRecord
100
AcDbBlockTableRecord
  2
spline_cp_2deg
 70
    0
280
    1
281
    0
  0
BLOCK_RECORD
  5
88
330
1
100
AcDbSymbolTableRecord
100
AcDbBlockTableRecord
  2
block_insert
 70
    0
280
    1
281
    0
  0
BLOCK_RECORD
  5
8B
330
1
100
AcDbSymbolTableRecord
100
AcDbBlockTableRecord
  2
dim_diametric_circle
 70
    0
280
    1
281
    0
  0
BLOCK_RECORD
  5
8E
330
1
100
AcDbSymbolTableRecord
100
AcDbBlockTableRecord
  2
dim_vertical
 70
    0
280
    1
281
    0
  0
BLOCK_RECORD
  5
91
330
1
100
AcDbSymbolTableRecord
100
AcDbBlockTableRecord
  2
block01
 70
    0
280
    1
281
    0
  0
BLOCK_RECORD
  5
94
330
1
100
AcDbSymbolTableRecord
100
AcDbBlockTableRecord
  2
dim_radial_arc
 70
    0
280
    1
281
    0
  0
BLOCK_RECORD
  5
97
330
1
100
AcDbSymbolTableRecord
100
AcDbBlockTableRecord
  2
points
 70
    0
280
    1
281
    0
  0
BLOCK_RECORD
  5
9A
330
1
100
AcDbSymbolTableRecord
100
AcDbBlockTableRecord
  2
spline_cp_2deg_closed
 70
    0
280
    1
281
    0
  0
BLOCK_RECORD
  5
9D
330
1
100
AcDbSymbolTableRecord
100
AcDbBlockTableRecord
  2
ellipse
 70
    0
280
    1
281
    0
  0
BLOCK_RECORD
  5
A0
330
1
100
AcDbSymbolTableRecord
100
AcDbBlockTableRecord
  2
block02
 70
    0
280
    1
281
    0
  0
BLOCK_RECORD
  5
A3
330
1
100
AcDbSymbolTableRecord
100
AcDbBlockTableRecord
  2
spline_cp_3deg
 70
    0
280
    1
281
    0
  0
BLOCK_RECORD
  5
A6
330
1
100
AcDbSymbolTableRecord
100
AcDbBlockTableRecord
  2
dim_angular_line
 70
    0
280
    1
281
    0
  0
BLOCK_RECORD
  5
A9
330
1
100
AcDbSymbolTableRecord
100
AcDbBlockTableRecord
  2
dim_horizontal
 70
    0
280
    1
281
    0
  0
BLOCK_RECORD
  5
AC
330
1
100
AcDbSymbolTableRecord
100
AcDbBlockTableRecord
  2
dim_radial_circle
 70
    0
280
    1
281
    0
  0
BLOCK_RECORD
  5
AF
330
1
100
AcDbSymbolTableRecord
100
AcDbBlockTableRecord
  2
ellispe_arc
 70
    0
280
    1
281
    0
  0
BLOCK_RECORD
  5
B2
330
1
100
AcDbSymbolTableRecord
100
AcDbBlockTableRecord
  2
spline_cp_3deg_closed
 70
    0
280
    1
281
    0
  0
BLOCK_RECORD
  5
B5
330
1
100
AcDbSymbolTableRecord
100
AcDbBlockTableRecord
  2
circle
 70
    0
280
    1
281
    0
  0
BLOCK_RECORD
  5
B8
330
1
100
AcDbSymbolTableRecord
100
AcDbBlockTableRecord
  2
hatch_pattern
 70
    0
280
    1
281
    0
  0
BLOCK_RECORD
  5
BB
330
1
100
AcDbSymbolTableRecord
100
AcDbBlockTableRecord
  2
dim_leader
 70
    0
280
    1
281
    0
  0
BLOCK_RECORD
  5
BE
330
1
100
AcDbSymbolTableRecord
100
AcDbBlockTableRecord
  2
spline_fp
 70
    0
280
    1
281
    0
  0
BLOCK_RECORD
  5
C1
330
1
100
AcDbSymbolTableRecord
100
AcDbBlockTableRecord
  2
dim_diametric_arc
 70
    0
280
    1
281
    0
  0
BLOCK_RECORD
  5
C4
330
1
100
AcDbSymbolTableRecord
100
AcDbBlockTableRecord
  2
dim_aligned
 70
    0
280
    1
281
    0
  0
BLOCK_RECORD
  5
C7
330
1
100
AcDbSymbolTableRecord
100
AcDbBlockTableRecord
  2
dim_rotated
 70
    0
280
    1
281
    0
  0
BLOCK_RECORD
  5
CA
330
1
100
AcDbSymbolTableRecord
100
AcDbBlockTableRecord
  2
hatch_solid
 70
    0
280
    1
281
    0
  0
ENDTAB
  0
ENDSEC
  0
SECTION
  2
BLOCKS
  0
BLOCK
  5
20
330
1F
100
AcDbEntity
  8
0
100
AcDbBlockBegin
  2
*Model_Space
 70
    0
 10
0
 20
0
 30
0
  3
*Model_Space
  1

  0
ENDBLK
  5
21
330
1F
100
AcDbEntity
  8
0
100
AcDbBlockEnd
  0
BLOCK
  5
1C
330
1B
100
AcDbEntity
  8
0
100
AcDbBlockBegin
  2
*Paper_Space
 70
    0
 10
0
 20
0
 30
0
  3
*Paper_Space
  1

  0
ENDBLK
  5
1D
330
1F
100
AcDbEntity
  8
0
100
AcDbBlockEnd
  0
BLOCK
  5
71
330
70
100
AcDbEntity
  8
0
100
AcDbBlockBegin
  2
spline_fp_closed
 70
    0
 10
0
 20
0
  3
spline_fp_closed
  1

  0
SPLINE
  5
CD
100
AcDbEntity
  8
0
  6
ByLayer
 62
  256
370
   -1
100
AcDbSpline
210
0
220
0
230
0
 70
   11
 71
    3
 72
   12
 73
    8
 74
    0
 42
1e-07
 43
1e-07
 40
0
 40
0
 40
0
 40
0
 40
60
 40
120
 40
156.0555127546399
 40
198.4819196258327
 40
268.4819196258327
 40
268.4819196258327
 40
268.4819196258327
 40
268.4819196258327
 10
20
 20
20
 30
0
 10
4.305997381244225
 20
32.39751111322297
 30
0
 10
-3.639338543135302
 20
97.30037891836307
 30
0
 10
108.9963524437905
 20
91.71014810802066
 30
0
 10
37.9488714608426
 20
46.649940720794
 30
0
 10
130.137135446552
 20
9.783319209928393
 30
0
 10
38.30966972188173
 20
5.536237034573205
 30
0
 10
20
 20
20
 30
0
  0
ENDBLK
  5
72
330
70
100
AcDbEntity
  8
0
100
AcDbBlockEnd
  0
BLOCK
  5
74
330
73
100
AcDbEntity
  8
0
100
AcDbBlockBegin
  2
polyline
 70
    0
 10
0
 20
0
  3
polyline
  1

  0
LWPOLYLINE
  5
CE
100
AcDbEntity
  8
0
  6
ByLayer
 62
  256
370
   -1
100
AcDbPolyline
 90
    6
 70
    0
 43
0
 10
10
 20
10
 10
10
 20
90
 10
90
 20
90
 10
90
 20
10
 10
60
 20
50
 42
1.953436733964738
 10
50.32455532033674
 20
19.02633403898973
 42
1.953436733964738
  0
ENDBLK
  5
75
330
73
100
AcDbEntity
  8
0
100
AcDbBlockEnd
  0
BLOCK
  5
77
330
76
100
AcDbEntity
  8
0
100
AcDbBlockBegin
  2
dim_ordinate
 70
    0
 10
0
 20
0
  3
dim_ordinate
  1

  0
ENDBLK
  5
78
330
76
100
AcDbEntity
  8
0
100
AcDbBlockEnd
  0
BLOCK
  5
7A
330
79
100
AcDbEntity
  8
0
100
AcDbBlockBegin
  2
arc
 70
    0
 10
0
 20
0
  3
arc
  1

  0
ARC
  5
CF
100
AcDbEntity
  8
0
  6
ByLayer
 62
  256
370
   -1
100
AcDbCircle
 10
90
 20
10
 40
80
100
AcDbArc
 50
90
 51
180
  0
ENDBLK
  5
7B
330
79
100
AcDbEntity
  8
0
100
AcDbBlockEnd
  0
BLOCK
  5
7D
330
7C
100
AcDbEntity
  8
0
100
AcDbBlockBegin
  2
text
 70
    0
 10
0
 20
0
  3
text
  1

  0
MTEXT
  5
D0
100
AcDbEntity
  8
0
  6
ByLayer
 62
  256
370
   -1
100
AcDbMText
 10
10.00000000000001
 20
90
 30
0
 40
5
 41
278.0555606984312
 71
    1
 72
    1
  3
text, Arial, h5\P\fArial|b1|i0|c0|p0;text, Arial, h5, bold\P\fArial|b0|i1|c0|p0;text, Arial, h5, italic\P\fArial|b0|i0|c0|p0;\C1;text, Arial, h5, red\P\c0;special characters:\P%%D %%P %%C ≈ × ÷ Δ π ≡ ≠ Ω Ω ²³\P\fTimes New Roman|b0|i0|c
  1
0|p0;\C256;text, Times New Roman, h5\fArial|b0|i0|c0|p0;\c0;\P\H7.85714;text, Arial, h8
  7
textstyle0
210
0
220
0
230
1
 50
0
 73
    1
 44
1
  0
ENDBLK
  5
7E
330
7C
100
AcDbEntity
  8
0
100
AcDbBlockEnd
  0
BLOCK
  5
80
330
7F
100
AcDbEntity
  8
0
100
AcDbBlockBegin
  2
dim_angular_arc
 70
    0
 10
0
 20
0
  3
dim_angular_arc
  1

  0
DIMENSION
  5
D1
100
AcDbEntity
  8
0
  6
ByLayer
 62
  256
370
   -1
100
AcDbDimension
 10
61.71572875253811
 20
38.28427124746192
 30
0
 11
76.29647891241646
 21
43.08322646190993
 31
0
 70
   34
  1
text
 71
    5
 72
    0
  3
QCADDimStyle
 53
0
210
0
220
0
230
1
100
AcDb2LineAngularDimension
 13
90
 23
10.00000000000009
 33
0
 14
90
 24
50.00000000000001
 34
0
 15
90
 25
10.00000000000009
 35
0
 16
81.21722772098163
 26
42.77775237660413
 36
0
  0
DIMENSION
  5
D2
100
AcDbEntity
  8
0
  6
ByLayer
 62
  256
370
   -1
100
AcDbDimension
 10
81.05572809000084
 20
27.88854381999832
 30
0
 11
75.99800959999997
 21
19.37649920000003
 31
0
 70
   34
  1
\A1;<>\S0.01^ 0.02;
 71
    5
 72
    0
  3
QCADDimStyle
 53
0
210
0
220
0
230
1
100
AcDb2LineAngularDimension
 13
90
 23
10.00000000000009
 33
0
 14
90
 24
29.99999999999998
 34
0
 15
90
 25
10.00000000000009
 35
0
 16
87.94673941910654
 26
23.17953610892027
 36
0
  0
ARC
  5
D3
100
AcDbEntity
  8
0
  6
ByLayer
 62
  256
370
   -1
100
AcDbCircle
 10
90
 20
10
 40
80
100
AcDbArc
 50
90
 51
180
  0
ARC
  5
D4
100
AcDbEntity
  8
0
  6
ByLayer
 62
  256
370
   -1
100
AcDbCircle
 10
90
 20
10
 40
60
100
AcDbArc
 50
90
 51
170.5376777919744
  0
ARC
  5
D5
100
AcDbEntity
  8
0
  6
ByLayer
 62
  256
370
   -1
100
AcDbCircle
 10
90
 20
10
 40
40
100
AcDbArc
 50
90
 51
135
  0
ARC
  5
D6
100
AcDbEntity
  8
0
  6
ByLayer
 62
  256
370
   -1
100
AcDbCircle
 10
90
 20
10
 40
20
100
AcDbArc
 50
90
 51
116.565051177078
  0
DIMENSION
  5
D7
100
AcDbEntity
  8
0
  6
ByLayer
 62
  256
370
   -1
100
AcDbDimension
 10
10
 20
10.00000000000001
 30
0
 11
37.18052193574765
 21
62.8194780642524
 31
0
 70
   34
 71
    5
 72
    0
  3
QCADDimStyle
 53
0
210
0
220
0
230
1
100
AcDb2LineAngularDimension
 13
90
 23
10.00000000000009
 33
0
 14
90
 24
90.00000000000001
 34
0
 15
90
 25
10.00000000000009
 35
0
 16
53.61825078679497
 26
73.01503810550017
 36
0
  0
DIMENSION
  5
D8
100
AcDbEntity
  8
0
  6
ByLayer
 62
  256
370
   -1
100
AcDbDimension
 10
30.81636457007138
 20
19.86393923832142
 30
0
 11
54.3695073784866
 21
52.06038634595373
 31
0
 70
   34
  1
%%C<>
 71
    5
 72
    0
  3
QCADDimStyle
 53
0
210
0
220
0
230
1
100
AcDb2LineAngularDimension
 13
90
 23
10.00000000000009
 33
0
 14
90
 24
69.99999999999999
 34
0
 15
90
 25
10.00000000000009
 35
0
 16
65.98023379718036
 26
57.45656536215831
 36
0
  0
ENDBLK
  5
81
330
7F
100
AcDbEntity
  8
0
100
AcDbBlockEnd
  0
BLOCK
  5
83
330
82
100
AcDbEntity
  8
0
100
AcDbBlockBegin
  2
line
 70
    0
 10
0
 20
0
  3
line
  1

  0
LINE
  5
D9
100
AcDbEntity
  8
0
  6
ByLayer
 62
  256
370
   -1
100
AcDbLine
 10
10
 20
10
 11
90
 21
90
  0
ENDBLK
  5
84
330
82
100
AcDbEntity
  8
0
100
AcDbBlockEnd
  0
BLOCK
  5
86
330
85
100
AcDbEntity
  8
0
100
AcDbBlockBegin
  2
spline_cp_2deg
 70
    0
 10
0
 20
0
  3
spline_cp_2deg
  1

  0
SPLINE
  5
DA
100
AcDbEntity
  8
0
  6
ByLayer
 62
  256
370
   -1
100
AcDbSpline
210
0
220
0
230
0
 70
    8
 71
    2
 72
    7
 73
    4
 74
    0
 42
1e-07
 43
1e-07
 40
0
 40
0
 40
0
 40
0.5
 40
1
 40
1
 40
1
 10
10
 20
10
 30
0
 10
10
 20
90
 30
0
 10
90
 20
90
 30
0
 10
90
 20
10
 30
0
  0
ENDBLK
  5
87
330
85
100
AcDbEntity
  8
0
100
AcDbBlockEnd
  0
BLOCK
  5
89
330
88
100
AcDbEntity
  8
0
100
AcDbBlockBegin
  2
block_insert
 70
    0
 10
0
 20
0
  3
block_insert
  1

  0
INSERT
  5
DB
100
AcDbEntity
  8
0
  6
ByLayer
 62
  256
370
   -1
100
AcDbBlockReference
  2
block01
 10
0
 20
0
 30
0
 41
1
 42
1
 43
0
 50
0
 70
    1
 71
    1
 44
0
 45
0
  0
INSERT
  5
DC
100
AcDbEntity
  8
0
  6
ByLayer
 62
  256
370
   -1
100
AcDbBlockReference
  2
block02
 10
0
 20
0
 30
0
 41
1
 42
1
 43
0
 50
0
 70
    1
 71
    1
 44
0
 45
0
  0
ENDBLK
  5
8A
330
88
100
AcDbEntity
  8
0
100
AcDbBlockEnd
  0
BLOCK
  5
8C
330
8B
100
AcDbEntity
  8
0
100
AcDbBlockBegin
  2
dim_diametric_circle
 70
    0
 10
0
 20
0
  3
dim_diametric_circle
  1

  0
DIMENSION
  5
DD
100
AcDbEntity
  8
0
  6
ByLayer
 62
  256
370
   -1
100
AcDbDimension
 10
45.00000000000001
 20
70
 30
0
 11
6.220238095238097
 21
71.875
 31
0
 70
   35
 71
    5
 72
    0
  3
QCADDimStyle
 53
0
210
0
220
0
230
1
100
AcDbDiametricDimension
 15
15
 25
70
 35
0
 40
0
  0
DIMENSION
  5
DE
100
AcDbEntity
  8
0
  6
ByLayer
 62
  256
370
   -1
100
AcDbDimension
 10
80.60660171779821
 20
80.60660171779823
 30
0
 11
49.2389069471122
 21
55.96509742330268
 31
0
 70
   35
  1
%%C<>
 71
    5
 72
    0
  3
QCADDimStyle
 53
0
210
0
220
0
230
1
100
AcDbDiametricDimension
 15
59.39339828220179
 25
59.39339828220179
 35
0
 40
0
  0
DIMENSION
  5
DF
100
AcDbEntity
  8
0
  6
ByLayer
 62
  256
370
   -1
100
AcDbDimension
 10
30
 20
15
 30
0
 11
26.10119047619047
 21
51.875
 31
0
 70
   35
  1
text
 71
    5
 72
    0
  3
QCADDimStyle
 53
0
210
0
220
0
230
1
100
AcDbDiametricDimension
 15
30
 25
45
 35
0
 40
0
  0
DIMENSION
  5
E0
100
AcDbEntity
  8
0
  6
ByLayer
 62
  256
370
   -1
100
AcDbDimension
 10
59.39339828220179
 20
40.6066017177982
 30
0
 11
96.21335375208105
 21
15.27474148601415
 31
0
 70
   35
  1
\A1;<>\S0.01^ 0.02;
 71
    5
 72
    0
  3
QCADDimStyle
 53
0
210
0
220
0
230
1
100
AcDbDiametricDimension
 15
80.60660171779821
 25
19.39339828220175
 35
0
 40
0
  0
CIRCLE
  5
E1
100
AcDbEntity
  8
0
  6
ByLayer
 62
  256
370
   -1
100
AcDbCircle
 10
30
 20
70
 40
15
  0
CIRCLE
  5
E2
100
AcDbEntity
  8
0
  6
ByLayer
 62
  256
370
   -1
100
AcDbCircle
 10
70
 20
70
 40
15
  0
CIRCLE
  5
E3
100
AcDbEntity
  8
0
  6
ByLayer
 62
  256
370
   -1
100
AcDbCircle
 10
30
 20
30
 40
15
  0
CIRCLE
  5
E4
100
AcDbEntity
  8
0
  6
ByLayer
 62
  256
370
   -1
100
AcDbCircle
 10
70
 20
30
 40
15
  0
ENDBLK
  5
8D
330
8B
100
AcDbEntity
  8
0
100
AcDbBlockEnd
  0
BLOCK
  5
8F
330
8E
100
AcDbEntity
  8
0
100
AcDbBlockBegin
  2
dim_vertical
 70
    0
 10
0
 20
0
  3
dim_vertical
  1

  0
DIMENSION
  5
E5
100
AcDbEntity
  8
0
  6
ByLayer
 62
  256
370
   -1
100
AcDbDimension
 10
10.00000000000001
 20
90
 30
0
 11
8.125000000000007
 21
50
 31
0
 70
   32
 71
    5
 72
    0
  3
QCADDimStyle
 53
0
210
0
220
0
230
1
100
AcDbAlignedDimension
 13
20
 23
10
 33
0
 14
20
 24
90
 34
0
 50
90
100
AcDbRotatedDimension
  0
DIMENSION
  5
E6
100
AcDbEntity
  8
0
  6
ByLayer
 62
  256
370
   -1
100
AcDbDimension
 10
30
 20
80
 30
0
 11
28.125
 21
45
 31
0
 70
   32
  1
%%C<>
 71
    5
 72
    0
  3
QCADDimStyle
 53
0
210
0
220
0
230
1
100
AcDbAlignedDimension
 13
40
 23
10
 33
0
 14
40.00000000000001
 24
80
 34
0
 50
90
100
AcDbRotatedDimension
  0
DIMENSION
  5
E7
100
AcDbEntity
  8
0
  6
ByLayer
 62
  256
370
   -1
100
AcDbDimension
 10
50
 20
70.00000000000001
 30
0
 11
48.125
 21
40.00000000000001
 31
0
 70
   32
  1
text
 71
    5
 72
    0
  3
QCADDimStyle
 53
0
210
0
220
0
230
1
100
AcDbAlignedDimension
 13
60
 23
9.999999999999995
 33
0
 14
60
 24
70.00000000000001
 34
0
 50
90
100
AcDbRotatedDimension
  0
DIMENSION
  5
E8
100
AcDbEntity
  8
0
  6
ByLayer
 62
  256
370
   -1
100
AcDbDimension
 10
70
 20
59.99999999999999
 30
0
 11
66.45833333333334
 21
34.99999999999996
 31
0
 70
   32
  1
\A1;<>\S0.01^ 0.02;
 71
    5
 72
    0
  3
QCADDimStyle
 53
0
210
0
220
0
230
1
100
AcDbAlignedDimension
 13
80
 23
9.999999999999941
 33
0
 14
80
 24
59.99999999999999
 34
0
 50
90
100
AcDbRotatedDimension
  0
ENDBLK
  5
90
330
8E
100
AcDbEntity
  8
0
100
AcDbBlockEnd
  0
BLOCK
  5
92
330
91
100
AcDbEntity
  8
0
100
AcDbBlockBegin
  2
block01
 70
    0
 10
0
 20
0
  3
block01
  1

  0
LINE
  5
E9
100
AcDbEntity
  8
0
  6
ByLayer
 62
  256
370
   -1
100
AcDbLine
 10
20
 20
90
 11
90
 21
90
  0
LINE
  5
EA
100
AcDbEntity
  8
0
  6
ByLayer
 62
  256
370
   -1
100
AcDbLine
 10
30
 20
60
 11
90
 21
60
  0
LINE
  5
EB
100
AcDbEntity
  8
0
  6
ByLayer
 62
  256
370
   -1
100
AcDbLine
 10
90
 20
60
 11
90
 21
90
  0
LINE
  5
EC
100
AcDbEntity
  8
0
  6
ByLayer
 62
  256
370
   -1
100
AcDbLine
 10
30
 20
80
 11
30
 21
60
  0
ARC
  5
ED
100
AcDbEntity
  8
0
  6
ByLayer
 62
  256
370
   -1
100
AcDbCircle
 10
20
 20
80
 40
10
100
AcDbArc
 50
90
 51
0
  0
MTEXT
  5
EE
100
AcDbEntity
  8
0
  6
ByLayer
 62
  256
370
   -1
100
AcDbMText
 10
40.00000000000001
 20
80
 30
0
 40
10
 41
44.44444444444491
 71
    1
 72
    1
  1
block01
  7
textstyle1
210
0
220
0
230
1
 50
0
 73
    1
 44
1
  0
ENDBLK
  5
93
330
91
100
AcDbEntity
  8
0
100
AcDbBlockEnd
  0
BLOCK
  5
95
330
94
100
AcDbEntity
  8
0
100
AcDbBlockBegin
  2
dim_radial_arc
 70
    0
 10
0
 20
0
  3
dim_radial_arc
  1

  0
ARC
  5
EF
100
AcDbEntity
  8
0
  6
ByLayer
 62
  256
370
   -1
100
AcDbCircle
 10
50
 20
50
 40
40
100
AcDbArc
 50
90
 51
180
  0
ARC
  5
F0
100
AcDbEntity
  8
0
  6
ByLayer
 62
  256
370
   -1
100
AcDbCircle
 10
90
 20
90
 40
40
100
AcDbArc
 50
180
 51
270
  0
ARC
  5
F1
100
AcDbEntity
  8
0
  6
ByLayer
 62
  256
370
   -1
100
AcDbCircle
 10
10
 20
10
 40
40.00000000000001
100
AcDbArc
 50
0
 51
90
  0
ARC
  5
F2
100
AcDbEntity
  8
0
  6
ByLayer
 62
  256
370
   -1
100
AcDbCircle
 10
50
 20
50
 40
39.99999999999999
100
AcDbArc
 50
270
 51
0
  0
DIMENSION
  5
F3
100
AcDbEntity
  8
0
  6
ByLayer
 62
  256
370
   -1
100
AcDbDimension
 10
50
 20
50.00000000000001
 30
0
 11
14.34090913231966
 21
83.69480515339464
 31
0
 70
   36
 71
    5
 72
    0
  3
QCADDimStyle
 53
0
210
0
220
0
230
1
100
AcDbRadialDimension
 15
21.71572875253811
 25
78.2842712474619
 35
0
 40
0
  0
DIMENSION
  5
F4
100
AcDbEntity
  8
0
  6
ByLayer
 62
  256
370
   -1
100
AcDbDimension
 10
90
 20
90.00000000000001
 30
0
 11
39.96730524736251
 21
76.85418111420019
 31
0
 70
   36
  1
%%C<>
 71
    5
 72
    0
  3
QCADDimStyle
 53
0
210
0
220
0
230
1
100
AcDbRadialDimension
 15
52.05266807797945
 25
77.35088935932647
 35
0
 40
0
  0
DIMENSION
  5
F5
100
AcDbEntity
  8
0
  6
ByLayer
 62
  256
370
   -1
100
AcDbDimension
 10
50
 20
50.00000000000001
 30
0
 11
70.18858460269024
 21
7.255573425026257
 31
0
 70
   36
  1
text
 71
    5
 72
    0
  3
QCADDimStyle
 53
0
210
0
220
0
230
1
100
AcDbRadialDimension
 15
63.71770532958375
 25
12.42574604212738
 35
0
 40
0
  0
DIMENSION
  5
F6
100
AcDbEntity
  8
0
  6
ByLayer
 62
  256
370
   -1
100
AcDbDimension
 10
10
 20
10
 30
0
 11
37.37265543203225
 21
54.16100704697436
 31
0
 70
   36
  1
\A1;<>\S0.01^ 0.02;
 71
    5
 72
    0
  3
QCADDimStyle
 53
0
210
0
220
0
230
1
100
AcDbRadialDimension
 15
27.21484715651544
 25
46.10608033805128
 35
0
 40
0
  0
ENDBLK
  5
96
330
94
100
AcDbEntity
  8
0
100
AcDbBlockEnd
  0
BLOCK
  5
98
330
97
100
AcDbEntity
  8
0
100
AcDbBlockBegin
  2
points
 70
    0
 10
0
 20
0
  3
points
  1

  0
POINT
  5
F7
100
AcDbEntity
  8
0
  6
ByLayer
 62
  256
370
   -1
100
AcDbPoint
 10
30
 20
63.33333333333333
  0
POINT
  5
F8
100
AcDbEntity
  8
0
  6
ByLayer
 62
  256
370
   -1
100
AcDbPoint
 10
50
 20
63.33333333333333
  0
POINT
  5
F9
100
AcDbEntity
  8
0
  6
ByLayer
 62
  256
370
   -1
100
AcDbPoint
 10
70
 20
63.33333333333333
  0
POINT
  5
FA
100
AcDbEntity
  8
0
  6
ByLayer
 62
  256
370
   -1
100
AcDbPoint
 10
90
 20
63.33333333333333
  0
POINT
  5
FB
100
AcDbEntity
  8
0
  6
ByLayer
 62
  256
370
   -1
100
AcDbPoint
 10
10
 20
36.66666666666666
  0
POINT
  5
FC
100
AcDbEntity
  8
0
  6
ByLayer
 62
  256
370
   -1
100
AcDbPoint
 10
30
 20
36.66666666666666
  0
POINT
  5
FD
100
AcDbEntity
  8
0
  6
ByLayer
 62
  256
370
   -1
100
AcDbPoint
 10
50
 20
36.66666666666666
  0
POINT
  5
FE
100
AcDbEntity
  8
0
  6
ByLayer
 62
  256
370
   -1
100
AcDbPoint
 10
70
 20
36.66666666666666
  0
POINT
  5
FF
100
AcDbEntity
  8
0
  6
ByLayer
 62
  256
370
   -1
100
AcDbPoint
 10
90
 20
36.66666666666666
  0
POINT
  5
100
100
AcDbEntity
  8
0
  6
ByLayer
 62
  256
370
   -1
100
AcDbPoint
 10
90
 20
10
  0
POINT
  5
101
100
AcDbEntity
  8
0
  6
ByLayer
 62
  256
370
   -1
100
AcDbPoint
 10
70
 20
10
  0
POINT
  5
102
100
AcDbEntity
  8
0
  6
ByLayer
 62
  256
370
   -1
100
AcDbPoint
 10
50
 20
10
  0
POINT
  5
103
100
AcDbEntity
  8
0
  6
ByLayer
 62
  256
370
   -1
100
AcDbPoint
 10
30
 20
10
  0
POINT
  5
104
100
AcDbEntity
  8
0
  6
ByLayer
 62
  256
370
   -1
100
AcDbPoint
 10
10
 20
10
  0
POINT
  5
105
100
AcDbEntity
  8
0
  6
ByLayer
 62
  256
370
   -1
100
AcDbPoint
 10
10
 20
90
  0
POINT
  5
106
100
AcDbEntity
  8
0
  6
ByLayer
 62
  256
370
   -1
100
AcDbPoint
 10
30
 20
90
  0
POINT
  5
107
100
AcDbEntity
  8
0
  6
ByLayer
 62
  256
370
   -1
100
AcDbPoint
 10
50
 20
90
  0
POINT
  5
108
100
AcDbEntity
  8
0
  6
ByLayer
 62
  256
370
   -1
100
AcDbPoint
 10
70
 20
90
  0
POINT
  5
109
100
AcDbEntity
  8
0
  6
ByLayer
 62
  256
370
   -1
100
AcDbPoint
 10
90
 20
90
  0
POINT
  5
10A
100
AcDbEntity
  8
0
  6
ByLayer
 62
  256
370
   -1
100
AcDbPoint
 10
10
 20
63.33333333333333
  0
ENDBLK
  5
99
330
97
100
AcDbEntity
  8
0
100
AcDbBlockEnd
  0
BLOCK
  5
9B
330
9A
100
AcDbEntity
  8
0
100
AcDbBlockBegin
  2
spline_cp_2deg_closed
 70
    0
 10
0
 20
0
  3
spline_cp_2deg_closed
  1

  0
SPLINE
  5
10B
100
AcDbEntity
  8
0
  6
ByLayer
 62
  256
370
   -1
100
AcDbSpline
210
0
220
0
230
0
 70
    8
 71
    2
 72
   10
 73
    7
 74
    0
 42
1e-07
 43
1e-07
 40
0
 40
0
 40
0
 40
0.2
 40
0.4
 40
0.6
 40
0.8
 40
1
 40
1
 40
1
 10
10
 20
10
 30
0
 10
10
 20
90
 30
0
 10
90
 20
90
 30
0
 10
50
 20
60
 30
0
 10
90
 20
10
 30
0
 10
10
 20
10
 30
0
 10
10
 20
90
 30
0
  0
ENDBLK
  5
9C
330
9A
100
AcDbEntity
  8
0
100
AcDbBlockEnd
  0
BLOCK
  5
9E
330
9D
100
AcDbEntity
  8
0
100
AcDbBlockBegin
  2
ellipse
 70
    0
 10
0
 20
0
  3
ellipse
  1

  0
ELLIPSE
  5
10C
100
AcDbEntity
  8
0
  6
ByLayer
 62
  256
370
   -1
100
AcDbEllipse
 10
50
 20
50
 30
0
 11
40
 21
30
 31
0
 40
0.28
 41
0
 42
6.283185307179586
  0
ENDBLK
  5
9F
330
9D
100
AcDbEntity
  8
0
100
AcDbBlockEnd
  0
BLOCK
  5
A1
330
A0
100
AcDbEntity
  8
0
100
AcDbBlockBegin
  2
block02
 70
    0
 10
0
 20
0
  3
block02
  1

  0
LINE
  5
10D
100
AcDbEntity
  8
0
  6
ByLayer
 62
  256
370
   -1
100
AcDbLine
 10
30
 20
30
 11
90
 21
30
  0
LINE
  5
10E
100
AcDbEntity
  8
0
  6
ByLayer
 62
  256
370
   -1
100
AcDbLine
 10
90
 20
30
 11
90
 21
10
  0
LINE
  5
10F
100
AcDbEntity
  8
0
  6
ByLayer
 62
  256
370
   -1
100
AcDbLine
 10
90
 20
10
 11
30
 21
10
  0
MTEXT
  5
110
100
AcDbEntity
  8
0
  6
ByLayer
 62
  256
370
   -1
100
AcDbMText
 10
35.71712000000002
 20
24.90368000000002
 30
0
 40
10
 41
46.66666666666713
 71
    1
 72
    1
  1
block02
  7
textstyle2
210
0
220
0
230
1
 50
0
 73
    1
 44
1
  0
ELLIPSE
  5
111
100
AcDbEntity
  8
0
  6
ByLayer
 62
  256
370
   -1
100
AcDbEllipse
 10
30
 20
20
 30
0
 11
20
 21
0
 31
0
 40
0.5
 41
1.570796326794897
 42
4.71238898038469
  0
ENDBLK
  5
A2
330
A0
100
AcDbEntity
  8
0
100
AcDbBlockEnd
  0
BLOCK
  5
A4
330
A3
100
AcDbEntity
  8
0
100
AcDbBlockBegin
  2
spline_cp_3deg
 70
    0
 10
0
 20
0
  3
spline_cp_3deg
  1

  0
SPLINE
  5
112
100
AcDbEntity
  8
0
  6
ByLayer
 62
  256
370
   -1
100
AcDbSpline
210
0
220
0
230
0
 70
    8
 71
    3
 72
    8
 73
    4
 74
    0
 42
1e-07
 43
1e-07
 40
0
 40
0
 40
0
 40
0
 40
1
 40
1
 40
1
 40
1
 10
10
 20
10
 30
0
 10
10
 20
90
 30
0
 10
90
 20
90
 30
0
 10
90
 20
10
 30
0
  0
ENDBLK
  5
A5
330
A3
100
AcDbEntity
  8
0
100
AcDbBlockEnd
  0
BLOCK
  5
A7
330
A6
100
AcDbEntity
  8
0
100
AcDbBlockBegin
  2
dim_angular_line
 70
    0
 10
0
 20
0
  3
dim_angular_line
  1

  0
DIMENSION
  5
113
100
AcDbEntity
  8
0
  6
ByLayer
 62
  256
370
   -1
100
AcDbDimension
 10
90
 20
39.99999999999999
 30
0
 11
32.22647062363794
 21
31.75558197044892
 31
0
 70
   34
  1
text
 71
    5
 72
    0
  3
QCADDimStyle
 53
0
210
0
220
0
230
1
100
AcDb2LineAngularDimension
 13
10.00000000000001
 23
80
 33
0
 14
20
 24
10
 34
0
 15
20
 25
10
 35
0
 16
35.3913800005498
 26
27.19967235674985
 36
0
  0
DIMENSION
  5
114
100
AcDbEntity
  8
0
  6
ByLayer
 62
  256
370
   -1
100
AcDbDimension
 10
89.99999999999999
 20
71.31330052888579
 30
0
 11
72.53651447013155
 21
51.51535526334432
 31
0
 70
   34
  1
\A1;<>\S0.01^ 0.02;
 71
    5
 72
    0
  3
QCADDimStyle
 53
0
210
0
220
0
230
1
100
AcDb2LineAngularDimension
 13
42.36353347545233
 23
19.58437148947957
 33
0
 14
90.57446564376129
 24
40.24619956161199
 34
0
 15
89.99999999999999
 25
39.37500000000001
 35
0
 16
79.36581327116616
 26
53.74273154912756
 36
0
  0
LINE
  5
115
100
AcDbEntity
  8
0
  6
ByLayer
 62
  256
370
   -1
100
AcDbLine
 10
90
 20
90
 11
10
 21
80
  0
LINE
  5
116
100
AcDbEntity
  8
0
  6
ByLayer
 62
  256
370
   -1
100
AcDbLine
 10
10
 20
80
 11
20
 21
10
  0
LINE
  5
117
100
AcDbEntity
  8
0
  6
ByLayer
 62
  256
370
   -1
100
AcDbLine
 10
20
 20
10
 11
90
 21
40
  0
LINE
  5
118
100
AcDbEntity
  8
0
  6
ByLayer
 62
  256
370
   -1
100
AcDbLine
 10
90
 20
40
 11
90
 21
90
  0
DIMENSION
  5
119
100
AcDbEntity
  8
0
  6
ByLayer
 62
  256
370
   -1
100
AcDbDimension
 10
20
 20
10
 30
0
 11
24.42483460057982
 21
68.98237132497556
 31
0
 70
   34
 71
    5
 72
    0
  3
QCADDimStyle
 53
0
210
0
220
0
230
1
100
AcDb2LineAngularDimension
 13
90
 23
90.00000000000001
 33
0
 14
10.00000000000001
 24
80
 34
0
 15
10.00000000000001
 25
80
 35
0
 16
22.30928228746414
 26
64.12815121973895
 36
0
  0
DIMENSION
  5
11A
100
AcDbEntity
  8
0
  6
ByLayer
 62
  256
370
   -1
100
AcDbDimension
 10
90
 20
39.99999999999999
 30
0
 11
79.74062041142878
 21
78.37835722884175
 31
0
 70
   34
  1
%%C<>
 71
    5
 72
    0
  3
QCADDimStyle
 53
0
210
0
220
0
230
1
100
AcDb2LineAngularDimension
 13
31.17091023296076
 23
82.64636377912008
 33
0
 14
90.62017367294604
 24
90.07752170911819
 34
0
 15
90
 25
90.00000000000001
 35
0
 16
75.67319116239251
 26
80.06113502573822
 36
0
  0
ENDBLK
  5
A8
330
A6
100
AcDbEntity
  8
0
100
AcDbBlockEnd
  0
BLOCK
  5
AA
330
A9
100
AcDbEntity
  8
0
100
AcDbBlockBegin
  2
dim_horizontal
 70
    0
 10
0
 20
0
  3
dim_horizontal
  1

  0
DIMENSION
  5
11B
100
AcDbEntity
  8
0
  6
ByLayer
 62
  256
370
   -1
100
AcDbDimension
 10
90
 20
90.00000000000001
 30
0
 11
50.00000000000001
 21
91.87500000000001
 31
0
 70
   32
 71
    5
 72
    0
  3
QCADDimStyle
 53
0
210
0
220
0
230
1
100
AcDbAlignedDimension
 13
10.00000000000001
 23
80
 33
0
 14
90
 24
79.99999999999999
 34
0
100
AcDbRotatedDimension
  0
DIMENSION
  5
11C
100
AcDbEntity
  8
0
  6
ByLayer
 62
  256
370
   -1
100
AcDbDimension
 10
80
 20
70
 30
0
 11
45
 21
71.875
 31
0
 70
   32
  1
%%C<>
 71
    5
 72
    0
  3
QCADDimStyle
 53
0
210
0
220
0
230
1
100
AcDbAlignedDimension
 13
9.999999999999995
 23
60
 33
0
 14
80
 24
59.99999999999999
 34
0
100
AcDbRotatedDimension
  0
DIMENSION
  5
11D
100
AcDbEntity
  8
0
  6
ByLayer
 62
  256
370
   -1
100
AcDbDimension
 10
70
 20
50.00000000000001
 30
0
 11
40
 21
51.87500000000001
 31
0
 70
   32
  1
text
 71
    5
 72
    0
  3
QCADDimStyle
 53
0
210
0
220
0
230
1
100
AcDbAlignedDimension
 13
9.999999999999996
 23
40
 33
0
 14
70
 24
39.99999999999998
 34
0
100
AcDbRotatedDimension
  0
DIMENSION
  5
11E
100
AcDbEntity
  8
0
  6
ByLayer
 62
  256
370
   -1
100
AcDbDimension
 10
60
 20
29.99999999999999
 30
0
 11
35
 21
33.54166666666666
 31
0
 70
   32
  1
\A1;<>\S0.01^ 0.02;
 71
    5
 72
    0
  3
QCADDimStyle
 53
0
210
0
220
0
230
1
100
AcDbAlignedDimension
 13
10
 23
20
 33
0
 14
60
 24
20.00000000000001
 34
0
100
AcDbRotatedDimension
  0
ENDBLK
  5
AB
330
A9
100
AcDbEntity
  8
0
100
AcDbBlockEnd
  0
BLOCK
  5
AD
330
AC
100
AcDbEntity
  8
0
100
AcDbBlockBegin
  2
dim_radial_circle
 70
    0
 10
0
 20
0
  3
dim_radial_circle
  1

  0
CIRCLE
  5
11F
100
AcDbEntity
  8
0
  6
ByLayer
 62
  256
370
   -1
100
AcDbCircle
 10
30
 20
70
 40
15
  0
CIRCLE
  5
120
100
AcDbEntity
  8
0
  6
ByLayer
 62
  256
370
   -1
100
AcDbCircle
 10
70
 20
70
 40
15
  0
CIRCLE
  5
121
100
AcDbEntity
  8
0
  6
ByLayer
 62
  256
370
   -1
100
AcDbCircle
 10
30
 20
30
 40
15
  0
CIRCLE
  5
122
100
AcDbEntity
  8
0
  6
ByLayer
 62
  256
370
   -1
100
AcDbCircle
 10
70
 20
30
 40
15
  0
DIMENSION
  5
123
100
AcDbEntity
  8
0
  6
ByLayer
 62
  256
370
   -1
100
AcDbDimension
 10
30
 20
70
 30
0
 11
53.83928571428572
 21
71.875
 31
0
 70
   36
 71
    5
 72
    0
  3
QCADDimStyle
 53
0
210
0
220
0
230
1
100
AcDbRadialDimension
 15
45.00000000000001
 25
70
 35
0
 40
0
  0
DIMENSION
  5
124
100
AcDbEntity
  8
0
  6
ByLayer
 62
  256
370
   -1
100
AcDbDimension
 10
70
 20
70.00000000000001
 30
0
 11
92.00693748041547
 21
82.35120513636004
 31
0
 70
   36
  1
%%C<>
 71
    5
 72
    0
  3
QCADDimStyle
 53
0
210
0
220
0
230
1
100
AcDbRadialDimension
 15
82.77752453888304
 25
77.85715385227003
 35
0
 40
0
  0
DIMENSION
  5
125
100
AcDbEntity
  8
0
  6
ByLayer
 62
  256
370
   -1
100
AcDbDimension
 10
30
 20
30
 30
0
 11
7.106201552586688
 21
19.81513284516909
 31
0
 70
   36
  1
text
 71
    5
 72
    0
  3
QCADDimStyle
 53
0
210
0
220
0
230
1
100
AcDbRadialDimension
 15
17.33667405093081
 25
21.96008856344606
 35
0
 40
0
  0
DIMENSION
  5
126
100
AcDbEntity
  8
0
  6
ByLayer
 62
  256
370
   -1
100
AcDbDimension
 10
70
 20
30.00000000000002
 30
0
 11
61.99404761904762
 21
53.54166666666667
 31
0
 70
   36
  1
\A1;<>\S0.01^ 0.02;
 71
    5
 72
    0
  3
QCADDimStyle
 53
0
210
0
220
0
230
1
100
AcDbRadialDimension
 15
70
 25
45.00000000000001
 35
0
 40
0
  0
ENDBLK
  5
AE
330
AC
100
AcDbEntity
  8
0
100
AcDbBlockEnd
  0
BLOCK
  5
B0
330
AF
100
AcDbEntity
  8
0
100
AcDbBlockBegin
  2
ellispe_arc
 70
    0
 10
0
 20
0
  3
ellispe_arc
  1

  0
ELLIPSE
  5
127
100
AcDbEntity
  8
0
  6
ByLayer
 62
  256
370
   -1
100
AcDbEllipse
 10
50
 20
50
 30
0
 11
-40.00000000000001
 21
-40.00000000000001
 31
0
 40
0.25
 41
1.815774989921761
 42
7.038393146846551
  0
ENDBLK
  5
B1
330
AF
100
AcDbEntity
  8
0
100
AcDbBlockEnd
  0
BLOCK
  5
B3
330
B2
100
AcDbEntity
  8
0
100
AcDbBlockBegin
  2
spline_cp_3deg_closed
 70
    0
 10
0
 20
0
  3
spline_cp_3deg_closed
  1

  0
SPLINE
  5
128
100
AcDbEntity
  8
0
  6
ByLayer
 62
  256
370
   -1
100
AcDbSpline
210
0
220
0
230
0
 70
    8
 71
    3
 72
   14
 73
   10
 74
    0
 42
1e-07
 43
1e-07
 40
-2
 40
-2
 40
-1
 40
0
 40
1
 40
2
 40
3
 40
4
 40
5
 40
6
 40
7
 40
8
 40
9
 40
9
 10
10
 20
90
 30
0
 10
10
 20
10
 30
0
 10
90
 20
10
 30
0
 10
90
 20
50
 30
0
 10
60
 20
40
 30
0
 10
50
 20
50
 30
0
 10
40
 20
90
 30
0
 10
10
 20
90
 30
0
 10
10
 20
10
 30
0
 10
90
 20
10
 30
0
  0
ENDBLK
  5
B4
330
B2
100
AcDbEntity
  8
0
100
AcDbBlockEnd
  0
BLOCK
  5
B6
330
B5
100
AcDbEntity
  8
0
100
AcDbBlockBegin
  2
circle
 70
    0
 10
0
 20
0
  3
circle
  1

  0
CIRCLE
  5
129
100
AcDbEntity
  8
0
  6
ByLayer
 62
  256
370
   -1
100
AcDbCircle
 10
50
 20
50
 40
40
  0
ENDBLK
  5
B7
330
B5
100
AcDbEntity
  8
0
100
AcDbBlockEnd
  0
BLOCK
  5
B9
330
B8
100
AcDbEntity
  8
0
100
AcDbBlockBegin
  2
hatch_pattern
 70
    0
 10
0
 20
0
  3
hatch_pattern
  1

  0
LWPOLYLINE
  5
12A
100
AcDbEntity
  8
0
  6
ByLayer
 62
  256
370
   -1
100
AcDbPolyline
 90
   18
 70
    1
 43
0
 10
20
 20
90
 10
10
 20
80
 10
10
 20
30
 42
0.9999999999999999
 10
50
 20
30
 10
50
 20
50
 10
60
 20
50
 10
60
 20
20
 10
70
 20
10
 10
90
 20
10
 10
90
 20
70
 10
80
 20
70
 10
80
 20
80
 10
90
 20
80
 10
90
 20
90
 10
50
 20
90
 10
50
 20
80
 10
40
 20
80
 10
40
 20
90
  0
ENDBLK
  5
BA
330
B8
100
AcDbEntity
  8
0
100
AcDbBlockEnd
  0
BLOCK
  5
BC
330
BB
100
AcDbEntity
  8
0
100
AcDbBlockBegin
  2
dim_leader
 70
    0
 10
0
 20
0
  3
dim_leader
  1

  0
LEADER
  5
12B
100
AcDbEntity
  8
0
  6
ByLayer
 62
  256
370
   -1
100
AcDbLeader
  3
Standard
 71
    0
 72
    0
 73
    3
 74
    0
 75
    0
 40
1
 41
10
 76
2
 76
3
 10
10
 20
70
 30
0
 10
40
 20
90
 30
0
 10
90
 20
90
 30
0
  0
LEADER
  5
12C
100
AcDbEntity
  8
0
  6
ByLayer
 62
  256
370
   -1
100
AcDbLeader
  3
Standard
 71
    0
 72
    0
 73
    3
 74
    0
 75
    0
 40
1
 41
10
 76
2
 76
3
 10
10
 20
50
 30
0
 10
40
 20
70
 30
0
 10
70
 20
70
 30
0
  0
LEADER
  5
12D
100
AcDbEntity
  8
0
  6
ByLayer
 62
  256
370
   -1
100
AcDbLeader
  3
Standard
 71
    0
 72
    0
 73
    3
 74
    0
 75
    0
 40
1
 41
10
 76
3
 76
4
 10
90
 20
10
 30
0
 10
80
 20
30
 30
0
 10
50
 20
40
 30
0
 10
20
 20
40
 30
0
  0
ENDBLK
  5
BD
330
BB
100
AcDbEntity
  8
0
100
AcDbBlockEnd
  0
BLOCK
  5
BF
330
BE
100
AcDbEntity
  8
0
100
AcDbBlockBegin
  2
spline_fp
 70
    0
 10
0
 20
0
  3
spline_fp
  1

  0
SPLINE
  5
12E
100
AcDbEntity
  8
0
  6
ByLayer
 62
  256
370
   -1
100
AcDbSpline
210
0
220
0
230
0
 70
    8
 71
    3
 72
   10
 73
    6
 74
    0
 42
1e-07
 43
1e-07
 40
0
 40
0
 40
0
 40
0
 40
70
 40
130
 40
200
 40
200
 40
200
 40
200
 10
20
 20
10
 30
0
 10
11.83333333333333
 20
38.4375
 30
0
 10
-3.333333333333336
 20
91.24999999999999
 30
0
 10
103.3333333333333
 20
91.25000000000001
 30
0
 10
88.16666666666666
 20
38.4375
 30
0
 10
80
 20
10
 30
0
  0
ENDBLK
  5
C0
330
BE
100
AcDbEntity
  8
0
100
AcDbBlockEnd
  0
BLOCK
  5
C2
330
C1
100
AcDbEntity
  8
0
100
AcDbBlockBegin
  2
dim_diametric_arc
 70
    0
 10
0
 20
0
  3
dim_diametric_arc
  1

  0
ARC
  5
12F
100
AcDbEntity
  8
0
  6
ByLayer
 62
  256
370
   -1
100
AcDbCircle
 10
50
 20
50
 40
40
100
AcDbArc
 50
0
 51
345.9637565320735
  0
ARC
  5
130
100
AcDbEntity
  8
0
  6
ByLayer
 62
  256
370
   -1
100
AcDbCircle
 10
50
 20
50
 40
30
100
AcDbArc
 50
0
 51
270
  0
ARC
  5
131
100
AcDbEntity
  8
0
  6
ByLayer
 62
  256
370
   -1
100
AcDbCircle
 10
50
 20
50
 40
20
100
AcDbArc
 50
0
 51
180
  0
ARC
  5
132
100
AcDbEntity
  8
0
  6
ByLayer
 62
  256
370
   -1
100
AcDbCircle
 10
50
 20
50
 40
10
100
AcDbArc
 50
0
 51
90
  0
DIMENSION
  5
133
100
AcDbEntity
  8
0
  6
ByLayer
 62
  256
370
   -1
100
AcDbDimension
 10
88.80570000581326
 20
40.29857499854664
 30
0
 11
80
 21
40.00000000000001
 31
0
 70
   35
 71
    5
 72
    0
  3
QCADDimStyle
 53
0
210
0
220
0
230
1
100
AcDbDiametricDimension
 15
11.19429999418673
 25
59.70142500145337
 35
0
 40
0
  0
DIMENSION
  5
134
100
AcDbEntity
  8
0
  6
ByLayer
 62
  256
370
   -1
100
AcDbDimension
 10
36.2408016867936
 20
23.34133420859442
 30
0
 11
37.16581277192978
 21
32.05172968421052
 31
0
 70
   35
  1
%%C<>
 71
    5
 72
    0
  3
QCADDimStyle
 53
0
210
0
220
0
230
1
100
AcDbDiametricDimension
 15
63.75919831320641
 25
76.65866579140557
 35
0
 40
0
  0
DIMENSION
  5
135
100
AcDbEntity
  8
0
  6
ByLayer
 62
  256
370
   -1
100
AcDbDimension
 10
33.75991531145317
 20
61.67303085358841
 30
0
 11
40
 21
60
 31
0
 70
   35
  1
text
 71
    5
 72
    0
  3
QCADDimStyle
 53
0
210
0
220
0
230
1
100
AcDbDiametricDimension
 15
66.24008468854683
 25
38.32696914641162
 35
0
 40
0
  0
DIMENSION
  5
136
100
AcDbEntity
  8
0
  6
ByLayer
 62
  256
370
   -1
100
AcDbDimension
 10
59.39669247258743
 20
53.42084354737525
 30
0
 11
36.00370750877188
 21
48.03067705263156
 31
0
 70
   35
  1
\A1;<>\S0.01^ 0.02;
 71
    5
 72
    0
  3
QCADDimStyle
 53
0
210
0
220
0
230
1
100
AcDbDiametricDimension
 15
40.60330752741257
 25
46.57915645262477
 35
0
 40
0
  0
ENDBLK
  5
C3
330
C1
100
AcDbEntity
  8
0
100
AcDbBlockEnd
  0
BLOCK
  5
C5
330
C4
100
AcDbEntity
  8
0
100
AcDbBlockBegin
  2
dim_aligned
 70
    0
 10
0
 20
0
  3
dim_aligned
  1

  0
DIMENSION
  5
137
100
AcDbEntity
  8
0
  6
ByLayer
 62
  256
370
   -1
100
AcDbDimension
 10
92.42535625036334
 20
69.70142500145332
 30
0
 11
52.88011054730647
 21
81.52044218922582
 31
0
 70
   33
 71
    5
 72
    0
  3
QCADDimStyle
 53
0
210
0
220
0
230
1
100
AcDbAlignedDimension
 13
10.00000000000001
 23
80
 33
0
 14
90
 24
59.99999999999999
 34
0
  0
DIMENSION
  5
138
100
AcDbEntity
  8
0
  6
ByLayer
 62
  256
370
   -1
100
AcDbDimension
 10
50
 20
70
 30
0
 11
30
 21
71.875
 31
0
 70
   33
  1
%%C<>
 71
    5
 72
    0
  3
QCADDimStyle
 53
0
210
0
220
0
230
1
100
AcDbAlignedDimension
 13
9.999999999999995
 23
60
 33
0
 14
50
 24
59.99999999999999
 34
0
  0
DIMENSION
  5
139
100
AcDbEntity
  8
0
  6
ByLayer
 62
  256
370
   -1
100
AcDbDimension
 10
68.35601012694643
 20
59.86393923832144
 30
0
 11
38.04776202574889
 21
56.71342784550671
 31
0
 70
   33
  1
text
 71
    5
 72
    0
  3
QCADDimStyle
 53
0
210
0
220
0
230
1
100
AcDbAlignedDimension
 13
9.999999999999996
 23
40
 33
0
 14
70
 24
50.00000000000001
 34
0
  0
DIMENSION
  5
13A
100
AcDbEntity
  8
0
  6
ByLayer
 62
  256
370
   -1
100
AcDbDimension
 10
81.41421356237309
 20
19.89949493661162
 30
0
 11
46.91508086571358
 21
28.40556605999495
 31
0
 70
   33
  1
\A1;<>\S0.01^ 0.02;
 71
    5
 72
    0
  3
QCADDimStyle
 53
0
210
0
220
0
230
1
100
AcDbAlignedDimension
 13
10
 23
20
 33
0
 14
80
 24
9.999999999999941
 34
0
  0
ENDBLK
  5
C6
330
C4
100
AcDbEntity
  8
0
100
AcDbBlockEnd
  0
BLOCK
  5
C8
330
C7
100
AcDbEntity
  8
0
100
AcDbBlockBegin
  2
dim_rotated
 70
    0
 10
0
 20
0
  3
dim_rotated
  1

  0
DIMENSION
  5
13B
100
AcDbEntity
  8
0
  6
ByLayer
 62
  256
370
   -1
100
AcDbDimension
 10
29.15379583999999
 20
90.84620416000001
 30
0
 11
17.82797062527521
 21
82.17202937472479
 31
0
 70
   32
 71
    5
 72
    0
  3
QCADDimStyle
 53
0
210
0
220
0
230
1
100
AcDbAlignedDimension
 13
20
 23
60
 33
0
 14
40.00000000000001
 24
80
 34
0
 50
45
100
AcDbRotatedDimension
  0
DIMENSION
  5
13C
100
AcDbEntity
  8
0
  6
ByLayer
 62
  256
370
   -1
100
AcDbDimension
 10
75.91518348496521
 20
87.0751097436367
 30
0
 11
63.14755646604301
 21
81.86878035681033
 31
0
 70
   32
  1
%%C<>
 71
    5
 72
    0
  3
QCADDimStyle
 53
0
210
0
220
0
230
1
100
AcDbAlignedDimension
 13
60
 23
60.00000000000001
 33
0
 14
80
 24
80.00000000000001
 34
0
 50
30
100
AcDbRotatedDimension
  0
DIMENSION
  5
13D
100
AcDbEntity
  8
0
  6
ByLayer
 62
  256
370
   -1
100
AcDbDimension
 10
9.999999999999998
 20
50
 30
0
 11
8.124999999999996
 21
30
 31
0
 70
   32
  1
text
 71
    5
 72
    0
  3
QCADDimStyle
 53
0
210
0
220
0
230
1
100
AcDbAlignedDimension
 13
30
 23
10
 33
0
 14
30
 24
50
 34
0
 50
90
100
AcDbRotatedDimension
  0
DIMENSION
  5
13E
100
AcDbEntity
  8
0
  6
ByLayer
 62
  256
370
   -1
100
AcDbDimension
 10
74.74892708087825
 20
51.01893226701624
 30
0
 11
85.41583037379843
 21
35.76819327092963
 31
0
 70
   32
  1
\A1;<>\S0.01^ 0.02;
 71
    5
 72
    0
  3
QCADDimStyle
 53
0
210
0
220
0
230
1
100
AcDbAlignedDimension
 13
73.11443199999997
 23
10.29130752000001
 33
0
 14
50
 24
39.99999999999999
 34
0
 50
-66
100
AcDbRotatedDimension
  0
ENDBLK
  5
C9
330
C7
100
AcDbEntity
  8
0
100
AcDbBlockEnd
  0
BLOCK
  5
CB
330
CA
100
AcDbEntity
  8
0
100
AcDbBlockBegin
  2
hatch_solid
 70
    0
 10
0
 20
0
  3
hatch_solid
  1

  0
LWPOLYLINE
  5
13F
100
AcDbEntity
  8
0
  6
ByLayer
 62
  256
370
   -1
100
AcDbPolyline
 90
   18
 70
    1
 43
0
 10
20
 20
90
 10
10
 20
80
 10
10
 20
30
 42
0.9999999999999999
 10
50
 20
30
 10
50
 20
50
 10
60
 20
50
 10
60
 20
20
 10
70
 20
10
 10
90
 20
10
 10
90
 20
70
 10
80
 20
70
 10
80
 20
80
 10
90
 20
80
 10
90
 20
90
 10
50
 20
90
 10
50
 20
80
 10
40
 20
80
 10
40
 20
90
  0
HATCH
  5
140
100
AcDbEntity
  8
0
  6
ByLayer
 62
  256
370
   -1
100
AcDbHatch
 10
0
 20
0
 30
0
210
0
220
0
230
1
  2
SOLID
 70
    1
 71
    0
 91
    1
 92
    0
 93
   18
 72
    1
 10
20
 20
90
 11
10
 21
80
 72
    1
 10
10
 20
80
 11
10
 21
30
 72
    2
 10
30
 20
30
 40
20
 50
180
 51
360
 73
    1
 72
    1
 10
50
 20
30
 11
50
 21
50
 72
    1
 10
50
 20
50
 11
60
 21
50
 72
    1
 10
60
 20
50
 11
60
 21
20
 72
    1
 10
60
 20
20
 11
70
 21
10
 72
    1
 10
70
 20
10
 11
90
 21
10
 72
    1
 10
90
 20
10
 11
90
 21
70
 72
    1
 10
90
 20
70
 11
80
 21
70
 72
    1
 10
80
 20
70
 11
80
 21
80
 72
    1
 10
80
 20
80
 11
90
 21
80
 72
    1
 10
90
 20
80
 11
90
 21
90
 72
    1
 10
90
 20
90
 11
50
 21
90
 72
    1
 10
50
 20
90
 11
50
 21
80
 72
    1
 10
50
 20
80
 11
40
 21
80
 72
    1
 10
40
 20
80
 11
40
 21
90
 72
    1
 10
40
 20
90
 11
20
 21
90
 97
    0
 75
    0
 76
    1
 98
    0
  0
ENDBLK
  5
CC
330
CA
100
AcDbEntity
  8
0
100
AcDbBlockEnd
  0
ENDSEC
  0
SECTION
  2
ENTITIES
  0
LINE
  5
141
100
AcDbEntity
  8
boxes
  6
ByLayer
 62
  256
370
   -1
100
AcDbLine
 10
465
 20
475
 11
585
 21
475
  0
MTEXT
  5
142
100
AcDbEntity
  8
boxes
  6
ByLayer
 62
  256
370
   -1
100
AcDbMText
 10
470
 20
490
 30
0
 40
8
 41
61.11111111111222
 71
    1
 72
    1
  1
dim rotated
  7
textstyle3
210
0
220
0
230
1
 50
0
 73
    1
 44
1
  0
INSERT
  5
143
100
AcDbEntity
  8
entities
  6
ByLayer
 62
  256
370
   -1
100
AcDbBlockReference
  2
dim_rotated
 10
476.1856407514316
 20
364.1349561817584
 30
0
 41
1
 42
1
 43
0
 50
0
 70
    1
 71
    1
 44
0
 45
0
  0
LWPOLYLINE
  5
144
100
AcDbEntity
  8
boxes
  6
ByLayer
 62
  256
370
   -1
100
AcDbPolyline
 90
    4
 70
    1
 43
0
 10
615
 20
355
 10
735
 20
355
 10
735
 20
495
 10
615
 20
495
  0
LINE
  5
145
100
AcDbEntity
  8
boxes
  6
ByLayer
 62
  256
370
   -1
100
AcDbLine
 10
615
 20
475
 11
735
 21
475
  0
MTEXT
  5
146
100
AcDbEntity
  8
boxes
  6
ByLayer
 62
  256
370
   -1
100
AcDbMText
 10
620
 20
490
 30
0
 40
8
 41
61.11111111111223
 71
    1
 72
    1
  1
dim vertical
  7
textstyle4
210
0
220
0
230
1
 50
0
 73
    1
 44
1
  0
INSERT
  5
147
100
AcDbEntity
  8
entities
  6
ByLayer
 62
  256
370
   -1
100
AcDbBlockReference
  2
dim_vertical
 10
631.875
 20
365
 30
0
 41
1
 42
1
 43
0
 50
0
 70
    1
 71
    1
 44
0
 45
0
  0
LWPOLYLINE
  5
148
100
AcDbEntity
  8
boxes
  6
ByLayer
 62
  256
370
   -1
100
AcDbPolyline
 90
    4
 70
    1
 43
0
 10
15
 20
525
 10
135
 20
525
 10
135
 20
665
 10
15
 20
665
  0
LINE
  5
149
100
AcDbEntity
  8
boxes
  6
ByLayer
 62
  256
370
   -1
100
AcDbLine
 10
15
 20
645
 11
135
 21
645
  0
MTEXT
  5
14A
100
AcDbEntity
  8
boxes
  6
ByLayer
 62
  256
370
   -1
100
AcDbMText
 10
20
 20
660
 30
0
 40
8
 41
32.00000411429795
 71
    1
 72
    1
  1
ellipse
  7
textstyle5
210
0
220
0
230
1
 50
0
 73
    1
 44
1
  0
INSERT
  5
14B
100
AcDbEntity
  8
entities
  6
ByLayer
 62
  256
370
   -1
100
AcDbBlockReference
  2
ellipse
 10
24.99970603889148
 20
535.0000231290624
 30
0
 41
1
 42
1
 43
0
 50
0
 70
    1
 71
    1
 44
0
 45
0
  0
LWPOLYLINE
  5
14C
100
AcDbEntity
  8
boxes
  6
ByLayer
 62
  256
370
   -1
100
AcDbPolyline
 90
    4
 70
    1
 43
0
 10
165
 20
525
 10
285
 20
525
 10
285
 20
665
 10
165
 20
665
  0
LINE
  5
14D
100
AcDbEntity
  8
boxes
  6
ByLayer
 62
  256
370
   -1
100
AcDbLine
 10
165
 20
645
 11
285
 21
645
  0
MTEXT
  5
14E
100
AcDbEntity
  8
boxes
  6
ByLayer
 62
  256
370
   -1
100
AcDbMText
 10
170
 20
660
 30
0
 40
8
 41
54.8888930031872
 71
    1
 72
    1
  1
ellispe arc
  7
textstyle6
210
0
220
0
230
1
 50
0
 73
    1
 44
1
  0
INSERT
  5
14F
100
AcDbEntity
  8
entities
  6
ByLayer
 62
  256
370
   -1
100
AcDbBlockReference
  2
ellispe_arc
 10
174.9994168314046
 20
535.0011426395141
 30
0
 41
1
 42
1
 43
0
 50
0
 70
    1
 71
    1
 44
0
 45
0
  0
LWPOLYLINE
  5
150
100
AcDbEntity
  8
boxes
  6
ByLayer
 62
  256
370
   -1
100
AcDbPolyline
 90
    4
 70
    1
 43
0
 10
315
 20
525
 10
435
 20
525
 10
435
 20
665
 10
315
 20
665
  0
LINE
  5
151
100
AcDbEntity
  8
boxes
  6
ByLayer
 62
  256
370
   -1
100
AcDbLine
 10
315
 20
645
 11
435
 21
645
  0
MTEXT
  5
152
100
AcDbEntity
  8
boxes
  6
ByLayer
 62
  256
370
   -1
100
AcDbMText
 10
320
 20
660
 30
0
 40
8
 41
73.55555555555742
 71
    1
 72
    1
  1
hatch pattern
  7
textstyle7
210
0
220
0
230
1
 50
0
 73
    1
 44
1
  0
INSERT
  5
153
100
AcDbEntity
  8
entities
  6
ByLayer
 62
  256
370
   -1
100
AcDbBlockReference
  2
hatch_pattern
 10
325
 20
535
 30
0
 41
1
 42
1
 43
0
 50
0
 70
    1
 71
    1
 44
0
 45
0
  0
LWPOLYLINE
  5
154
100
AcDbEntity
  8
boxes
  6
ByLayer
 62
  256
370
   -1
100
AcDbPolyline
 90
    4
 70
    1
 43
0
 10
465
 20
525
 10
585
 20
525
 10
585
 20
665
 10
465
 20
665
  0
LINE
  5
155
100
AcDbEntity
  8
boxes
  6
ByLayer
 62
  256
370
   -1
100
AcDbLine
 10
465
 20
645
 11
585
 21
645
  0
MTEXT
  5
156
100
AcDbEntity
  8
boxes
  6
ByLayer
 62
  256
370
   -1
100
AcDbMText
 10
470
 20
660
 30
0
 40
8
 41
57.55555966985425
 71
    1
 72
    1
  1
hatch solid
  7
textstyle8
210
0
220
0
230
1
 50
0
 73
    1
 44
1
  0
INSERT
  5
157
100
AcDbEntity
  8
entities
  6
ByLayer
 62
  256
370
   -1
100
AcDbBlockReference
  2
hatch_solid
 10
475
 20
535
 30
0
 41
1
 42
1
 43
0
 50
0
 70
    1
 71
    1
 44
0
 45
0
  0
LWPOLYLINE
  5
158
100
AcDbEntity
  8
boxes
  6
ByLayer
 62
  256
370
   -1
100
AcDbPolyline
 90
    4
 70
    1
 43
0
 10
615
 20
525
 10
735
 20
525
 10
735
 20
665
 10
615
 20
665
  0
LINE
  5
159
100
AcDbEntity
  8
boxes
  6
ByLayer
 62
  256
370
   -1
100
AcDbLine
 10
615
 20
645
 11
735
 21
645
  0
MTEXT
  5
15A
100
AcDbEntity
  8
boxes
  6
ByLayer
 62
  256
370
   -1
100
AcDbMText
 10
620
 20
660
 30
0
 40
8
 41
16.00000000000062
 71
    1
 72
    1
  1
line
  7
textstyle9
210
0
220
0
230
1
 50
0
 73
    1
 44
1
  0
INSERT
  5
15B
100
AcDbEntity
  8
entities
  6
ByLayer
 62
  256
370
   -1
100
AcDbBlockReference
  2
line
 10
625
 20
535
 30
0
 41
1
 42
1
 43
0
 50
0
 70
    1
 71
    1
 44
0
 45
0
  0
LWPOLYLINE
  5
15C
100
AcDbEntity
  8
boxes
  6
ByLayer
 62
  256
370
   -1
100
AcDbPolyline
 90
    4
 70
    1
 43
0
 10
15
 20
695
 10
135
 20
695
 10
135
 20
835
 10
15
 20
835
  0
LINE
  5
15D
100
AcDbEntity
  8
boxes
  6
ByLayer
 62
  256
370
   -1
100
AcDbLine
 10
15
 20
815
 11
135
 21
815
  0
MTEXT
  5
15E
100
AcDbEntity
  8
boxes
  6
ByLayer
 62
  256
370
   -1
100
AcDbMText
 10
20
 20
830
 30
0
 40
8
 41
30.22222633652017
 71
    1
 72
    1
  1
points
  7
textstyle10
210
0
220
0
230
1
 50
0
 73
    1
 44
1
  0
INSERT
  5
15F
100
AcDbEntity
  8
entities
  6
ByLayer
 62
  256
370
   -1
100
AcDbBlockReference
  2
points
 10
25
 20
705
 30
0
 41
1
 42
1
 43
0
 50
0
 70
    1
 71
    1
 44
0
 45
0
  0
LWPOLYLINE
  5
160
100
AcDbEntity
  8
boxes
  6
ByLayer
 62
  256
370
   -1
100
AcDbPolyline
 90
    4
 70
    1
 43
0
 10
165
 20
695
 10
285
 20
695
 10
285
 20
835
 10
165
 20
835
  0
LINE
  5
161
100
AcDbEntity
  8
boxes
  6
ByLayer
 62
  256
370
   -1
100
AcDbLine
 10
165
 20
815
 11
285
 21
815
  0
MTEXT
  5
162
100
AcDbEntity
  8
boxes
  6
ByLayer
 62
  256
370
   -1
100
AcDbMText
 10
170
 20
830
 30
0
 40
8
 41
38.22222222222259
 71
    1
 72
    1
  1
polyline
  7
textstyle11
210
0
220
0
230
1
 50
0
 73
    1
 44
1
  0
INSERT
  5
163
100
AcDbEntity
  8
entities
  6
ByLayer
 62
  256
370
   -1
100
AcDbBlockReference
  2
polyline
 10
175
 20
705
 30
0
 41
1
 42
1
 43
0
 50
0
 70
    1
 71
    1
 44
0
 45
0
  0
LWPOLYLINE
  5
164
100
AcDbEntity
  8
boxes
  6
ByLayer
 62
  256
370
   -1
100
AcDbPolyline
 90
    4
 70
    1
 43
0
 10
315
 20
695
 10
435
 20
695
 10
435
 20
835
 10
315
 20
835
  0
LINE
  5
165
100
AcDbEntity
  8
boxes
  6
ByLayer
 62
  256
370
   -1
100
AcDbLine
 10
315
 20
815
 11
435
 21
815
  0
MTEXT
  5
166
100
AcDbEntity
  8
boxes
  6
ByLayer
 62
  256
370
   -1
100
AcDbMText
 10
320
 20
830
 30
0
 40
8
 41
76.89193666508653
 71
    1
 72
    1
  1
spline cp 2deg
  7
textstyle12
210
0
220
0
230
1
 50
0
 73
    1
 44
1
  0
INSERT
  5
167
100
AcDbEntity
  8
entities
  6
ByLayer
 62
  256
370
   -1
100
AcDbBlockReference
  2
spline_cp_2deg
 10
325
 20
705
 30
0
 41
1
 42
1
 43
0
 50
0
 70
    1
 71
    1
 44
0
 45
0
  0
LWPOLYLINE
  5
168
100
AcDbEntity
  8
boxes
  6
ByLayer
 62
  256
370
   -1
100
AcDbPolyline
 90
    4
 70
    1
 43
0
 10
465
 20
695
 10
585
 20
695
 10
585
 20
835
 10
465
 20
835
  0
LINE
  5
169
100
AcDbEntity
  8
boxes
  6
ByLayer
 62
  256
370
   -1
100
AcDbLine
 10
465
 20
815
 11
585
 21
815
  0
MTEXT
  5
16A
100
AcDbEntity
  8
boxes
  6
ByLayer
 62
  256
370
   -1
100
AcDbMText
 10
470
 20
830
 30
0
 40
8
 41
116.6697185571619
 71
    1
 72
    1
  1
spline cp 2deg closed
  7
textstyle13
210
0
220
0
230
1
 50
0
 73
    1
 44
1
  0
INSERT
  5
16B
100
AcDbEntity
  8
entities
  6
ByLayer
 62
  256
370
   -1
100
AcDbBlockReference
  2
spline_cp_2deg_closed
 10
481.669921875
 20
705
 30
0
 41
1
 42
1
 43
0
 50
0
 70
    1
 71
    1
 44
0
 45
0
  0
LWPOLYLINE
  5
16C
100
AcDbEntity
  8
boxes
  6
ByLayer
 62
  256
370
   -1
100
AcDbPolyline
 90
    4
 70
    1
 43
0
 10
615
 20
695
 10
735
 20
695
 10
735
 20
835
 10
615
 20
835
  0
LINE
  5
16D
100
AcDbEntity
  8
boxes
  6
ByLayer
 62
  256
370
   -1
100
AcDbLine
 10
615
 20
815
 11
735
 21
815
  0
MTEXT
  5
16E
100
AcDbEntity
  8
boxes
  6
ByLayer
 62
  256
370
   -1
100
AcDbMText
 10
620
 20
830
 30
0
 40
8
 41
76.89193666508703
 71
    1
 72
    1
  1
spline cp 3deg
  7
textstyle14
210
0
220
0
230
1
 50
0
 73
    1
 44
1
  0
INSERT
  5
16F
100
AcDbEntity
  8
entities
  6
ByLayer
 62
  256
370
   -1
100
AcDbBlockReference
  2
spline_cp_3deg
 10
625
 20
715
 30
0
 41
1
 42
1
 43
0
 50
0
 70
    1
 71
    1
 44
0
 45
0
  0
LWPOLYLINE
  5
170
100
AcDbEntity
  8
boxes
  6
ByLayer
 62
  256
370
   -1
100
AcDbPolyline
 90
    4
 70
    1
 43
0
 10
15
 20
865
 10
135
 20
865
 10
135
 20
1005
 10
15
 20
1005
  0
LINE
  5
171
100
AcDbEntity
  8
boxes
  6
ByLayer
 62
  256
370
   -1
100
AcDbLine
 10
15
 20
985
 11
135
 21
985
  0
MTEXT
  5
172
100
AcDbEntity
  8
boxes
  6
ByLayer
 62
  256
370
   -1
100
AcDbMText
 10
20
 20
1000
 30
0
 40
8
 41
116.6697185571624
 71
    1
 72
    1
  1
spline cp 3deg closed
  7
textstyle15
210
0
220
0
230
1
 50
0
 73
    1
 44
1
  0
INSERT
  5
173
100
AcDbEntity
  8
entities
  6
ByLayer
 62
  256
370
   -1
100
AcDbBlockReference
  2
spline_cp_3deg_closed
 10
25
 20
875
 30
0
 41
1
 42
1
 43
0
 50
0
 70
    1
 71
    1
 44
0
 45
0
  0
LWPOLYLINE
  5
174
100
AcDbEntity
  8
boxes
  6
ByLayer
 62
  256
370
   -1
100
AcDbPolyline
 90
    4
 70
    1
 43
0
 10
165
 20
865
 10
285
 20
865
 10
285
 20
1005
 10
165
 20
1005
  0
LINE
  5
175
100
AcDbEntity
  8
boxes
  6
ByLayer
 62
  256
370
   -1
100
AcDbLine
 10
165
 20
985
 11
285
 21
985
  0
MTEXT
  5
176
100
AcDbEntity
  8
boxes
  6
ByLayer
 62
  256
370
   -1
100
AcDbMText
 10
170
 20
1000
 30
0
 40
8
 41
46.00304777619728
 71
    1
 72
    1
  1
spline fp
  7
textstyle16
210
0
220
0
230
1
 50
0
 73
    1
 44
1
  0
INSERT
  5
177
100
AcDbEntity
  8
entities
  6
ByLayer
 62
  256
370
   -1
100
AcDbBlockReference
  2
spline_fp
 10
175
 20
875.7812500004902
 30
0
 41
1
 42
1
 43
0
 50
0
 70
    1
 71
    1
 44
0
 45
0
  0
LWPOLYLINE
  5
178
100
AcDbEntity
  8
boxes
  6
ByLayer
 62
  256
370
   -1
100
AcDbPolyline
 90
    4
 70
    1
 43
0
 10
315
 20
865
 10
435
 20
865
 10
435
 20
1005
 10
315
 20
1005
  0
LWPOLYLINE
  5
179
100
AcDbEntity
  8
boxes
  6
ByLayer
 62
  256
370
   -1
100
AcDbPolyline
 90
    4
 70
    1
 43
0
 10
15
 20
15
 10
135
 20
15
 10
135
 20
155
 10
15
 20
155
  0
LINE
  5
17A
100
AcDbEntity
  8
boxes
  6
ByLayer
 62
  256
370
   -1
100
AcDbLine
 10
315
 20
985
 11
435
 21
985
  0
LINE
  5
17B
100
AcDbEntity
  8
boxes
  6
ByLayer
 62
  256
370
   -1
100
AcDbLine
 10
15
 20
135
 11
135
 21
135
  0
MTEXT
  5
17C
100
AcDbEntity
  8
boxes
  6
ByLayer
 62
  256
370
   -1
100
AcDbMText
 10
320
 20
1000
 30
0
 40
8
 41
85.78082966827264
 71
    1
 72
    1
  1
spline fp closed
  7
textstyle17
210
0
220
0
230
1
 50
0
 73
    1
 44
1
  0
MTEXT
  5
17D
100
AcDbEntity
  8
boxes
  6
ByLayer
 62
  256
370
   -1
100
AcDbMText
 10
20
 20
150
 30
0
 40
8
 41
14.22222222222259
 71
    1
 72
    1
  1
arc
  7
textstyle18
210
0
220
0
230
1
 50
0
 73
    1
 44
1
  0
INSERT
  5
17E
100
AcDbEntity
  8
entities
  6
ByLayer
 62
  256
370
   -1
100
AcDbBlockReference
  2
spline_fp_closed
 10
326.4677119246101
 20
874.6542781144676
 30
0
 41
1
 42
1
 43
0
 50
0
 70
    1
 71
    1
 44
0
 45
0
  0
INSERT
  5
17F
100
AcDbEntity
  8
entities
  6
ByLayer
 62
  256
370
   -1
100
AcDbBlockReference
  2
arc
 10
25
 20
24.99999999999999
 30
0
 41
1
 42
1
 43
0
 50
0
 70
    1
 71
    1
 44
0
 45
0
  0
LWPOLYLINE
  5
180
100
AcDbEntity
  8
boxes
  6
ByLayer
 62
  256
370
   -1
100
AcDbPolyline
 90
    4
 70
    1
 43
0
 10
465
 20
865
 10
585
 20
865
 10
585
 20
1005
 10
465
 20
1005
  0
LWPOLYLINE
  5
181
100
AcDbEntity
  8
boxes
  6
ByLayer
 62
  256
370
   -1
100
AcDbPolyline
 90
    4
 70
    1
 43
0
 10
165
 20
15
 10
285
 20
15
 10
285
 20
155
 10
165
 20
155
  0
LINE
  5
182
100
AcDbEntity
  8
boxes
  6
ByLayer
 62
  256
370
   -1
100
AcDbLine
 10
465
 20
985
 11
585
 21
985
  0
LINE
  5
183
100
AcDbEntity
  8
boxes
  6
ByLayer
 62
  256
370
   -1
100
AcDbLine
 10
165
 20
135
 11
285
 21
135
  0
MTEXT
  5
184
100
AcDbEntity
  8
boxes
  6
ByLayer
 62
  256
370
   -1
100
AcDbMText
 10
470
 20
1000
 30
0
 40
8
 41
20.44444444444445
 71
    1
 72
    1
  1
text
  7
textstyle19
210
0
220
0
230
1
 50
0
 73
    1
 44
1
  0
MTEXT
  5
185
100
AcDbEntity
  8
boxes
  6
ByLayer
 62
  256
370
   -1
100
AcDbMText
 10
170
 20
150
 30
0
 40
8
 41
62.88889300318722
 71
    1
 72
    1
  1
block insert
  7
textstyle20
210
0
220
0
230
1
 50
0
 73
    1
 44
1
  0
INSERT
  5
186
100
AcDbEntity
  8
entities
  6
ByLayer
 62
  256
370
   -1
100
AcDbBlockReference
  2
text
 10
472.7373979410721
 20
868.7710774560904
 30
0
 41
1
 42
1
 43
0
 50
0
 70
    1
 71
    1
 44
0
 45
0
  0
INSERT
  5
187
100
AcDbEntity
  8
entities
  6
ByLayer
 62
  256
370
   -1
100
AcDbBlockReference
  2
block_insert
 10
175
 20
25
 30
0
 41
1
 42
1
 43
0
 50
0
 70
    1
 71
    1
 44
0
 45
0
  0
LWPOLYLINE
  5
188
100
AcDbEntity
  8
boxes
  6
ByLayer
 62
  256
370
   -1
100
AcDbPolyline
 90
    4
 70
    1
 43
0
 10
315
 20
15
 10
435
 20
15
 10
435
 20
155
 10
315
 20
155
  0
LINE
  5
189
100
AcDbEntity
  8
boxes
  6
ByLayer
 62
  256
370
   -1
100
AcDbLine
 10
315
 20
135
 11
435
 21
135
  0
MTEXT
  5
18A
100
AcDbEntity
  8
boxes
  6
ByLayer
 62
  256
370
   -1
100
AcDbMText
 10
320
 20
150
 30
0
 40
8
 41
25.77777777777815
 71
    1
 72
    1
  1
circle
  7
textstyle21
210
0
220
0
230
1
 50
0
 73
    1
 44
1
  0
INSERT
  5
18B
100
AcDbEntity
  8
entities
  6
ByLayer
 62
  256
370
   -1
100
AcDbBlockReference
  2
circle
 10
325
 20
25
 30
0
 41
1
 42
1
 43
0
 50
0
 70
    1
 71
    1
 44
0
 45
0
  0
LWPOLYLINE
  5
18C
100
AcDbEntity
  8
boxes
  6
ByLayer
 62
  256
370
   -1
100
AcDbPolyline
 90
    4
 70
    1
 43
0
 10
465
 20
15
 10
585
 20
15
 10
585
 20
155
 10
465
 20
155
  0
LINE
  5
18D
100
AcDbEntity
  8
boxes
  6
ByLayer
 62
  256
370
   -1
100
AcDbLine
 10
465
 20
135
 11
585
 21
135
  0
MTEXT
  5
18E
100
AcDbEntity
  8
boxes
  6
ByLayer
 62
  256
370
   -1
100
AcDbMText
 10
470
 20
150
 30
0
 40
8
 41
57.5555555555574
 71
    1
 72
    1
  1
dim aligned
  7
textstyle22
210
0
220
0
230
1
 50
0
 73
    1
 44
1
  0
INSERT
  5
18F
100
AcDbEntity
  8
entities
  6
ByLayer
 62
  256
370
   -1
100
AcDbBlockReference
  2
dim_aligned
 10
474.5604814127632
 20
24.23358921991339
 30
0
 41
1
 42
1
 43
0
 50
0
 70
    1
 71
    1
 44
0
 45
0
  0
LWPOLYLINE
  5
190
100
AcDbEntity
  8
boxes
  6
ByLayer
 62
  256
370
   -1
100
AcDbPolyline
 90
    4
 70
    1
 43
0
 10
615
 20
15
 10
735
 20
15
 10
735
 20
155
 10
615
 20
155
  0
LINE
  5
191
100
AcDbEntity
  8
boxes
  6
ByLayer
 62
  256
370
   -1
100
AcDbLine
 10
615
 20
135
 11
735
 21
135
  0
MTEXT
  5
192
100
AcDbEntity
  8
boxes
  6
ByLayer
 62
  256
370
   -1
100
AcDbMText
 10
620
 20
150
 30
0
 40
8
 41
83.1111111111137
 71
    1
 72
    1
  1
dim angular arc
  7
textstyle23
210
0
220
0
230
1
 50
0
 73
    1
 44
1
  0
INSERT
  5
193
100
AcDbEntity
  8
entities
  6
ByLayer
 62
  256
370
   -1
100
AcDbBlockReference
  2
dim_angular_arc
 10
625.3125
 20
24.68749999999999
 30
0
 41
1
 42
1
 43
0
 50
0
 70
    1
 71
    1
 44
0
 45
0
  0
LWPOLYLINE
  5
194
100
AcDbEntity
  8
boxes
  6
ByLayer
 62
  256
370
   -1
100
AcDbPolyline
 90
    4
 70
    1
 43
0
 10
15
 20
185
 10
135
 20
185
 10
135
 20
325
 10
15
 20
325
  0
LINE
  5
195
100
AcDbEntity
  8
boxes
  6
ByLayer
 62
  256
370
   -1
100
AcDbLine
 10
15
 20
305
 11
135
 21
305
  0
MTEXT
  5
196
100
AcDbEntity
  8
boxes
  6
ByLayer
 62
  256
370
   -1
100
AcDbMText
 10
20
 20
320
 30
0
 40
8
 41
84.88888888889147
 71
    1
 72
    1
  1
dim angular line
  7
textstyle24
210
0
220
0
230
1
 50
0
 73
    1
 44
1
  0
INSERT
  5
197
100
AcDbEntity
  8
entities
  6
ByLayer
 62
  256
370
   -1
100
AcDbBlockReference
  2
dim_angular_line
 10
24.73410733735114
 20
195.27059836221
 30
0
 41
1
 42
1
 43
0
 50
0
 70
    1
 71
    1
 44
0
 45
0
  0
LWPOLYLINE
  5
198
100
AcDbEntity
  8
boxes
  6
ByLayer
 62
  256
370
   -1
100
AcDbPolyline
 90
    4
 70
    1
 43
0
 10
165
 20
185
 10
285
 20
185
 10
285
 20
325
 10
165
 20
325
  0
LINE
  5
199
100
AcDbEntity
  8
boxes
  6
ByLayer
 62
  256
370
   -1
100
AcDbLine
 10
165
 20
305
 11
285
 21
305
  0
MTEXT
  5
19A
100
AcDbEntity
  8
boxes
  6
ByLayer
 62
  256
370
   -1
100
AcDbMText
 10
170
 20
320
 30
0
 40
8
 41
91.11111111111298
 71
    1
 72
    1
  1
dim diametric arc
  7
textstyle25
210
0
220
0
230
1
 50
0
 73
    1
 44
1
  0
INSERT
  5
19B
100
AcDbEntity
  8
entities
  6
ByLayer
 62
  256
370
   -1
100
AcDbBlockReference
  2
dim_diametric_arc
 10
175
 20
195
 30
0
 41
1
 42
1
 43
0
 50
0
 70
    1
 71
    1
 44
0
 45
0
  0
LWPOLYLINE
  5
19C
100
AcDbEntity
  8
boxes
  6
ByLayer
 62
  256
370
   -1
100
AcDbPolyline
 90
    4
 70
    1
 43
0
 10
315
 20
185
 10
435
 20
185
 10
435
 20
325
 10
315
 20
325
  0
LINE
  5
19D
100
AcDbEntity
  8
boxes
  6
ByLayer
 62
  256
370
   -1
100
AcDbLine
 10
315
 20
305
 11
435
 21
305
  0
MTEXT
  5
19E
100
AcDbEntity
  8
boxes
  6
ByLayer
 62
  256
370
   -1
100
AcDbMText
 10
320
 20
320
 30
0
 40
8
 41
102.6666666666681
 71
    1
 72
    1
  1
dim diametric circle
  7
textstyle26
210
0
220
0
230
1
 50
0
 73
    1
 44
1
  0
INSERT
  5
19F
100
AcDbEntity
  8
entities
  6
ByLayer
 62
  256
370
   -1
100
AcDbBlockReference
  2
dim_diametric_circle
 10
325
 20
195
 30
0
 41
1
 42
1
 43
0
 50
0
 70
    1
 71
    1
 44
0
 45
0
  0
LWPOLYLINE
  5
1A0
100
AcDbEntity
  8
boxes
  6
ByLayer
 62
  256
370
   -1
100
AcDbPolyline
 90
    4
 70
    1
 43
0
 10
465
 20
185
 10
585
 20
185
 10
585
 20
325
 10
465
 20
325
  0
LINE
  5
1A1
100
AcDbEntity
  8
boxes
  6
ByLayer
 62
  256
370
   -1
100
AcDbLine
 10
465
 20
305
 11
585
 21
305
  0
MTEXT
  5
1A2
100
AcDbEntity
  8
boxes
  6
ByLayer
 62
  256
370
   -1
100
AcDbMText
 10
470
 20
320
 30
0
 40
8
 41
74.44444444444632
 71
    1
 72
    1
  1
dim horizontal
  7
textstyle27
210
0
220
0
230
1
 50
0
 73
    1
 44
1
  0
INSERT
  5
1A3
100
AcDbEntity
  8
entities
  6
ByLayer
 62
  256
370
   -1
100
AcDbBlockReference
  2
dim_horizontal
 10
475
 20
188.125
 30
0
 41
1
 42
1
 43
0
 50
0
 70
    1
 71
    1
 44
0
 45
0
  0
LWPOLYLINE
  5
1A4
100
AcDbEntity
  8
boxes
  6
ByLayer
 62
  256
370
   -1
100
AcDbPolyline
 90
    4
 70
    1
 43
0
 10
615
 20
185
 10
735
 20
185
 10
735
 20
325
 10
615
 20
325
  0
LINE
  5
1A5
100
AcDbEntity
  8
boxes
  6
ByLayer
 62
  256
370
   -1
100
AcDbLine
 10
615
 20
305
 11
735
 21
305
  0
MTEXT
  5
1A6
100
AcDbEntity
  8
boxes
  6
ByLayer
 62
  256
370
   -1
100
AcDbMText
 10
620
 20
320
 30
0
 40
8
 41
54.00000000000111
 71
    1
 72
    1
  1
dim leader
  7
textstyle28
210
0
220
0
230
1
 50
0
 73
    1
 44
1
  0
INSERT
  5
1A7
100
AcDbEntity
  8
entities
  6
ByLayer
 62
  256
370
   -1
100
AcDbBlockReference
  2
dim_leader
 10
625
 20
195
 30
0
 41
1
 42
1
 43
0
 50
0
 70
    1
 71
    1
 44
0
 45
0
  0
LWPOLYLINE
  5
1A8
100
AcDbEntity
  8
boxes
  6
ByLayer
 62
  256
370
   -1
100
AcDbPolyline
 90
    4
 70
    1
 43
0
 10
15
 20
355
 10
135
 20
355
 10
135
 20
495
 10
15
 20
495
  0
LINE
  5
1A9
100
AcDbEntity
  8
boxes
  6
ByLayer
 62
  256
370
   -1
100
AcDbLine
 10
15
 20
475
 11
135
 21
475
  0
MTEXT
  5
1AA
100
AcDbEntity
  8
boxes
  6
ByLayer
 62
  256
370
   -1
100
AcDbMText
 10
20
 20
490
 30
0
 40
8
 41
64.66666666666815
 71
    1
 72
    1
  1
dim ordinate
  7
textstyle29
210
0
220
0
230
1
 50
0
 73
    1
 44
1
  0
INSERT
  5
1AB
100
AcDbEntity
  8
entities
  6
ByLayer
 62
  256
370
   -1
100
AcDbBlockReference
  2
dim_ordinate
 10
26.26388888888889
 20
369.375
 30
0
 41
1
 42
1
 43
0
 50
0
 70
    1
 71
    1
 44
0
 45
0
  0
LWPOLYLINE
  5
1AC
100
AcDbEntity
  8
boxes
  6
ByLayer
 62
  256
370
   -1
100
AcDbPolyline
 90
    4
 70
    1
 43
0
 10
165
 20
355
 10
285
 20
355
 10
285
 20
495
 10
165
 20
495
  0
LINE
  5
1AD
100
AcDbEntity
  8
boxes
  6
ByLayer
 62
  256
370
   -1
100
AcDbLine
 10
165
 20
475
 11
285
 21
475
  0
MTEXT
  5
1AE
100
AcDbEntity
  8
boxes
  6
ByLayer
 62
  256
370
   -1
100
AcDbMText
 10
170
 20
490
 30
0
 40
8
 41
73.33333333333519
 71
    1
 72
    1
  1
dim radial arc
  7
textstyle30
210
0
220
0
230
1
 50
0
 73
    1
 44
1
  0
INSERT
  5
1AF
100
AcDbEntity
  8
entities
  6
ByLayer
 62
  256
370
   -1
100
AcDbBlockReference
  2
dim_radial_arc
 10
175
 20
365
 30
0
 41
1
 42
1
 43
0
 50
0
 70
    1
 71
    1
 44
0
 45
0
  0
LWPOLYLINE
  5
1B0
100
AcDbEntity
  8
boxes
  6
ByLayer
 62
  256
370
   -1
100
AcDbPolyline
 90
    4
 70
    1
 43
0
 10
315
 20
355
 10
435
 20
355
 10
435
 20
495
 10
315
 20
495
  0
LINE
  5
1B1
100
AcDbEntity
  8
boxes
  6
ByLayer
 62
  256
370
   -1
100
AcDbLine
 10
315
 20
475
 11
435
 21
475
  0
MTEXT
  5
1B2
100
AcDbEntity
  8
boxes
  6
ByLayer
 62
  256
370
   -1
100
AcDbMText
 10
320
 20
490
 30
0
 40
8
 41
84.88888888889036
 71
    1
 72
    1
  1
dim radial circle
  7
textstyle31
210
0
220
0
230
1
 50
0
 73
    1
 44
1
  0
INSERT
  5
1B3
100
AcDbEntity
  8
entities
  6
ByLayer
 62
  256
370
   -1
100
AcDbBlockReference
  2
dim_radial_circle
 10
325
 20
365
 30
0
 41
1
 42
1
 43
0
 50
0
 70
    1
 71
    1
 44
0
 45
0
  0
LWPOLYLINE
  5
1B4
100
AcDbEntity
  8
boxes
  6
ByLayer
 62
  256
370
   -1
100
AcDbPolyline
 90
    4
 70
    1
 43
0
 10
465
 20
355
 10
585
 20
355
 10
585
 20
495
 10
465
 20
495
  0
ENDSEC
  0
SECTION
  2
OBJECTS
  0
DICTIONARY
  5
C
330
0
100
AcDbDictionary
281
    1
  3
ACAD_GROUP
350
D
  0
DICTIONARY
  5
D
330
C
100
AcDbDictionary
281
    1
  0
ENDSEC
  0
EOF
