  0
SECTION
  2
HEADER
  9
$ACADVER
  1
AC1009
  9
$INSBASE
 10
0.0
 20
0.0
 30
0.0
  9
$EXTMIN
 10
-178.854201739627598
 20
-211.908561682600407
 30
0.0
  9
$EXTMAX
 10
105.1457982603727999
 20
-3.9085616826001428
 30
0.0000000000000004
  9
$LIMMIN
 10
0.0
 20
0.0
  9
$LIMMAX
 10
12.0
 20
9.0
  9
$ORTHOMODE
 70
     0
  9
$REGENMODE
 70
     1
  9
$FILLMODE
 70
     1
  9
$QTEXTMODE
 70
     0
  9
$MIRRTEXT
 70
     0
  9
$DRAGMODE
 70
     2
  9
$LTSCALE
 40
1.0
  9
$OSMODE
 70
    37
  9
$ATTMODE
 70
     1
  9
$TEXTSIZE
 40
0.2
  9
$TRACEWID
 40
0.05
  9
$TEXTSTYLE
  7
STANDARD
  9
$CLAYER
  8
0
  9
$CELTYPE
  6
BYLAYER
  9
$CECOLOR
 62
   256
  9
$DIMSCALE
 40
1.0
  9
$DIMASZ
 40
0.18
  9
$DIMEXO
 40
0.0625
  9
$DIMDLI
 40
0.38
  9
$DIMRND
 40
0.0
  9
$DIMDLE
 40
0.0
  9
$DIMEXE
 40
0.18
  9
$DIMTP
 40
0.0
  9
$DIMTM
 40
0.0
  9
$DIMTXT
 40
0.18
  9
$DIMCEN
 40
0.09
  9
$DIMTSZ
 40
0.0
  9
$DIMTOL
 70
     0
  9
$DIMLIM
 70
     0
  9
$DIMTIH
 70
     1
  9
$DIMTOH
 70
     1
  9
$DIMSE1
 70
     0
  9
$DIMSE2
 70
     0
  9
$DIMTAD
 70
     0
  9
$DIMZIN
 70
     0
  9
$DIMBLK
  1

  9
$DIMASO
 70
     1
  9
$DIMSHO
 70
     1
  9
$DIMPOST
  1

  9
$DIMAPOST
  1

  9
$DIMALT
 70
     0
  9
$DIMALTD
 70
     2
  9
$DIMALTF
 40
25.3999999999999986
  9
$DIMLFAC
 40
1.0
  9
$DIMTOFL
 70
     0
  9
$DIMTVP
 40
0.0
  9
$DIMTIX
 70
     0
  9
$DIMSOXD
 70
     0
  9
$DIMSAH
 70
     0
  9
$DIMBLK1
  1

  9
$DIMBLK2
  1

  9
$DIMSTYLE
  2
STANDARD
  9
$DIMCLRD
 70
     0
  9
$DIMCLRE
 70
     0
  9
$DIMCLRT
 70
     0
  9
$DIMTFAC
 40
1.0
  9
$DIMGAP
 40
0.09
  9
$LUNITS
 70
     2
  9
$LUPREC
 70
     4
  9
$SKETCHINC
 40
0.1
  9
$FILLETRAD
 40
0.0
  9
$AUNITS
 70
     0
  9
$AUPREC
 70
     0
  9
$MENU
  1
.
  9
$ELEVATION
 40
0.0
  9
$PELEVATION
 40
0.0
  9
$THICKNESS
 40
0.0
  9
$LIMCHECK
 70
     0
  9
$BLIPMODE
 70
     0
  9
$CHAMFERA
 40
0.0
  9
$CHAMFERB
 40
0.0
  9
$SKPOLY
 70
     0
  9
$TDCREATE
 40
2458653.4764699069783092
  9
$TDUPDATE
 40
2458658.9204513891600072
  9
$TDINDWG
 40
0.2305787037
  9
$TDUSRTIMER
 40
0.2305787037
  9
$USRTIMER
 70
     1
  9
$ANGBASE
 50
0.0
  9
$ANGDIR
 70
     0
  9
$PDMODE
 70
     0
  9
$PDSIZE
 40
0.0
  9
$PLINEWID
 40
0.0
  9
$COORDS
 70
     1
  9
$SPLFRAME
 70
     0
  9
$SPLINETYPE
 70
     6
  9
$SPLINESEGS
 70
     8
  9
$ATTDIA
 70
     1
  9
$ATTREQ
 70
     1
  9
$HANDLING
 70
     1
  9
$HANDSEED
  5
459
  9
$SURFTAB1
 70
     6
  9
$SURFTAB2
 70
     6
  9
$SURFTYPE
 70
     6
  9
$SURFU
 70
     6
  9
$SURFV
 70
     6
  9
$UCSNAME
  2

  9
$UCSORG
 10
0.0
 20
0.0
 30
0.0
  9
$UCSXDIR
 10
1.0
 20
0.0
 30
0.0
  9
$UCSYDIR
 10
0.0
 20
1.0
 30
0.0
  9
$PUCSNAME
  2

  9
$PUCSORG
 10
0.0
 20
0.0
 30
0.0
  9
$PUCSXDIR
 10
1.0
 20
0.0
 30
0.0
  9
$PUCSYDIR
 10
0.0
 20
1.0
 30
0.0
  9
$USERI1
 70
     0
  9
$USERI2
 70
     0
  9
$USERI3
 70
     0
  9
$USERI4
 70
     0
  9
$USERI5
 70
     0
  9
$USERR1
 40
0.0
  9
$USERR2
 40
0.0
  9
$USERR3
 40
0.0
  9
$USERR4
 40
0.0
  9
$USERR5
 40
0.0
  9
$WORLDVIEW
 70
     1
  9
$SHADEDGE
 70
     3
  9
$SHADEDIF
 70
    70
  9
$TILEMODE
 70
     1
  9
$MAXACTVP
 70
    64
  9
$PLIMCHECK
 70
     0
  9
$PEXTMIN
 10
1.0000000000000000E+20
 20
1.0000000000000000E+20
 30
1.0000000000000000E+20
  9
$PEXTMAX
 10
-1.0000000000000000E+20
 20
-1.0000000000000000E+20
 30
-1.0000000000000000E+20
  9
$PLIMMIN
 10
0.0
 20
0.0
  9
$PLIMMAX
 10
12.0
 20
9.0
  9
$UNITMODE
 70
     0
  9
$VISRETAIN
 70
     1
  9
$PLINEGEN
 70
     0
  9
$PSLTSCALE
 70
     1
  0
ENDSEC
  0
SECTION
  2
TABLES
  0
TABLE
  2
VPORT
 70
     1
  0
VPORT
  2
*ACTIVE
 70
     0
 10
0.0
 20
0.0
 11
1.0
 21
1.0
 12
67.6618254120400593
 22
3.5361863823524402
 13
0.0
 23
0.0
 14
1.0
 24
1.0
 15
0.0
 25
0.0
 16
-0.0000000000002345
 26
0.0
 36
1061.1596085464750558
 17
-36.8542022705078125
 27
-107.9085578918457031
 37
0.0000000000000002
 40
338.434824947454274
 41
2.0794451450189149
 42
50.0
 43
0.0
 44
0.0
 50
0.0
 51
0.0
 71
     0
 72
   100
 73
     1
 74
     1
 75
     0
 76
     0
 77
     0
 78
     0
  0
ENDTAB
  0
TABLE
  2
LTYPE
 70
    46
  0
LTYPE
  2
CONTINUOUS
 70
     0
  3
Solid line
 72
    65
 73
     0
 40
0.0
  0
LTYPE
  2
BORDER
 70
     0
  3
Border __ __ . __ __ . __ __ . __ __ . __ __ .
 72
    65
 73
     6
 40
1.75
 49
0.5
 49
-0.25
 49
0.5
 49
-0.25
 49
0.0
 49
-0.25
  0
LTYPE
  2
BORDER2
 70
     0
  3
Border (.5x) __.__.__.__.__.__.__.__.__.__.__.
 72
    65
 73
     6
 40
0.875
 49
0.25
 49
-0.125
 49
0.25
 49
-0.125
 49
0.0
 49
-0.125
  0
LTYPE
  2
BORDERX2
 70
     0
  3
Border (2x) ____  ____  .  ____  ____  .  ___
 72
    65
 73
     6
 40
3.5
 49
1.0
 49
-0.5
 49
1.0
 49
-0.5
 49
0.0
 49
-0.5
  0
LTYPE
  2
CENTER
 70
     0
  3
Center ____ _ ____ _ ____ _ ____ _ ____ _ ____
 72
    65
 73
     4
 40
2.0
 49
1.25
 49
-0.25
 49
0.25
 49
-0.25
  0
LTYPE
  2
CENTER2
 70
     0
  3
Center (.5x) ___ _ ___ _ ___ _ ___ _ ___ _ ___
 72
    65
 73
     4
 40
1.125
 49
0.75
 49
-0.125
 49
0.125
 49
-0.125
  0
LTYPE
  2
CENTERX2
 70
     0
  3
Center (2x) ________  __  ________  __  _____
 72
    65
 73
     4
 40
4.0
 49
2.5
 49
-0.5
 49
0.5
 49
-0.5
  0
LTYPE
  2
DASHDOT
 70
     0
  3
Dash dot __ . __ . __ . __ . __ . __ . __ . __
 72
    65
 73
     4
 40
1.0
 49
0.5
 49
-0.25
 49
0.0
 49
-0.25
  0
LTYPE
  2
DASHDOT2
 70
     0
  3
Dash dot (.5x) _._._._._._._._._._._._._._._.
 72
    65
 73
     4
 40
0.5
 49
0.25
 49
-0.125
 49
0.0
 49
-0.125
  0
LTYPE
  2
DASHDOTX2
 70
     0
  3
Dash dot (2x) ____  .  ____  .  ____  .  ___
 72
    65
 73
     4
 40
2.0
 49
1.0
 49
-0.5
 49
0.0
 49
-0.5
  0
LTYPE
  2
DASHED
 70
     0
  3
Dashed __ __ __ __ __ __ __ __ __ __ __ __ __ _
 72
    65
 73
     2
 40
0.75
 49
0.5
 49
-0.25
  0
LTYPE
  2
DASHED2
 70
     0
  3
Dashed (.5x) _ _ _ _ _ _ _ _ _ _ _ _ _ _ _ _ _
 72
    65
 73
     2
 40
0.375
 49
0.25
 49
-0.125
  0
LTYPE
  2
DASHEDX2
 70
     0
  3
Dashed (2x) ____  ____  ____  ____  ____  ___
 72
    65
 73
     2
 40
1.5
 49
1.0
 49
-0.5
  0
LTYPE
  2
DIVIDE
 70
     0
  3
Divide ____ . . ____ . . ____ . . ____ . . ____
 72
    65
 73
     6
 40
1.25
 49
0.5
 49
-0.25
 49
0.0
 49
-0.25
 49
0.0
 49
-0.25
  0
LTYPE
  2
DIVIDE2
 70
     0
  3
Divide (.5x) __..__..__..__..__..__..__..__.._
 72
    65
 73
     6
 40
0.625
 49
0.25
 49
-0.125
 49
0.0
 49
-0.125
 49
0.0
 49
-0.125
  0
LTYPE
  2
DIVIDEX2
 70
     0
  3
Divide (2x) ________  .  .  ________  .  .  _
 72
    65
 73
     6
 40
2.5
 49
1.0
 49
-0.5
 49
0.0
 49
-0.5
 49
0.0
 49
-0.5
  0
LTYPE
  2
DOT
 70
     0
  3
Dot . . . . . . . . . . . . . . . . . . . . . .
 72
    65
 73
     2
 40
0.25
 49
0.0
 49
-0.25
  0
LTYPE
  2
DOT2
 70
     0
  3
Dot (.5x) .....................................
 72
    65
 73
     2
 40
0.125
 49
0.0
 49
-0.125
  0
LTYPE
  2
DOTX2
 70
     0
  3
Dot (2x) .  .  .  .  .  .  .  .  .  .  .  .  . 
 72
    65
 73
     2
 40
0.5
 49
0.0
 49
-0.5
  0
LTYPE
  2
HIDDEN
 70
     0
  3
Hidden __ __ __ __ __ __ __ __ __ __ __ __ __ _
 72
    65
 73
     2
 40
0.375
 49
0.25
 49
-0.125
  0
LTYPE
  2
HIDDEN2
 70
     0
  3
Hidden (.5x) _ _ _ _ _ _ _ _ _ _ _ _ _ _ _ _ _
 72
    65
 73
     2
 40
0.1875
 49
0.125
 49
-0.0625
  0
LTYPE
  2
HIDDENX2
 70
     0
  3
Hidden (2x) ____ ____ ____ ____ ____ ____ ____
 72
    65
 73
     2
 40
0.75
 49
0.5
 49
-0.25
  0
LTYPE
  2
PHANTOM
 70
     0
  3
Phantom ______  __  __  ______  __  __  ______
 72
    65
 73
     6
 40
2.5
 49
1.25
 49
-0.25
 49
0.25
 49
-0.25
 49
0.25
 49
-0.25
  0
LTYPE
  2
PHANTOM2
 70
     0
  3
Phantom (.5x) ___ _ _ ___ _ _ ___ _ _ ___ _ _
 72
    65
 73
     6
 40
1.25
 49
0.625
 49
-0.125
 49
0.125
 49
-0.125
 49
0.125
 49
-0.125
  0
LTYPE
  2
PHANTOMX2
 70
     0
  3
Phantom (2x) ____________    ____    ____   _
 72
    65
 73
     6
 40
5.0
 49
2.5
 49
-0.5
 49
0.5
 49
-0.5
 49
0.5
 49
-0.5
  0
LTYPE
  2
ACAD_ISO02W100
 70
     0
  3
ISO dash __ __ __ __ __ __ __ __ __ __ __ __ __
 72
    65
 73
     2
 40
15.0
 49
12.0
 49
-3.0
  0
LTYPE
  2
ACAD_ISO03W100
 70
     0
  3
ISO dash space __    __    __    __    __    __
 72
    65
 73
     2
 40
30.0
 49
12.0
 49
-18.0
  0
LTYPE
  2
ACAD_ISO04W100
 70
     0
  3
ISO long-dash dot ____ . ____ . ____ . ____ . _
 72
    65
 73
     4
 40
30.0
 49
24.0
 49
-3.0
 49
0.0
 49
-3.0
  0
LTYPE
  2
ACAD_ISO05W100
 70
     0
  3
ISO long-dash double-dot ____ .. ____ .. ____ .
 72
    65
 73
     6
 40
33.0
 49
24.0
 49
-3.0
 49
0.0
 49
-3.0
 49
0.0
 49
-3.0
  0
LTYPE
  2
ACAD_ISO06W100
 70
     0
  3
ISO long-dash triple-dot ____ ... ____ ... ____
 72
    65
 73
     8
 40
36.0
 49
24.0
 49
-3.0
 49
0.0
 49
-3.0
 49
0.0
 49
-3.0
 49
0.0
 49
-3.0
  0
LTYPE
  2
ACAD_ISO07W100
 70
     0
  3
ISO dot . . . . . . . . . . . . . . . . . . . .
 72
    65
 73
     2
 40
3.0
 49
0.0
 49
-3.0
  0
LTYPE
  2
ACAD_ISO08W100
 70
     0
  3
ISO long-dash short-dash ____ __ ____ __ ____ _
 72
    65
 73
     4
 40
36.0
 49
24.0
 49
-3.0
 49
6.0
 49
-3.0
  0
LTYPE
  2
ACAD_ISO09W100
 70
     0
  3
ISO long-dash double-short-dash ____ __ __ ____
 72
    65
 73
     6
 40
45.0
 49
24.0
 49
-3.0
 49
6.0
 49
-3.0
 49
6.0
 49
-3.0
  0
LTYPE
  2
ACAD_ISO10W100
 70
     0
  3
ISO dash dot __ . __ . __ . __ . __ . __ . __ .
 72
    65
 73
     4
 40
18.0
 49
12.0
 49
-3.0
 49
0.0
 49
-3.0
  0
LTYPE
  2
ACAD_ISO11W100
 70
     0
  3
ISO double-dash dot __ __ . __ __ . __ __ . __ 
 72
    65
 73
     6
 40
33.0
 49
12.0
 49
-3.0
 49
12.0
 49
-3.0
 49
0.0
 49
-3.0
  0
LTYPE
  2
ACAD_ISO12W100
 70
     0
  3
ISO dash double-dot __ . . __ . . __ . . __ . .
 72
    65
 73
     6
 40
21.0
 49
12.0
 49
-3.0
 49
0.0
 49
-3.0
 49
0.0
 49
-3.0
  0
LTYPE
  2
ACAD_ISO13W100
 70
     0
  3
ISO double-dash double-dot __ __ . . __ __ . . 
 72
    65
 73
     8
 40
36.0
 49
12.0
 49
-3.0
 49
12.0
 49
-3.0
 49
0.0
 49
-3.0
 49
0.0
 49
-3.0
  0
LTYPE
  2
ACAD_ISO14W100
 70
     0
  3
ISO dash triple-dot __ . . . __ . . . __ . . . 
 72
    65
 73
     8
 40
24.0
 49
12.0
 49
-3.0
 49
0.0
 49
-3.0
 49
0.0
 49
-3.0
 49
0.0
 49
-3.0
  0
LTYPE
  2
ACAD_ISO15W100
 70
     0
  3
ISO double-dash triple-dot __ __ . . . __ __ . 
 72
    65
 73
    10
 40
39.0
 49
12.0
 49
-3.0
 49
12.0
 49
-3.0
 49
0.0
 49
-3.0
 49
0.0
 49
-3.0
 49
0.0
 49
-3.0
  0
LTYPE
  2
FENCELINE1
 70
     0
  3
Fenceline circle ----0-----0----0-----0----0---
 72
    65
 73
     4
 40
1.45
 49
0.25
 49
-0.1
 49
-0.1
 49
1.0
  0
LTYPE
  2
FENCELINE2
 70
     0
  3
Fenceline square ----[]-----[]----[]-----[]----
 72
    65
 73
     4
 40
1.45
 49
0.25
 49
-0.1
 49
-0.1
 49
1.0
  0
LTYPE
  2
TRACKS
 70
     0
  3
Tracks -|-|-|-|-|-|-|-|-|-|-|-|-|-|-|-|-|-|-|-|
 72
    65
 73
     2
 40
0.3
 49
0.15
 49
0.15
  0
LTYPE
  2
BATTING
 70
     0
  3
Batting SSSSSSSSSSSSSSSSSSSSSSSSSSSSSSSSSSSSSSS
 72
    65
 73
     4
 40
0.4001000000000001
 49
0.0001
 49
-0.1
 49
-0.2
 49
-0.1
  0
LTYPE
  2
HOT_WATER_SUPPLY
 70
     0
  3
Hot water supply ---- HW ---- HW ---- HW ----
 72
    65
 73
     3
 40
0.9
 49
0.5
 49
-0.2
 49
-0.2
  0
LTYPE
  2
GAS_LINE
 70
     0
  3
Gas line ----GAS----GAS----GAS----GAS----GAS---
 72
    65
 73
     3
 40
0.95
 49
0.5
 49
-0.2
 49
-0.25
  0
LTYPE
  2
ZIGZAG
 70
     0
  3
Zig zag /\/\/\/\/\/\/\/\/\/\/\/\/\/\/\/\/\/\/\/
 72
    65
 73
     4
 40
0.8001000000000001
 49
0.0001
 49
-0.2
 49
-0.4
 49
-0.2
  0
ENDTAB
  0
TABLE
  2
LAYER
 70
     2
  0
LAYER
  2
0
 70
     0
 62
     7
  6
CONTINUOUS
  0
LAYER
  2
ADSK_CONSTRAINTS
 70
     0
 62
     7
  6
CONTINUOUS
  0
ENDTAB
  0
TABLE
  2
STYLE
 70
     4
  0
STYLE
  2
STANDARD
 70
     0
 40
0.0
 41
1.0
 50
0.0
 71
     0
 42
0.2
  3
txt
  4

  0
STYLE
  2
ANNOTATIVE
 70
     0
 40
0.0
 41
1.0
 50
0.0
 71
     0
 42
0.2
  3
txt
  4

  0
STYLE
  2

 70
     1
 40
0.0
 41
1.0
 50
0.0
 71
     0
 42
0.2
  3
ltypeshp.shx
  4

  0
ENDTAB
  0
TABLE
  2
VIEW
 70
     0
  0
ENDTAB
  0
TABLE
  2
UCS
 70
     0
  0
ENDTAB
  0
TABLE
  2
APPID
 70
    12
  0
APPID
  2
ACAD
 70
     0
  0
APPID
  2
ACADANNOTATIVE
 70
     0
  0
APPID
  2
ACAD_MATERIAL_MAPPER
 70
     0
  0
APPID
  2
ACAD_MATERIAL_MAPPER_2
 70
     0
  0
APPID
  2
ACAD_NAV_VCDISPLAY
 70
     0
  0
APPID
  2
ACAD_EXEMPT_FROM_CAD_STANDARDS
 70
     0
  0
APPID
  2
ACAD_DSTYLE_DIMRADIAL_EXTENSION
 70
     0
  0
APPID
  2
ACAD_DSTYLE_DIMINSPECT
 70
     0
  0
APPID
  2
ACADANNOMONITORALERTICONDI
 70
     0
  0
APPID
  2
ACAD_STEPID
 70
     0
  0
APPID
  2
ACAD_DSTYLE_DIMJAG_POSITION
 70
     0
  0
APPID
  2
ACAD_MLEADERVER
 70
     0
  0
ENDTAB
  0
TABLE
  2
DIMSTYLE
 70
     3
  0
DIMSTYLE
  2
STANDARD
 70
     0
  3

  4

  5

  6

  7

 40
1.0
 41
0.18
 42
0.0625
 43
0.38
 44
0.18
 45
0.0
 46
0.0
 47
0.0
 48
0.0
140
0.18
141
0.09
142
0.0
143
25.3999999999999986
144
1.0
145
0.0
146
1.0
147
0.09
 71
     0
 72
     0
 73
     1
 74
     1
 75
     0
 76
     0
 77
     0
 78
     0
170
     0
171
     2
172
     0
173
     0
174
     0
175
     0
176
     0
177
     0
178
     0
  0
DIMSTYLE
  2
ANNOTATIVE
 70
     0
  3

  4

  5

  6

  7

 40
1.0
 41
0.18
 42
0.0625
 43
0.38
 44
0.18
 45
0.0
 46
0.0
 47
0.0
 48
0.0
140
0.18
141
0.09
142
0.0
143
25.3999999999999986
144
1.0
145
0.0
146
1.0
147
0.09
 71
     0
 72
     0
 73
     1
 74
     1
 75
     0
 76
     0
 77
     0
 78
     0
170
     0
171
     2
172
     0
173
     0
174
     0
175
     0
176
     0
177
     0
178
     0
  0
ENDTAB
  0
ENDSEC
  0
SECTION
  2
BLOCKS
  0
BLOCK
  8
0
  2
$MODEL_SPACE
 70
     0
 10
0.0
 20
0.0
 30
0.0
  3
$MODEL_SPACE
  1

  0
ENDBLK
  5
72
  8
0
  0
BLOCK
 67
     1
  8
0
  2
$PAPER_SPACE
 70
     0
 10
0.0
 20
0.0
 30
0.0
  3
$PAPER_SPACE
  1

  0
ENDBLK
  5
6E
 67
     1
  8
0
  0
BLOCK
  8
0
  2
_CLOSEDBLANK
 70
     0
 10
0.0
 20
0.0
 30
0.0
  3
_CLOSEDBLANK
  1

  0
LINE
  5
112
  8
0
  6
BYBLOCK
 62
     0
 10
-1.0
 20
0.1666666666666667
 30
0.0
 11
0.0
 21
0.0
 31
0.0
  0
LINE
  5
113
  8
0
  6
BYBLOCK
 62
     0
 10
0.0
 20
0.0
 30
0.0
 11
-1.0
 21
-0.1666666666666667
 31
0.0
  0
LINE
  5
114
  8
0
  6
BYBLOCK
 62
     0
 10
-1.0
 20
0.1666666666666667
 30
0.0
 11
-1.0
 21
-0.1666666666666667
 31
0.0
  0
ENDBLK
  5
116
  8
0
  0
BLOCK
  8
0
  2
*U2
 70
     1
 10
0.0
 20
0.0
 30
0.0
  3
*U2
  1

  0
CIRCLE
  5
1E3
  8
0
 10
0.0
 20
0.0
 30
0.0
 40
1.6000000000000001
  0
ENDBLK
  5
1DE
  8
0
  0
BLOCK
  8
0
  2
*U3
 70
     1
 10
0.0
 20
0.0
 30
0.0
  3
*U3
  1

  0
INSERT
  5
1FB
  8
0
  6
BYBLOCK
 62
     0
  2
*U2
 10
0.0
 20
0.0
 30
0.0
  0
INSERT
  5
1FC
  8
0
  6
BYBLOCK
 62
     0
  2
*U2
 10
-0.000000000000002
 20
-33.2999999999999972
 30
0.0
  0
INSERT
  5
1FD
  8
0
  6
BYBLOCK
 62
     0
  2
*U2
 10
33.2999999999999972
 20
0.0
 30
0.0
  0
INSERT
  5
1FE
  8
0
  6
BYBLOCK
 62
     0
  2
*U2
 10
33.2999999999999972
 20
-33.2999999999999972
 30
0.0
  0
ENDBLK
  5
1E1
  8
0
  0
BLOCK
  8
0
  2
*D4
 70
     1
 10
0.0
 20
0.0
 30
0.0
  3
*D4
  1

  0
ENDBLK
  5
41A
  8
0
  0
BLOCK
  8
0
  2
*D5
 70
     1
 10
0.0
 20
0.0
 30
0.0
  3
*D5
  1

  0
ENDBLK
  5
41F
  8
0
  0
BLOCK
  8
0
  2
*D6
 70
     1
 10
0.0
 20
0.0
 30
0.0
  3
*D6
  1

  0
ENDBLK
  5
424
  8
0
  0
BLOCK
  8
0
  2
*D7
 70
     1
 10
0.0
 20
0.0
 30
0.0
  3
*D7
  1

  0
ENDBLK
  5
429
  8
0
  0
BLOCK
  8
0
  2
*D8
 70
     1
 10
0.0
 20
0.0
 30
0.0
  3
*D8
  1

  0
ENDBLK
  5
42E
  8
0
  0
BLOCK
  8
0
  2
*D9
 70
     1
 10
0.0
 20
0.0
 30
0.0
  3
*D9
  1

  0
ENDBLK
  5
433
  8
0
  0
BLOCK
  8
0
  2
*D10
 70
     1
 10
0.0
 20
0.0
 30
0.0
  3
*D10
  1

  0
ENDBLK
  5
438
  8
0
  0
BLOCK
  8
0
  2
*D11
 70
     1
 10
0.0
 20
0.0
 30
0.0
  3
*D11
  1

  0
ENDBLK
  5
43D
  8
0
  0
BLOCK
  8
0
  2
*D12
 70
     1
 10
0.0
 20
0.0
 30
0.0
  3
*D12
  1

  0
ENDBLK
  5
442
  8
0
  0
BLOCK
  8
0
  2
*D13
 70
     1
 10
0.0
 20
0.0
 30
0.0
  3
*D13
  1

  0
ENDBLK
  5
447
  8
0
  0
BLOCK
  8
0
  2
*D14
 70
     1
 10
0.0
 20
0.0
 30
0.0
  3
*D14
  1

  0
ENDBLK
  5
44C
  8
0
  0
BLOCK
  8
0
  2
*D15
 70
     1
 10
0.0
 20
0.0
 30
0.0
  3
*D15
  1

  0
ENDBLK
  5
451
  8
0
  0
BLOCK
  8
0
  2
*D16
 70
     1
 10
0.0
 20
0.0
 30
0.0
  3
*D16
  1

  0
ENDBLK
  5
456
  8
0
  0
ENDSEC
  0
SECTION
  2
ENTITIES
  0
ARC
  5
C5
  8
0
 10
22.1457982603726791
 20
-141.9085616826002934
 30
0.0000000000000004
 40
11.1500000000000004
 50
98.2502973400612944
 51
441.7497026599385777
  0
LINE
  5
C7
  8
0
 10
23.7457982603726805
 20
-130.8739570227133129
 30
0.0000000000000004
 11
23.7457982603726805
 21
-128.958561682600191
 31
0.0000000000000004
  0
LINE
  5
C8
  8
0
 10
23.7457982603726805
 20
-128.958561682600191
 30
0.0000000000000004
 11
20.5457982603726812
 21
-128.958561682600191
 31
0.0000000000000004
  0
LINE
  5
C9
  8
0
 10
20.5457982603726812
 20
-128.958561682600191
 30
0.0000000000000004
 11
20.5457982603726812
 21
-130.8739570227133129
 31
0.0000000000000004
  0
ARC
  5
DE
  8
0
 10
22.1457982603726791
 20
-73.9085616826001512
 30
0.0000000000000004
 40
11.1500000000000004
 50
98.2502973400612944
 51
441.7497026599385777
  0
LINE
  5
DF
  8
0
 10
23.7457982603726805
 20
-62.8739570227131424
 30
0.0000000000000004
 11
23.7457982603726805
 21
-60.9585616826001271
 31
0.0000000000000004
  0
LINE
  5
E0
  8
0
 10
23.7457982603726805
 20
-60.9585616826001271
 30
0.0000000000000004
 11
20.5457982603726812
 21
-60.9585616826001271
 31
0.0000000000000004
  0
LINE
  5
E1
  8
0
 10
20.5457982603726812
 20
-60.9585616826001271
 30
0.0000000000000004
 11
20.5457982603726812
 21
-62.8739570227131424
 31
0.0000000000000004
  0
POLYLINE
  5
E2
  8
0
 66
     1
 10
0.0
 20
0.0
 30
0.0
 70
     1
  0
VERTEX
  5
413
  8
0
 10
-118.3542017396274986
 20
-86.4085616826001512
 30
0.0
  0
VERTEX
  5
414
  8
0
 10
-73.3542017396275412
 20
-86.4085616826001512
 30
0.0
  0
VERTEX
  5
415
  8
0
 10
-73.3542017396275412
 20
-41.4085616826001726
 30
0.0
  0
VERTEX
  5
416
  8
0
 10
-118.3542017396274986
 20
-41.4085616826001726
 30
0.0
  0
SEQEND
  5
417
  8
0
  0
CIRCLE
  5
F1
  8
0
 10
-95.8542017396275838
 20
-151.9085616826002934
 30
0.0
 40
19.25
  0
CIRCLE
  5
1B4
  8
0
 10
95.8542017396274986
 20
-201.9085616826002934
 30
0.0
 40
2.0
210
0.0
220
0.0
230
-1.0
1001
ACAD_STEPID
1071
        1
  0
CIRCLE
  5
1B5
  8
0
 10
168.8542017396275128
 20
-106.9085616826001939
 30
0.0
 40
2.0
210
0.0
220
0.0
230
-1.0
1001
ACAD_STEPID
1071
        1
  0
CIRCLE
  5
1B6
  8
0
 10
-95.1457982603727004
 20
-106.9085616826001939
 30
0.0
 40
2.0
210
0.0
220
0.0
230
-1.0
1001
ACAD_STEPID
1071
        1
  0
CIRCLE
  5
1B7
  8
0
 10
-22.1457982603724908
 20
-13.9085616826001903
 30
0.0
 40
2.0
210
0.0
220
0.0
230
-1.0
1001
ACAD_STEPID
1071
        1
  0
CIRCLE
  5
1B8
  8
0
 10
-22.1457982603724588
 20
-201.9085616826002934
 30
0.0
 40
2.0
210
0.0
220
0.0
230
-1.0
1001
ACAD_STEPID
1071
        1
  0
CIRCLE
  5
1B9
  8
0
 10
95.8542017396274986
 20
-13.9085616826001903
 30
0.0
 40
2.0
210
0.0
220
0.0
230
-1.0
1001
ACAD_STEPID
1071
        1
  0
LINE
  5
1BA
  8
0
 10
-178.8542017396275128
 20
-15.9085616826002507
 30
0.0
 11
-178.854201739627598
 21
-199.9085616826002934
 31
0.0
210
0.0
220
0.0
230
-1.0
1001
ACAD_STEPID
1071
        1
  0
ARC
  5
1BB
  8
0
 10
166.8542017396275128
 20
-15.9085616826002507
 30
0.0
 40
12.0
210
0.0
220
0.0
230
-1.0
 50
0.0
 51
90.0
1001
ACAD_STEPID
1071
        1
  0
LINE
  5
1BC
  8
0
 10
93.1457982603726435
 20
-3.9085616826001428
 30
0.0
 11
-166.8542017396275128
 21
-3.908561682600173
 31
0.0
210
0.0
220
0.0
230
-1.0
1001
ACAD_STEPID
1071
        1
  0
ARC
  5
1BD
  8
0
 10
-93.1457982603726435
 20
-15.9085616826002294
 30
0.0
 40
12.0
210
0.0
220
0.0
230
-1.0
 50
90.0
 51
180.0
1001
ACAD_STEPID
1071
        1
  0
LINE
  5
1BE
  8
0
 10
105.1457982603727999
 20
-199.9085616826002934
 30
0.0
 11
105.1457982603726009
 21
-15.9085616826002294
 31
0.0
210
0.0
220
0.0
230
-1.0
1001
ACAD_STEPID
1071
        1
  0
ARC
  5
1BF
  8
0
 10
-93.1457982603725441
 20
-199.9085616826002934
 30
0.0
 40
12.0
210
0.0
220
0.0
230
-1.0
 50
180.0
 51
270.0
1001
ACAD_STEPID
1071
        1
  0
LINE
  5
1C0
  8
0
 10
-166.8542017396273138
 20
-211.9085616826002934
 30
0.0
 11
93.1457982603725441
 21
-211.9085616826002934
 31
0.0
210
0.0
220
0.0
230
-1.0
1001
ACAD_STEPID
1071
        1
  0
ARC
  5
1C1
  8
0
 10
166.8542017396273991
 20
-199.9085616826002934
 30
0.0
 40
12.0
210
0.0
220
0.0
230
-1.0
 50
269.9999999999997726
 51
0.0
1001
ACAD_STEPID
1071
        1
  0
DIMENSION
  5
1C9
  8
ADSK_CONSTRAINTS
  2
*D4
 10
-114.1968694410380039
 20
-146.0682670328729955
 30
0.0
 11
-56.6344865696703934
 21
-164.3960960150963899
 31
0.0
 70
   131
  1
dia1=38.5000
 15
-77.5115340382171496
 25
-157.7488563323275912
 35
0.0
 40
0.0
1001
ACAD
1000
DSTYLE
1002
{
1070
   288
1070
     1
1002
}
1001
ACAD_DSTYLE_DIMRADIAL_EXTENSION
1070
   387
1070
     1
1070
   388
1040
0.0
1070
   390
1040
0.0
  0
INSERT
  5
1E2
  8
0
  2
*U3
 10
-112.5042017396276037
 20
-135.308561682600299
 30
0.0000000000000004
  0
DIMENSION
  5
1FF
  8
ADSK_CONSTRAINTS
  2
*D5
 10
-132.005509008120697
 20
-151.9085616826002934
 30
0.0
 11
-132.005509008120697
 21
-151.9085616826002934
 31
0.0
 70
   128
  1
d1=33.2/2
 13
-112.5042017396276037
 23
-135.308561682600299
 33
0.0000000000000004
 14
-95.8542017396275838
 24
-151.9085616826002934
 34
0.0
 50
90.0
  0
DIMENSION
  5
205
  8
ADSK_CONSTRAINTS
  2
*D6
 10
-106.7562567868494057
 20
-124.3271671714224027
 30
0.0
 11
-106.7562567868494057
 21
-124.3271671714224027
 31
0.0
 70
   128
  1
d2=33.3/2
 13
-112.5042017396276037
 23
-135.308561682600299
 33
0.0000000000000004
 14
-95.8542017396275838
 24
-151.9085616826002934
 34
0.0
  0
DIMENSION
  5
226
  8
ADSK_CONSTRAINTS
  2
*D7
 10
-95.8542017396275838
 20
-126.6056393245574014
 30
0.0
 11
-95.8542017396275838
 21
-126.6056393245574014
 31
0.0
 70
   128
  1
d3=83.0000
 13
-178.854201739627598
 23
-199.9085616826002934
 33
0.0
 14
-95.8542017396275838
 24
-151.9085616826002934
 34
0.0
  0
DIMENSION
  5
239
  8
ADSK_CONSTRAINTS
  2
*D8
 10
-73.354201739627527
 20
-26.7262895903038888
 30
0.0
 11
-73.354201739627527
 21
-26.7262895903038888
 31
0.0
 70
   128
  1
d4=45.0000
 13
-118.3542017396274986
 23
-41.4085616826001726
 33
0.0
 14
-73.3542017396275412
 24
-41.4085616826001726
 34
0.0
  0
DIMENSION
  5
23E
  8
ADSK_CONSTRAINTS
  2
*D9
 10
-136.2283475790995908
 20
-86.4085616826001797
 30
0.0
 11
-136.2283475790995908
 21
-86.4085616826001797
 31
0.0
 70
   128
  1
d5=45.0000
 13
-118.3542017396274986
 23
-41.4085616826001726
 33
0.0
 14
-118.3542017396274986
 24
-86.4085616826001512
 34
0.0
 50
90.0
  0
DIMENSION
  5
243
  8
ADSK_CONSTRAINTS
  2
*D10
 10
-113.9046832549699957
 20
-53.0810512658154323
 30
0.0
 11
-113.9046832549699957
 21
-53.0810512658154323
 31
0.0
 70
   128
  1
d6=83.0000
 13
-178.8542017396275128
 23
-107.9085616826002934
 33
0.0
 14
-95.8542017396275554
 24
-41.4085616826001726
 34
0.0
  0
DIMENSION
  5
25D
  8
ADSK_CONSTRAINTS
  2
*D11
 10
22.1457982603726897
 20
-103.0856496379466023
 30
0.0
 11
22.1457982603726897
 21
-103.0856496379466023
 31
0.0
 70
   128
  1
d7=83.0000
 13
105.1457982603727004
 23
-107.9085616826002934
 33
0.0
 14
22.1457982603726791
 24
-73.9085616826001512
 34
0.0000000000000004
  0
DIMENSION
  5
262
  8
ADSK_CONSTRAINTS
  2
*D12
 10
22.1457982603726897
 20
-108.5127761195215044
 30
0.0000000000000004
 11
22.1457982603726897
 21
-108.5127761195215044
 31
0.0
 70
   128
  1
d8=83.0000
 13
105.1457982603727999
 23
-199.9085616826002934
 33
0.0
 14
22.1457982603726791
 24
-141.9085616826002934
 34
0.0000000000000004
  0
DIMENSION
  5
26F
  8
ADSK_CONSTRAINTS
  2
*D13
 10
-26.4680270142568794
 20
-63.9085616826001583
 30
0.0
 11
-26.4680270142568794
 21
-63.9085616826001583
 31
0.0
 70
   128
  1
d9=60.0000
 13
-36.8542017396274133
 23
-3.9085616826001579
 33
0.0
 14
-73.3542017396275412
 24
-63.9085616826001583
 34
0.0
 50
90.0
  0
DIMENSION
  5
274
  8
ADSK_CONSTRAINTS
  2
*D14
 10
-29.2911883071471912
 20
-151.9085616826002934
 30
0.0
 11
-29.2911883071471912
 21
-151.9085616826002934
 31
0.0
 70
   128
  1
d10=60.0000
 13
-36.8542017396273991
 23
-211.9085616826002934
 33
0.0
 14
-95.8542017396275838
 24
-151.9085616826002934
 34
0.0
 50
90.0
  0
DIMENSION
  5
279
  8
ADSK_CONSTRAINTS
  2
*D15
 10
-3.6004216670627112
 20
-146.7320538412911901
 30
0.0
 11
-3.6004216670627112
 21
-146.7320538412911901
 31
0.0
 70
   128
  1
d11=70.0000
 13
93.1457982603725441
 23
-211.9085616826002934
 33
0.0
 14
22.1457982603726791
 24
-141.9085616826002934
 34
0.0000000000000004
 50
90.0
  0
DIMENSION
  5
27E
  8
ADSK_CONSTRAINTS
  2
*D16
 10
18.1379199131201787
 20
-46.5333964215976366
 30
0.0
 11
18.1379199131201787
 21
-46.5333964215976366
 31
0.0
 70
   128
  1
d12=70.0000
 13
93.1457982603726435
 23
-3.9085616826001428
 33
0.0
 14
22.1457982603726791
 24
-73.9085616826001512
 34
0.0000000000000004
 50
90.0
  0
ENDSEC
  0
EOF
