0
SECTION
2
HEADER
9
$INSUNITS
70
1
9
$ACADVER
1
AC1014
9
$HANDSEED
5
FFFF
0
ENDSEC
0
SECTION
2
TABLES
0
TABLE
2
VPORT
5
8
100
AcDbSymbolTable
0
ENDTAB
0
TABLE
2
LTYPE
5
5
100
AcDbSymbolTable
0
LTYPE
5
14
100
AcDbSymbolTableRecord
100
AcDbLinetypeTableRecord
2
BYBLOCK
70
0
0
LTYPE
5
15
100
AcDbSymbolTableRecord
100
AcDbLinetypeTableRecord
2
BYLAYER
70
0
0
ENDTAB
0
TABLE
2
LAYER
5
2
100
AcDbSymbolTable
70
2
0
LAYER
5
50
100
AcDbSymbolTableRecord
100
AcDbLayerTableRecord
2
0
70
0
6
CONTINUOUS
0
ENDTAB
0
TABLE
2
STYLE
5
3
100
AcDbSymbolTable
70
1
0
STYLE
5
11
100
AcDbSymbolTableRecord
100
AcDbTextStyleTableRecord
2
STANDARD
70
0
0
ENDTAB
0
TABLE
2
VIEW
5
6
100
AcDbSymbolTable
70
0
0
ENDTAB
0
TABLE
2
UCS
5
7
100
AcDbSymbolTable
70
0
0
ENDTAB
0
TABLE
2
APPID
5
9
100
AcDbSymbolTable
70
2
0
APPID
5
12
100
AcDbSymbolTableRecord
100
AcDbRegAppTableRecord
2
ACAD
70
0
0
ENDTAB
0
TABLE
2
DIMSTYLE
5
A
100
AcDbSymbolTable
70
1
0
ENDTAB
0
TABLE
2
BLOCK_RECORD
5
1
100
AcDbSymbolTable
70
1
0
BLOCK_RECORD
5
1F
100
AcDbSymbolTableRecord
100
AcDbBlockTableRecord
2
*MODEL_SPACE
0
BLOCK_RECORD
5
1B
100
AcDbSymbolTableRecord
100
AcDbBlockTableRecord
2
*PAPER_SPACE
0
ENDTAB
0
ENDSEC
0
SECTION
2
BLOCKS
0
BLOCK
5
20
100
AcDbEntity
100
AcDbBlockBegin
2
*MODEL_SPACE
0
ENDBLK
5
21
100
AcDbEntity
100
AcDbBlockEnd
0
BLOCK
5
1C
100
AcDbEntity
100
AcDbBlockBegin
2
*PAPER_SPACE
0
ENDBLK
5
1D
100
AcDbEntity
100
AcDbBlockEnd
0
ENDSEC
0
SECTION
2
ENTITIES
0
SPLINE
5
100
100
AcDbEntity
8
0
100
AcDbSpline
70
0
71
3
72
14
73
10
74
0
42
0.000000001
43
0.0000000001
44
0.0000000001
40
-0.29790968299076409
40
-0.29790968299076409
40
-0.29790968299076409
40
-0.29790968299076409
40
-0.28220152939322052
40
-0.24249749728190459
40
-0.21135817288986219
40
-0.17432848431094489
40
-0.1408260525238112
40
-0.039605063820035702
40
0
40
0
40
0
40
0
10
-23.685574140826986
20
-6.7440964232626035
30
0
10
-23.68631067073051
20
-6.7492351653153682
30
0
10
-23.690358864504447
20
-6.767183680538821
30
0
10
-23.703556939087211
20
-6.7956896395844364
30
0
10
-23.73955057854425
20
-6.8082473191817163
30
0
10
-23.774607468244085
20
-6.8053000981577858
30
0
10
-23.823212381502461
20
-6.7733899682875016
30
0
10
-23.865816461166329
20
-6.7323245050217366
30
0
10
-23.889247312236986
20
-6.6915463144982956
30
0
10
-23.895836862504034
20
-6.680078103828448
30
0
0
SPLINE
5
101
100
AcDbEntity
8
0
100
AcDbSpline
70
0
71
3
72
9
73
5
74
0
42
0.000000001
43
0.0000000001
44
0.0000000001
40
0.37743294822402912
40
0.37743294822402912
40
0.37743294822402912
40
0.37743294822402912
40
0.50200406516578266
40
0.54094364078185686
40
0.54094364078185686
40
0.54094364078185686
40
0.54094364078185686
10
-23.895836862504034
20
-6.680078103828448
30
0
10
-23.851193020362192
20
-6.689042232371591
30
0
10
-23.786605394127609
20
-6.7091538025121462
30
0
10
-23.705334725465885
20
-6.7371953016612594
30
0
10
-23.685574140827104
20
-6.7440964232625475
30
0
0
SPLINE
5
102
100
AcDbEntity
8
0
100
AcDbSpline
70
0
71
3
72
11
73
7
74
0
42
0.000000001
43
0.0000000001
44
0.0000000001
40
-0.77349818260481473
40
-0.77349818260481473
40
-0.77349818260481473
40
-0.77349818260481473
40
-0.7728838495622804
40
-0.66214109573659607
40
-0.53046608772822035
40
-0.45321802602862438
40
-0.45321802602862438
40
-0.45321802602862438
40
-0.45321802602862438
10
-23.932436519645645
20
-6.5640168288834513
30
0
10
-23.932444756852298
20
-6.5638921180336487
30
0
10
-23.933929943244273
20
-6.5413075732404717
30
0
10
-23.934699718617818
20
-6.4997414332951982
30
0
10
-23.912707492295795
20
-6.4452170743875978
30
0
10
-23.869152315201859
20
-6.4011784682665622
30
0
10
-23.848494669299775
20
-6.3874442042654902
30
0
0
SPLINE
5
103
100
AcDbEntity
8
0
100
AcDbSpline
70
0
71
3
72
10
73
6
74
0
42
0.000000001
43
0.0000000001
44
0.0000000001
40
-0.69253126129599085
40
-0.69253126129599085
40
-0.69253126129599085
40
-0.69253126129599085
40
-0.6730438747306704
40
-0.52513269020492503
40
-0.3837812453950003
40
-0.3837812453950003
40
-0.3837812453950003
40
-0.3837812453950003
10
-23.848494669299775
20
-6.3874442042654902
30
0
10
-23.833581615537234
20
-6.3979974236469701
30
0
10
-23.78983021010345
20
-6.4341157016230426
30
0
10
-23.725368235453967
20
-6.5169518185606838
30
0
10
-23.698118968126781
20
-6.6119087864607726
30
0
10
-23.691577551059432
20
-6.6584962072475795
30
0
0
SPLINE
5
104
100
AcDbEntity
8
0
100
AcDbSpline
70
0
71
3
72
9
73
5
74
0
42
0.000000001
43
0.0000000001
44
0.0000000001
40
-0.28994677462295948
40
-0.28994677462295948
40
-0.28994677462295948
40
-0.28994677462295948
40
-0.28511905440017921
40
-0.17506555475938981
40
-0.17506555475938981
40
-0.17506555475938981
40
-0.17506555475938981
10
-23.691577551059304
20
-6.6584962072475795
30
0
10
-23.698566681926877
20
-6.6558114284909626
30
0
10
-23.778284927184696
20
-6.6191191477461029
30
0
10
-23.86180751767716
20
-6.5817177010661512
30
0
10
-23.932436519645709
20
-6.5640168288835072
30
0
0
SPLINE
5
105
100
AcDbEntity
8
0
100
AcDbSpline
70
0
71
3
72
8
73
4
74
0
42
0.000000001
43
0.0000000001
44
0.0000000001
40
-0.38316404551066968
40
-0.38316404551066968
40
-0.38316404551066968
40
-0.38316404551066968
40
-0.37918441394371571
40
-0.37918441394371571
40
-0.37918441394371571
40
-0.37918441394371571
10
-23.861651639105958
20
-6.281350713031558
30
0
10
-23.863032104758297
20
-6.2804682518265187
30
0
10
-23.864406295913682
20
-6.2796038512748433
30
0
10
-23.865774239837656
20
-6.278756821928325
30
0
0
SPLINE
5
106
100
AcDbEntity
8
0
100
AcDbSpline
70
0
71
3
72
8
73
4
74
0
42
0.000000001
43
0.0000000001
44
0.0000000001
40
-0.84670181236051145
40
-0.84670181236051145
40
-0.84670181236051145
40
-0.84670181236051145
40
-0.82270533967893145
40
-0.82270533967893145
40
-0.82270533967893145
40
-0.82270533967893145
10
-23.865774239837716
20
-6.278756821928325
30
0
10
-23.847833247084171
20
-6.2595559900031361
30
0
10
-23.833742565163679
20
-6.2453230823600592
30
0
10
-23.822395699110981
20
-6.2345451585795075
30
0
0
SPLINE
5
107
100
AcDbEntity
8
0
100
AcDbSpline
70
0
71
3
72
9
73
5
74
0
42
0.000000001
43
0.0000000001
44
0.0000000001
40
0.50399968004509088
40
0.50399968004509088
40
0.50399968004509088
40
0.50399968004509088
40
0.53046608772822035
40
0.53055264631728738
40
0.53055264631728738
40
0.53055264631728738
40
0.53055264631728738
10
-23.822395699111034
20
-6.2345451585795919
30
0
10
-23.818041625084334
20
-6.2387350378651973
30
0
10
-23.813886958311226
20
-6.2429907220109566
30
0
10
-23.809923065529457
20
-6.2473141197994115
30
0
10
-23.809910145874706
20
-6.2473282141303201
30
0
0
SPLINE
5
108
100
AcDbEntity
8
0
100
AcDbSpline
70
0
71
3
72
9
73
5
74
0
42
0.000000001
43
0.0000000001
44
0.0000000001
40
0.34881217539102582
40
0.34881217539102582
40
0.34881217539102582
40
0.34881217539102582
40
0.35911327986517572
40
0.43829265359981112
40
0.43829265359981112
40
0.43829265359981112
40
0.43829265359981112
10
-23.809910145874706
20
-6.2473282141303201
30
0
10
-23.812086569728081
20
-6.2484530281098927
30
0
10
-23.830801102390009
20
-6.258462517899531
30
0
10
-23.848031696748482
20
-6.2705057199571135
30
0
10
-23.861651639107443
20
-6.2813507130305313
30
0
0
SPLINE
5
109
100
AcDbEntity
8
0
100
AcDbSpline
70
0
71
3
72
13
73
9
74
0
42
0.000000001
43
0.0000000001
44
0.0000000001
40
-0.1723482240625841
40
-0.1723482240625841
40
-0.1723482240625841
40
-0.1723482240625841
40
-0.16837153496659851
40
-0.14859238636123251
40
-0.11107850465980001
40
-0.070651463411178506
40
-0.027442697996654299
40
0
40
0
40
0
40
0
10
-23.313271675617553
20
-6.3013287364650079
30
0
10
-23.298028866158692
20
-6.2969766092744948
30
0
10
-23.284525586819999
20
-6.281309425215837
30
0
10
-23.278430160139013
20
-6.2581960050320484
30
0
10
-23.279734100602923
20
-6.2290377005102027
30
0
10
-23.28539676613207
20
-6.1972235796677495
30
0
10
-23.295404014205232
20
-6.175897682601132
30
0
10
-23.311085241824795
20
-6.1515700734212668
30
0
10
-23.327589564183537
20
-6.1350760562707318
30
0
0
SPLINE
5
110
100
AcDbEntity
8
0
100
AcDbSpline
70
0
71
3
72
10
73
6
74
0
42
0.000000001
43
0.0000000001
44
0.0000000001
40
0
40
0
40
0
40
0
40
0.0051661615117065997
40
0.031234881046250003
40
0.080938547495837898
40
0.080938547495837898
40
0.080938547495837898
40
0.080938547495837898
10
-23.327589564183537
20
-6.1350760562707318
30
0
10
-23.322387499585378
20
-6.1274068531166819
30
0
10
-23.315859190276107
20
-6.1141196389125545
30
0
10
-23.316347208179984
20
-6.075359146599892
30
0
10
-23.354295300504756
20
-6.0434806315162586
30
0
10
-23.378314614496787
20
-6.0285875644106133
30
0
0
SPLINE
5
111
100
AcDbEntity
8
0
100
AcDbSpline
70
0
71
3
72
15
73
11
74
0
42
0.000000001
43
0.0000000001
44
0.0000000001
40
-0.69246787519673014
40
-0.69246787519673014
40
-0.69246787519673014
40
-0.69246787519673014
40
-0.66214109573659607
40
-0.53046608772822035
40
-0.40027902569551183
40
-0.28663693805157542
40
-0.17948181790986703
40
-0.097365479867766697
40
-0.046693804238453498
40
-0.031426780259413298
40
-0.031426780259413298
40
-0.031426780259413298
40
-0.031426780259413298
10
-23.378314614496848
20
-6.0285875644105564
30
0
10
-23.372606985407629
20
-6.0294031815703164
30
0
10
-23.342893551169592
20
-6.0341485892514726
30
0
10
-23.282924081530439
20
-6.0457783369333091
30
0
10
-23.204661873319989
20
-6.0889313126807982
30
0
10
-23.116657560801507
20
-6.1634203235981166
30
0
10
-23.071359129883714
20
-6.2468069236958703
30
0
10
-23.067862901643029
20
-6.3529460643508591
30
0
10
-23.083979613047628
20
-6.3954487583553261
30
0
10
-23.109826987894955
20
-6.4103387145227222
30
0
10
-23.11664571591951
20
-6.4129851372038473
30
0
0
SPLINE
5
112
100
AcDbEntity
8
0
100
AcDbSpline
70
0
71
3
72
8
73
4
74
0
42
0.000000001
43
0.0000000001
44
0.0000000001
40
-3.6125628597696857
40
-3.6125628597696857
40
-3.6125628597696857
40
-3.6125628597696857
40
-3.3996329500155844
40
-3.3996329500155844
40
-3.3996329500155844
40
-3.3996329500155844
10
-23.116645715921212
20
-6.4129851372053244
30
0
10
-23.166184449035541
20
-6.3559400141523792
30
0
10
-23.264493612343188
20
-6.3448635375705313
30
0
10
-23.334658544962736
20
-6.3763566792071193
30
0
0
SPLINE
5
113
100
AcDbEntity
8
0
100
AcDbSpline
70
0
71
3
72
9
73
5
74
0
42
0.000000001
43
0.0000000001
44
0.0000000001
40
-0.0458150059795479
40
-0.0458150059795479
40
-0.0458150059795479
40
-0.0458150059795479
40
-0.032497512981972898
40
-0.019941281194132202
40
-0.019941281194132202
40
-0.019941281194132202
40
-0.019941281194132202
10
-23.334658544962679
20
-6.3763566792070616
30
0
10
-23.330735166797872
20
-6.370592719818986
30
0
10
-23.32351735849937
20
-6.3569964157487524
30
0
10
-23.315014034242157
20
-6.3374511552381554
30
0
10
-23.313271675617553
20
-6.3013287364656607
30
0
0
SPLINE
5
114
100
AcDbEntity
8
0
100
AcDbSpline
70
0
71
3
72
9
73
5
74
0
42
0.000000001
43
0.0000000001
44
0.0000000001
40
-1.8502972965185958
40
-1.8502972965185958
40
-1.8502972965185958
40
-1.8502972965185958
40
-1.6373907385519189
40
-1.5770023972407252
40
-1.5770023972407252
40
-1.5770023972407252
40
-1.5770023972407252
10
-23.069998110867576
20
-6.4252991965943647
30
0
10
-23.064012137684589
20
-6.4970814855250145
30
0
10
-23.038623555599766
20
-6.58807350950282
30
0
10
-22.988106723068771
20
-6.664614442231267
30
0
10
-22.975852090915168
20
-6.6807391336995883
30
0
0
SPLINE
5
115
100
AcDbEntity
8
0
100
AcDbSpline
70
0
71
3
72
17
73
13
74
0
42
0.000000001
43
0.0000000001
44
0.0000000001
40
1.945683679478482
40
1.945683679478482
40
1.945683679478482
40
1.945683679478482
40
2.0573977150025717
40
2.1864793762859192
40
2.291492204926044
40
2.372612558146689
40
2.4413596375332149
40
2.4991054766923719
40
2.5361289148581756
40
2.5574523666454398
40
2.5653139422054161
40
2.575153706702777
40
2.575153706702777
40
2.575153706702777
40
2.575153706702777
10
-22.975852090915168
20
-6.6807391336996176
30
0
10
-22.998545288790407
20
-6.7112386710952716
30
0
10
-23.059468300990144
20
-6.7678956892112989
30
0
10
-23.180819440233449
20
-6.7888527073194913
30
0
10
-23.285115661622854
20
-6.7342083036910898
30
0
10
-23.303514295153946
20
-6.6437565390599644
30
0
10
-23.2760505183021
20
-6.5738060804066123
30
0
10
-23.221416044743481
20
-6.551258442104781
30
0
10
-23.180507099315143
20
-6.5573141397876347
30
0
10
-23.164366868247718
20
-6.5723775610572233
30
0
10
-23.153901188242909
20
-6.5810489594566217
30
0
10
-23.15349735378425
20
-6.5872432430393664
30
0
10
-23.153272871572305
20
-6.5906865016563208
30
0
0
SPLINE
5
116
100
AcDbEntity
8
0
100
AcDbSpline
70
0
71
3
72
10
73
6
74
0
42
0.000000001
43
0.0000000001
44
0.0000000001
40
-3.820187838137878
40
-3.820187838137878
40
-3.820187838137878
40
-3.820187838137878
40
-3.7796674931821883
40
-3.6457485742896569
40
-3.6420006241215717
40
-3.6420006241215717
40
-3.6420006241215717
40
-3.6420006241215717
10
-23.153272871572089
20
-6.5906865016563208
30
0
10
-23.139764997498109
20
-6.5868734754937321
30
0
10
-23.081613873360201
20
-6.5704584751384925
30
0
10
-23.076806924379301
20
-6.4861885143267415
30
0
10
-23.098490389185486
20
-6.4405185561474099
30
0
10
-23.099099121473841
20
-6.4392895893579531
30
0
0
SPLINE
5
117
100
AcDbEntity
8
0
100
AcDbSpline
70
0
71
3
72
8
73
4
74
0
42
0.000000001
43
0.0000000001
44
0.0000000001
40
-0.046244562106175099
40
-0.046244562106175099
40
-0.046244562106175099
40
-0.046244562106175099
40
-0.034247183218927897
40
-0.034247183218927897
40
-0.034247183218927897
40
-0.034247183218927897
10
-23.099099121473962
20
-6.4392895893576689
30
0
10
-23.090651174885576
20
-6.4365212213013043
30
0
10
-23.081103627149556
20
-6.432060227878436
30
0
10
-23.06999811086769
20
-6.425299196594338
30
0
0
SPLINE
5
118
100
AcDbEntity
8
0
100
AcDbSpline
70
0
71
3
72
9
73
5
74
0
42
0.000000001
43
0.0000000001
44
0.0000000001
40
-0.53261938306710099
40
-0.53261938306710099
40
-0.53261938306710099
40
-0.53261938306710099
40
-0.52787711116851865
40
-0.46010556725527663
40
-0.46010556725527663
40
-0.46010556725527663
40
-0.46010556725527663
10
-23.685943436762219
20
-6.5135002923437204
30
0
10
-23.689272120905059
20
-6.5034472277279596
30
0
10
-23.716203277422036
20
-6.4346687825020421
30
0
10
-23.746801646543194
20
-6.3894863797809629
30
0
10
-23.774398098516826
20
-6.3578447838672636
30
0
0
SPLINE
5
119
100
AcDbEntity
8
0
100
AcDbSpline
70
0
71
3
72
8
73
4
74
0
42
0.000000001
43
0.0000000001
44
0.0000000001
40
-0.37762739354163088
40
-0.37762739354163088
40
-0.37762739354163088
40
-0.37762739354163088
40
-0.34770837496846407
40
-0.34770837496846407
40
-0.34770837496846407
40
-0.34770837496846407
10
-23.774398098520233
20
-6.3578447838633698
30
0
10
-23.762941702995139
20
-6.3557401840889005
30
0
10
-23.750990439502395
20
-6.3544438804240562
30
0
10
-23.738869438822856
20
-6.3540164151290366
30
0
0
SPLINE
5
120
100
AcDbEntity
8
0
100
AcDbSpline
70
0
71
3
72
9
73
5
74
0
42
0.000000001
43
0.0000000001
44
0.0000000001
40
0.73883321946112046
40
0.73883321946112046
40
0.73883321946112046
40
0.73883321946112046
40
0.7728838495622804
40
0.83466254511954641
40
0.83466254511954641
40
0.83466254511954641
40
0.83466254511954641
10
-23.738869438850539
20
-6.3540164151300029
30
0
10
-23.734941662082576
20
-6.3613618010643478
30
0
10
-23.722836264365192
20
-6.384639735626946
30
0
10
-23.70600741730868
20
-6.4189173202007179
30
0
10
-23.685943436762273
20
-6.5135002923437488
30
0
0
SPLINE
5
121
100
AcDbEntity
8
0
100
AcDbSpline
70
0
71
3
72
9
73
5
74
0
42
0.000000001
43
0.0000000001
44
0.0000000001
40
-0.33396237123287792
40
-0.33396237123287792
40
-0.33396237123287792
40
-0.33396237123287792
40
-0.28511905440017921
40
-0.1413327196363241
40
-0.1413327196363241
40
-0.1413327196363241
40
-0.1413327196363241
10
-22.267056409067546
20
-6.2877956439202318
30
0
10
-22.251153746644821
20
-6.3083439660666007
30
0
10
-22.189851165996856
20
-6.3840021096448973
30
0
10
-22.108834316077381
20
-6.458738433710308
30
0
10
-22.040251553372737
20
-6.4797643125274229
30
0
0
SPLINE
5
122
100
AcDbEntity
8
0
100
AcDbSpline
70
0
71
3
72
13
73
9
74
0
42
0.000000001
43
0.0000000001
44
0.0000000001
40
-0.50789633311309823
40
-0.50789633311309823
40
-0.50789633311309823
40
-0.50789633311309823
40
-0.40027902569551183
40
-0.28663693805157542
40
-0.17948181790986703
40
-0.097365479867766697
40
-0.046693804238453498
40
-0.0104132562119961
40
-0.0104132562119961
40
-0.0104132562119961
40
-0.0104132562119961
10
-22.040251553372517
20
-6.4797643125274229
30
0
10
-22.059095346419674
20
-6.5082259861510598
30
0
10
-22.118682514633289
20
-6.5677874880285989
30
0
10
-22.25460495854384
20
-6.5684913230024184
30
0
10
-22.352451406420975
20
-6.5113308587980736
30
0
10
-22.393836423293799
20
-6.4042697586669268
30
0
10
-22.376238097628285
20
-6.3390718795518932
30
0
10
-22.355348931007597
20
-6.314687150039263
30
0
10
-22.346173365412032
20
-6.3048678166782235
30
0
0
SPLINE
5
123
100
AcDbEntity
8
0
100
AcDbSpline
70
0
71
3
72
9
73
5
74
0
42
0.000000001
43
0.0000000001
44
0.0000000001
40
-0.050009936604904603
40
-0.050009936604904603
40
-0.050009936604904603
40
-0.050009936604904603
40
-0.031234881046250003
40
-0.022506608711412995
40
-0.022506608711412995
40
-0.022506608711412995
40
-0.022506608711412995
10
-22.346173365426239
20
-6.30486781667922
30
0
10
-22.330737748490257
20
-6.3037522753852349
30
0
10
-22.305666875642597
20
-6.3000619907119111
30
0
10
-22.275951483712557
20
-6.2917951119044782
30
0
10
-22.267056409067546
20
-6.2877956439201759
30
0
0
SPLINE
5
124
100
AcDbEntity
8
0
100
AcDbSpline
70
0
71
3
72
10
73
6
74
0
42
0.000000001
43
0.0000000001
44
0.0000000001
40
-0.0629617015104873
40
-0.0629617015104873
40
-0.0629617015104873
40
-0.0629617015104873
40
-0.059694748457730699
40
-0.032497512981972898
40
-0.019941281194132202
40
-0.019941281194132202
40
-0.019941281194132202
40
-0.019941281194132202
10
-22.384033650995779
20
-6.3050062492167589
30
0
10
-22.385336600737329
20
-6.3057754850425587
30
0
10
-22.397106312710548
20
-6.3134324543086251
30
0
10
-22.407960802529821
20
-6.3307329798316641
30
0
10
-22.421025663708289
20
-6.3607631312810753
30
0
10
-22.422768022332889
20
-6.3968855500535673
30
0
0
SPLINE
5
125
100
AcDbEntity
8
0
100
AcDbSpline
70
0
71
3
72
13
73
9
74
0
42
0.000000001
43
0.0000000001
44
0.0000000001
40
-0.1723482240625841
40
-0.1723482240625841
40
-0.1723482240625841
40
-0.1723482240625841
40
-0.16837153496659851
40
-0.14859238636123251
40
-0.11107850465980001
40
-0.070651463411178506
40
-0.027442697996654299
40
0
40
0
40
0
40
0
10
-22.422768022332889
20
-6.3968855500542201
30
0
10
-22.438010831791761
20
-6.4012376772447359
30
0
10
-22.451514111130447
20
-6.4169048613033919
30
0
10
-22.45760953781144
20
-6.4400182814871831
30
0
10
-22.45630559734753
20
-6.4691765860090271
30
0
10
-22.450642931818379
20
-6.5009907068514821
30
0
10
-22.440635683745199
20
-6.5223166039180978
30
0
10
-22.424954456125647
20
-6.5466442130979621
30
0
10
-22.408450133766905
20
-6.5631382302484953
30
0
0
SPLINE
5
126
100
AcDbEntity
8
0
100
AcDbSpline
70
0
71
3
72
12
73
8
74
0
42
0.000000001
43
0.0000000001
44
0.0000000001
40
0
40
0
40
0
40
0
40
0.0051661615117065997
40
0.031234881046250003
40
0.085472368064853199
40
0.18547569815651291
40
0.22335317342072089
40
0.22335317342072089
40
0.22335317342072089
40
0.22335317342072089
10
-22.408450133766905
20
-6.5631382302484953
30
0
10
-22.413652198365067
20
-6.5708074334025488
30
0
10
-22.420180507674328
20
-6.5840946476066744
30
0
10
-22.419665153159137
20
-6.6250263318019478
30
0
10
-22.321142692763598
20
-6.6895501119071659
30
0
10
-22.246053392754785
20
-6.6938791766757371
30
0
10
-22.202683374468961
20
-6.69053132120301
30
0
10
-22.191480181781802
20
-6.6891722757221563
30
0
0
SPLINE
5
127
100
AcDbEntity
8
0
100
AcDbSpline
70
0
71
3
72
16
73
12
74
0
42
0.000000001
43
0.0000000001
44
0.0000000001
40
-0.78450410214258148
40
-0.78450410214258148
40
-0.78450410214258148
40
-0.78450410214258148
40
-0.7728838495622804
40
-0.66214109573659607
40
-0.53046608772822035
40
-0.40027902569551183
40
-0.28663693805157542
40
-0.17948181790986703
40
-0.097365479867766697
40
-0.046693804238453498
40
0
40
0
40
0
40
0
10
-22.191480181781802
20
-6.6891722757221563
30
0
10
-22.195020562628539
20
-6.6910883938077594
30
0
10
-22.229235916481681
20
-6.7088797740821775
30
0
10
-22.263550643344619
20
-6.7257239447970232
30
0
10
-22.315728557431946
20
-6.7428445926597487
30
0
10
-22.38192436454278
20
-6.7545177442263631
30
0
10
-22.500342580175918
20
-6.7375514450708787
30
0
10
-22.598451012302579
20
-6.6674281895987093
30
0
10
-22.647363745658602
20
-6.5817758978484866
30
0
10
-22.628681505442501
20
-6.5125623566086519
30
0
10
-22.603703162480432
20
-6.486483920233737
30
0
10
-22.591724236704408
20
-6.4739774199361326
30
0
0
SPLINE
5
128
100
AcDbEntity
8
0
100
AcDbSpline
70
0
71
3
72
11
73
7
74
0
42
0.000000001
43
0.0000000001
44
0.0000000001
40
-0.096009806494324196
40
-0.096009806494324196
40
-0.096009806494324196
40
-0.096009806494324196
40
-0.086246558398878098
40
-0.059694748457730699
40
-0.032497512981972898
40
-0.019941281194132202
40
-0.019941281194132202
40
-0.019941281194132202
40
-0.019941281194132202
10
-22.591724236698042
20
-6.4739774199422992
30
0
10
-22.596370166839513
20
-6.4735721006308742
30
0
10
-22.6137142002143
20
-6.4729319850910798
30
0
10
-22.644758628736891
20
-6.481574662177179
30
0
10
-22.661488124894618
20
-6.5082391190132247
30
0
10
-22.674552986073078
20
-6.5382692704626333
30
0
10
-22.676295344697678
20
-6.574391689235128
30
0
0
SPLINE
5
129
100
AcDbEntity
8
0
100
AcDbSpline
70
0
71
3
72
13
73
9
74
0
42
0.000000001
43
0.0000000001
44
0.0000000001
40
-0.1723482240625841
40
-0.1723482240625841
40
-0.1723482240625841
40
-0.1723482240625841
40
-0.16837153496659851
40
-0.14859238636123251
40
-0.11107850465980001
40
-0.070651463411178506
40
-0.027442697996654299
40
0
40
0
40
0
40
0
10
-22.676295344697678
20
-6.5743916892357817
30
0
10
-22.69153815415655
20
-6.5787438164262966
30
0
10
-22.705041433495236
20
-6.5944110004849517
30
0
10
-22.711136860176218
20
-6.6175244206687429
30
0
10
-22.709832919712305
20
-6.6466827251905851
30
0
10
-22.704170254183172
20
-6.6784968460330418
30
0
10
-22.694163006109985
20
-6.6998227430996584
30
0
10
-22.67848177849044
20
-6.7241503522795218
30
0
10
-22.661977456131687
20
-6.7406443694300577
30
0
0
SPLINE
5
130
100
AcDbEntity
8
0
100
AcDbSpline
70
0
71
3
72
9
73
5
74
0
42
0.000000001
43
0.0000000001
44
0.0000000001
40
0
40
0
40
0
40
0
40
0.0051661615117065997
40
0.019335503269745102
40
0.019335503269745102
40
0.019335503269745102
40
0.019335503269745102
10
-22.661977456131687
20
-6.7406443694300577
30
0
10
-22.66717952072986
20
-6.7483135725841068
30
0
10
-22.671220776587639
20
-6.7565388311759138
30
0
10
-22.672688182081181
20
-6.7654043460724331
30
0
10
-22.67242001007153
20
-6.7719742898034179
30
0
0
SPLINE
5
131
100
AcDbEntity
8
0
100
AcDbSpline
70
0
71
3
72
9
73
5
74
0
42
0.000000001
43
0.0000000001
44
0.0000000001
40
1.1719186310991689
40
1.1719186310991689
40
1.1719186310991689
40
1.1719186310991689
40
1.2923422228166168
40
1.3816724828260869
40
1.3816724828260869
40
1.3816724828260869
40
1.3816724828260869
10
-22.672420010071047
20
-6.7719742898149908
30
0
10
-22.71080885806203
20
-6.759397196517865
30
0
10
-22.775347741767749
20
-6.7297824945889451
30
0
10
-22.832689205279284
20
-6.688137055053728
30
0
10
-22.854921203119488
20
-6.6681191210874573
30
0
0
SPLINE
5
132
100
AcDbEntity
8
0
100
AcDbSpline
70
0
71
3
72
10
73
6
74
0
42
0.000000001
43
0.0000000001
44
0.0000000001
40
-2.3424542431711801
40
-2.3424542431711801
40
-2.3424542431711801
40
-2.3424542431711801
40
-2.1320579466616398
40
-1.8645661494273731
40
-1.8015262104217067
40
-1.8015262104217067
40
-1.8015262104217067
40
-1.8015262104217067
10
-22.854921203119599
20
-6.6681191210874848
30
0
10
-22.827357979173478
20
-6.6026462145360796
30
0
10
-22.795433543686048
20
-6.4442150866619672
30
0
10
-22.835377176877277
20
-6.2579903635509089
30
0
10
-22.897198503678514
20
-6.1660635490783609
30
0
10
-22.910168301355849
20
-6.1493885435190787
30
0
0
SPLINE
5
133
100
AcDbEntity
8
0
100
AcDbSpline
70
0
71
3
72
9
73
5
74
0
42
0.000000001
43
0.0000000001
44
0.0000000001
40
-0.099453206758450999
40
-0.099453206758450999
40
-0.099453206758450999
40
-0.099453206758450999
40
-0.077314574612818099
40
-0.071986679493456093
40
-0.071986679493456093
40
-0.071986679493456093
40
-0.071986679493456093
10
-22.910168301355849
20
-6.1493885435190787
30
0
10
-22.906059530540716
20
-6.1432431584462455
30
0
10
-22.900678968288652
20
-6.1358838348888618
30
0
10
-22.894620143572091
20
-6.1291597268996716
30
0
10
-22.893421103880872
20
-6.1278776539628748
30
0
0
SPLINE
5
134
100
AcDbEntity
8
0
100
AcDbSpline
70
0
71
3
72
11
73
7
74
0
42
0.000000001
43
0.0000000001
44
0.0000000001
40
-0.7967964691226771
40
-0.7967964691226771
40
-0.7967964691226771
40
-0.7967964691226771
40
-0.69536370076586174
40
-0.51284570787500194
40
-0.35911327986517572
40
-0.26893755686895732
40
-0.26893755686895732
40
-0.26893755686895732
40
-0.26893755686895732
10
-22.893421103880872
20
-6.1278776539628756
30
0
10
-22.866069642625277
20
-6.1421818343436012
30
0
10
-22.824871196641009
20
-6.1640335830300712
30
0
10
-22.775714440943712
20
-6.1852257551349057
30
0
10
-22.693735122774228
20
-6.2238957856464898
30
0
10
-22.638207294034491
20
-6.2448436793330719
30
0
10
-22.615249148874341
20
-6.2526306925365258
30
0
0
SPLINE
5
135
100
AcDbEntity
8
0
100
AcDbSpline
70
0
71
3
72
13
73
9
74
0
42
0.000000001
43
0.0000000001
44
0.0000000001
40
2.4387248264308949
40
2.4387248264308949
40
2.4387248264308949
40
2.4387248264308949
40
2.4413596375332149
40
2.4991054766923719
40
2.5361289148581756
40
2.5574523666454398
40
2.5653139422054161
40
2.575153706702777
40
2.575153706702777
40
2.575153706702777
40
2.575153706702777
10
-22.615249148874341
20
-6.252630692536612
30
0
10
-22.615864627073048
20
-6.2532548772223473
30
0
10
-22.630221678419495
20
-6.2673175417030356
30
0
10
-22.662766563840819
20
-6.280748810593491
30
0
10
-22.703675509269146
20
-6.2746931129106391
30
0
10
-22.719815740336571
20
-6.2596296916410523
30
0
10
-22.730281420341392
20
-6.2509582932416512
30
0
10
-22.730685254800051
20
-6.2447640096589074
30
0
10
-22.730909737011988
20
-6.2413207510419513
30
0
0
SPLINE
5
136
100
AcDbEntity
8
0
100
AcDbSpline
70
0
71
3
72
11
73
7
74
0
42
0.000000001
43
0.0000000001
44
0.0000000001
40
-3.5930124272624235
40
-3.5930124272624235
40
-3.5930124272624235
40
-3.5930124272624235
40
-3.5524920823067339
40
-3.4185731634142029
40
-3.1701367698259086
40
-2.9862812008737261
40
-2.9862812008737261
40
-2.9862812008737261
40
-2.9862812008737261
10
-22.730909737012208
20
-6.2413207510419513
30
0
10
-22.744417611676674
20
-6.2451337778566778
30
0
10
-22.802568738355948
20
-6.2615487810193269
30
0
10
-22.813976563773849
20
-6.4615390038184568
30
0
10
-22.539134180886432
20
-6.5072881735852226
30
0
10
-22.448753992288172
20
-6.3669068293795164
30
0
10
-22.432579062735162
20
-6.2990058212384232
30
0
0
SPLINE
5
137
100
AcDbEntity
8
0
100
AcDbSpline
70
0
71
3
72
9
73
5
74
0
42
0.000000001
43
0.0000000001
44
0.0000000001
40
-0.093599885157807206
40
-0.093599885157807206
40
-0.093599885157807206
40
-0.093599885157807206
40
-0.085472368064853199
40
-0.066863532135907205
40
-0.066863532135907205
40
-0.066863532135907205
40
-0.066863532135907205
10
-22.432579062735268
20
-6.2990058212383948
30
0
10
-22.428169335605617
20
-6.2997016020102716
30
0
10
-22.4132237038732
20
-6.3019759476544408
30
0
10
-22.396732787637919
20
-6.3041965852079747
30
0
10
-22.384033650995551
20
-6.3050062492167589
30
0
0
SPLINE
5
138
100
AcDbEntity
8
0
100
AcDbSpline
70
0
71
3
72
9
73
5
74
0
42
0.000000001
43
0.0000000001
44
0.0000000001
40
-0.85909386785413588
40
-0.85909386785413588
40
-0.85909386785413588
40
-0.85909386785413588
40
-0.7728838495622804
40
-0.68997911241313759
40
-0.68997911241313759
40
-0.68997911241313759
40
-0.68997911241313759
10
-22.07129134560364
20
-6.1933870930272805
30
0
10
-22.030622566007306
20
-6.2267378997232044
30
0
10
-22.009384247718909
20
-6.3054578602160944
30
0
10
-22.008180989939547
20
-6.3403952784773159
30
0
10
-22.008535717827378
20
-6.3568957786698226
30
0
0
SPLINE
5
139
100
AcDbEntity
8
0
100
AcDbSpline
70
0
71
3
72
8
73
4
74
0
42
0.000000001
43
0.0000000001
44
0.0000000001
40
0.28873162088622872
40
0.28873162088622872
40
0.28873162088622872
40
0.28873162088622872
40
0.3599950945669303
40
0.3599950945669303
40
0.3599950945669303
40
0.3599950945669303
10
-22.008535717827499
20
-6.3568957786698519
30
0
10
-22.03069774286007
20
-6.3499853583145258
30
0
10
-22.052080045977387
20
-6.3406665440174237
30
0
10
-22.07297892082067
20
-6.3290684248917302
30
0
0
SPLINE
5
140
100
AcDbEntity
8
0
100
AcDbSpline
70
0
71
3
72
9
73
5
74
0
42
0.000000001
43
0.0000000001
44
0.0000000001
40
1.050305170477345
40
1.050305170477345
40
1.050305170477345
40
1.050305170477345
40
1.146302618151561
40
1.2078187316756899
40
1.2078187316756899
40
1.2078187316756899
40
1.2078187316756899
10
-22.072978920815096
20
-6.3290684248818661
30
0
10
-22.089821311535264
20
-6.3010441823204939
30
0
10
-22.108971874569303
20
-6.2501063887911092
30
0
10
-22.107283984413019
20
-6.1965154884293128
30
0
10
-22.103707261260411
20
-6.1760084331767882
30
0
0
SPLINE
5
141
100
AcDbEntity
8
0
100
AcDbSpline
70
0
71
3
72
9
73
5
74
0
42
0.000000001
43
0.0000000001
44
0.0000000001
40
1.6344135559937261
40
1.6344135559937261
40
1.6344135559937261
40
1.6344135559937261
40
1.6346809499478641
40
1.660589461964094
40
1.660589461964094
40
1.660589461964094
40
1.660589461964094
10
-22.103707261260297
20
-6.1760084331767615
30
0
10
-22.103584370116444
20
-6.1760343783426066
30
0
10
-22.091566434158935
20
-6.1785979240112958
30
0
10
-22.080776428835769
20
-6.1834692022435807
30
0
10
-22.071291345603669
20
-6.1933870930273009
30
0
0
SPLINE
5
142
100
AcDbEntity
8
0
100
AcDbSpline
70
0
71
3
72
8
73
4
74
0
42
0.000000001
43
0.0000000001
44
0.0000000001
40
-0.46338570652109212
40
-0.46338570652109212
40
-0.46338570652109212
40
-0.46338570652109212
40
-0.4199985463571258
40
-0.4199985463571258
40
-0.4199985463571258
40
-0.4199985463571258
10
-22.46367867821289
20
-6.0718407939656469
30
0
10
-22.417442789824012
20
-6.1043996999251107
30
0
10
-22.38758346470377
20
-6.1333140137856077
30
0
10
-22.365015361728179
20
-6.1593978740021802
30
0
0
SPLINE
5
143
100
AcDbEntity
8
0
100
AcDbSpline
70
0
71
3
72
9
73
5
74
0
42
0.000000001
43
0.0000000001
44
0.0000000001
40
0.25808328419324
40
0.25808328419324
40
0.25808328419324
40
0.25808328419324
40
0.28663693805157542
40
0.3357664102683941
40
0.3357664102683941
40
0.3357664102683941
40
0.3357664102683941
10
-22.365015361733064
20
-6.1593978739963831
30
0
10
-22.372984571687649
20
-6.1622951090734963
30
0
10
-22.394363405602007
20
-6.1689242374924191
30
0
10
-22.414063734535368
20
-6.173378249094597
30
0
10
-22.427312989927486
20
-6.1752370179117824
30
0
0
SPLINE
5
144
100
AcDbEntity
8
0
100
AcDbSpline
70
0
71
3
72
8
73
4
74
0
42
0.000000001
43
0.0000000001
44
0.0000000001
40
-2.8779353019216929
40
-2.8779353019216929
40
-2.8779353019216929
40
-2.8779353019216929
40
-2.7790540150201295
40
-2.7790540150201295
40
-2.7790540150201295
40
-2.7790540150201295
10
-22.427312989927938
20
-6.1752370179117824
30
0
10
-22.43284902283256
20
-6.1379148971990807
30
0
10
-22.444936848366638
20
-6.1022301725250108
30
0
10
-22.4636785650913
20
-6.0718408736248222
30
0
0
SPLINE
5
145
100
AcDbEntity
8
0
100
AcDbSpline
70
0
71
3
72
11
73
7
74
0
42
0.000000001
43
0.0000000001
44
0.0000000001
40
-0.1441992018826985
40
-0.1441992018826985
40
-0.1441992018826985
40
-0.1441992018826985
40
-0.11107850465980001
40
-0.070651463411178506
40
-0.027442697996654299
40
-0.0029651974011310998
40
-0.0029651974011310998
40
-0.0029651974011310998
40
-0.0029651974011310998
10
-22.97823861742188
20
-6.3398878161130048
30
0
10
-22.970799987048846
20
-6.334299439651331
30
0
10
-22.962781984264886
20
-6.3236238870333468
30
0
10
-22.957069463450924
20
-6.3062171978251467
30
0
10
-22.956768192376781
20
-6.2927133387395182
30
0
10
-22.954067788920952
20
-6.2663654876717318
30
0
10
-22.959552267415457
20
-6.2469205406250818
30
0
0
SPLINE
5
146
100
AcDbEntity
8
0
100
AcDbSpline
70
0
71
3
72
10
73
6
74
0
42
0.000000001
43
0.0000000001
44
0.0000000001
40
1.4900432051379859
40
1.4900432051379859
40
1.4900432051379859
40
1.4900432051379859
40
1.610685903612636
40
1.7796524071497912
40
1.837001852978104
40
1.837001852978104
40
1.837001852978104
40
1.837001852978104
10
-22.959552267420008
20
-6.2469205406175501
30
0
10
-22.938335055079509
20
-6.2813910256536021
30
0
10
-22.900757432535325
20
-6.372817221680334
30
0
10
-22.900711350314278
20
-6.4920369614690543
30
0
10
-22.919483850094821
20
-6.5653624427458919
30
0
10
-22.925596106773806
20
-6.5835088767193071
30
0
0
SPLINE
5
147
100
AcDbEntity
8
0
100
AcDbSpline
70
0
71
3
72
9
73
5
74
0
42
0.000000001
43
0.0000000001
44
0.0000000001
40
1.4918810251072359
40
1.4918810251072359
40
1.4918810251072359
40
1.4918810251072359
40
1.610685903612636
40
1.743671386210444
40
1.743671386210444
40
1.743671386210444
40
1.743671386210444
10
-22.925596106773806
20
-6.5835088767193071
30
0
10
-22.946322966602565
20
-6.5494555453537506
30
0
10
-22.978786375954424
20
-6.4699236894621626
30
0
10
-22.982874645697851
20
-6.3842786532444906
30
0
10
-22.97823861742188
20
-6.3398878161130048
30
0
0
SPLINE
5
148
100
AcDbEntity
8
0
100
AcDbSpline
70
0
71
3
72
8
73
4
74
0
42
0.000000001
43
0.0000000001
44
0.0000000001
40
-0.25769488759108522
40
-0.25769488759108522
40
-0.25769488759108522
40
-0.25769488759108522
40
-0.14672335467677261
40
-0.14672335467677261
40
-0.14672335467677261
40
-0.14672335467677261
10
-21.942563480378343
20
-6.3697602354729232
30
0
10
-21.94486541568881
20
-6.33154804806746
30
0
10
-21.953201371113778
20
-6.2930905529232302
30
0
10
-21.96785331409637
20
-6.2587555793096632
30
0
0
SPLINE
5
149
100
AcDbEntity
8
0
100
AcDbSpline
70
0
71
3
72
9
73
5
74
0
42
0.000000001
43
0.0000000001
44
0.0000000001
40
-2.0862273153232809
40
-2.0862273153232809
40
-2.0862273153232809
40
-2.0862273153232809
40
-1.9512477598833
40
-1.929727788095865
40
-1.929727788095865
40
-1.929727788095865
40
-1.929727788095865
10
-21.96785331409637
20
-6.2587555793096072
30
0
10
-21.93376906047536
20
-6.2924014140777578
30
0
10
-21.862129351307658
20
-6.2989737121584559
30
0
10
-21.814196632935587
20
-6.2697978611800931
30
0
10
-21.808057083195305
20
-6.2652022561960479
30
0
0
SPLINE
5
150
100
AcDbEntity
8
0
100
AcDbSpline
70
0
71
3
72
9
73
5
74
0
42
0.000000001
43
0.0000000001
44
0.0000000001
40
0.018147090819520699
40
0.018147090819520699
40
0.018147090819520699
40
0.018147090819520699
40
0.094385805173617096
40
0.2201530075753638
40
0.2201530075753638
40
0.2201530075753638
40
0.2201530075753638
10
-21.808057083195422
20
-6.2652022561960479
30
0
10
-21.799831283092768
20
-6.3009317488091332
30
0
10
-21.836875923754178
20
-6.3608047524279643
30
0
10
-21.901632714243757
20
-6.3727277708282335
30
0
10
-21.942563480378343
20
-6.3697602354718423
30
0
0
SPLINE
5
151
100
AcDbEntity
8
0
100
AcDbSpline
70
0
71
3
72
9
73
5
74
0
42
0.000000001
43
0.0000000001
44
0.0000000001
40
-2.2288790488984902
40
-2.2288790488984902
40
-2.2288790488984902
40
-2.2288790488984902
40
-2.2022761565266871
40
-2.131327714107258
40
-2.131327714107258
40
-2.131327714107258
40
-2.131327714107258
10
-21.948412216880804
20
-6.1371174475469967
30
0
10
-21.95728074515057
20
-6.1396217887545816
30
0
10
-21.98980114775463
20
-6.1488050694354248
30
0
10
-21.996855849230997
20
-6.1894273665476316
30
0
10
-21.99110336871183
20
-6.2158804560286427
30
0
0
SPLINE
5
152
100
AcDbEntity
8
0
100
AcDbSpline
70
0
71
3
72
9
73
5
74
0
42
0.000000001
43
0.0000000001
44
0.0000000001
40
-0.097499957501703094
40
-0.097499957501703094
40
-0.097499957501703094
40
-0.097499957501703094
40
-0.064678272693209193
40
0
40
0
40
0
40
0
10
-21.99110336874719
20
-6.2158804560363166
30
0
10
-21.997110555589977
20
-6.2070611787010961
30
0
10
-22.01662926334177
20
-6.1824374192445761
30
0
10
-22.04523841688837
20
-6.1524074336465073
30
0
10
-22.09395357369544
20
-6.1391102335131915
30
0
0
SPLINE
5
153
100
AcDbEntity
8
0
100
AcDbSpline
70
0
71
3
72
16
73
12
74
0
42
0.000000001
43
0.0000000001
44
0.0000000001
40
1.2453746111653159
40
1.2453746111653159
40
1.2453746111653159
40
1.2453746111653159
40
1.2763616465142258
40
1.382069972189897
40
1.4810344113400791
40
1.5637427853571599
40
1.6306356199546381
40
1.6525148959487659
40
1.686027554012258
40
1.6975597437438119
40
1.709858738999835
40
1.709858738999835
40
1.709858738999835
40
1.709858738999835
10
-22.09395357369544
20
-6.1391102335131915
30
0
10
-22.090406451278458
20
-6.1291956055751919
30
0
10
-22.07167137641591
20
-6.0864968208196748
30
0
10
-22.017011117577105
20
-6.0243289794806989
30
0
10
-21.911566811651248
20
-6.0081799177269053
30
0
10
-21.838149698372717
20
-6.0788292727324196
30
0
10
-21.866364029802529
20
-6.1429744828710247
30
0
10
-21.902788066830002
20
-6.1626624662662399
30
0
10
-21.927598618010851
20
-6.1601207637697675
30
0
10
-21.943035651518585
20
-6.1480631675134552
30
0
10
-21.946581992081409
20
-6.1408434560261611
30
0
10
-21.948412216880449
20
-6.1371174475469967
30
0
0
SPLINE
5
154
100
AcDbEntity
8
0
100
AcDbSpline
70
0
71
3
72
13
73
9
74
0
42
0.000000001
43
0.0000000001
44
0.0000000001
40
-0.1723482240625841
40
-0.1723482240625841
40
-0.1723482240625841
40
-0.1723482240625841
40
-0.16837153496659851
40
-0.14859238636123251
40
-0.11107850465980001
40
-0.070651463411178506
40
-0.027442697996654299
40
0
40
0
40
0
40
0
10
-23.485100480927262
20
-6.511702083335237
30
0
10
-23.469857671468393
20
-6.5073499561446644
30
0
10
-23.456354392129693
20
-6.4916827720860359
30
0
10
-23.450258965448715
20
-6.4685693519023024
30
0
10
-23.451562905912624
20
-6.4394110473803723
30
0
10
-23.457225571441768
20
-6.4075969265379751
30
0
10
-23.467232819514944
20
-6.3862710294713301
30
0
10
-23.4829140471345
20
-6.3619434202914951
30
0
10
-23.499418369493235
20
-6.3454494031409592
30
0
0
SPLINE
5
155
100
AcDbEntity
8
0
100
AcDbSpline
70
0
71
3
72
12
73
8
74
0
42
0.000000001
43
0.0000000001
44
0.0000000001
40
0
40
0
40
0
40
0
40
0.0051661615117065997
40
0.031234881046250003
40
0.085472368064853199
40
0.18547569815651291
40
0.20847143296177209
40
0.20847143296177209
40
0.20847143296177209
40
0.20847143296177209
10
-23.499418369493235
20
-6.3454494031409592
30
0
10
-23.494216304895073
20
-6.3377801999869368
30
0
10
-23.487687995585819
20
-6.324492985782781
30
0
10
-23.488203350100996
20
-6.2835613015874818
30
0
10
-23.586725810496535
20
-6.219037521482262
30
0
10
-23.655998592670578
20
-6.2150437918737245
30
0
10
-23.695700552246645
20
-6.2174088247700032
30
0
10
-23.702856315668715
20
-6.2180245410959998
30
0
0
SPLINE
5
156
100
AcDbEntity
8
0
100
AcDbSpline
70
0
71
3
72
8
73
4
74
0
42
0.000000001
43
0.0000000001
44
0.0000000001
40
-0.42749708768481492
40
-0.42749708768481492
40
-0.42749708768481492
40
-0.42749708768481492
40
-0.36337357689626509
40
-0.36337357689626509
40
-0.36337357689626509
40
-0.36337357689626509
10
-23.702856315668836
20
-6.2180245410961117
30
0
10
-23.711222765849588
20
-6.2028833636586702
30
0
10
-23.720606009312238
20
-6.1880703684200427
30
0
10
-23.731739320573578
20
-6.1728638583969779
30
0
0
SPLINE
5
157
100
AcDbEntity
8
0
100
AcDbSpline
70
0
71
3
72
15
73
11
74
0
42
0.000000001
43
0.0000000001
44
0.0000000001
40
-0.66906013990743762
40
-0.66906013990743762
40
-0.66906013990743762
40
-0.66906013990743762
40
-0.66214109573659607
40
-0.53046608772822035
40
-0.40027902569551183
40
-0.28663693805157542
40
-0.17948181790986703
40
-0.097365479867766697
40
-0.046693804238453498
40
0
40
0
40
0
40
0
10
-23.731739320573528
20
-6.172863858396922
30
0
10
-23.730869683837962
20
-6.1724633983502448
30
0
10
-23.713363620385735
20
-6.1645213445240046
30
0
10
-23.673902742758965
20
-6.1510595577327782
30
0
10
-23.615172077842431
20
-6.1377022582255867
30
0
10
-23.489224440139306
20
-6.1381689806299127
30
0
10
-23.391116008012663
20
-6.2082922361020803
30
0
10
-23.34220327465664
20
-6.293944527852303
30
0
10
-23.360885514872731
20
-6.3631580690921359
30
0
10
-23.385863857834799
20
-6.3892365054670526
30
0
10
-23.397842783610827
20
-6.4017430057646569
30
0
0
SPLINE
5
158
100
AcDbEntity
8
0
100
AcDbSpline
70
0
71
3
72
9
73
5
74
0
42
0.000000001
43
0.0000000001
44
0.0000000001
40
-0.096009806494324196
40
-0.096009806494324196
40
-0.096009806494324196
40
-0.096009806494324196
40
-0.086246558398878098
40
-0.0797428054104415
40
-0.0797428054104415
40
-0.0797428054104415
40
-0.0797428054104415
10
-23.39784278361719
20
-6.4017430057584894
30
0
10
-23.393196853475732
20
-6.4021483250699163
30
0
10
-23.385427750933673
20
-6.4024350590238868
30
0
10
-23.377577073813647
20
-6.4016017936940672
30
0
10
-23.374474013721958
20
-6.4010821762512506
30
0
0
SPLINE
5
159
100
AcDbEntity
8
0
100
AcDbSpline
70
0
71
3
72
9
73
5
74
0
42
0.000000001
43
0.0000000001
44
0.0000000001
40
-3.3555921393321739
40
-3.3555921393321739
40
-3.3555921393321739
40
-3.3555921393321739
40
-3.0031254725388319
40
-2.9695018484689886
40
-2.9695018484689886
40
-2.9695018484689886
40
-2.9695018484689886
10
-23.374474013722139
20
-6.4010821762513066
30
0
10
-23.470723961621385
20
-6.4800169012093383
30
0
10
-23.488566464132209
20
-6.6726611508309137
30
0
10
-23.404920026355391
20
-6.7828259202456822
30
0
10
-23.39696529903587
20
-6.7917941911468942
30
0
0
SPLINE
5
160
100
AcDbEntity
8
0
100
AcDbSpline
70
0
71
3
72
9
73
5
74
0
42
0.000000001
43
0.0000000001
44
0.0000000001
40
-0.4234981886396636
40
-0.4234981886396636
40
-0.4234981886396636
40
-0.4234981886396636
40
-0.39407245546047709
40
-0.32826218802121127
40
-0.32826218802121127
40
-0.32826218802121127
40
-0.32826218802121127
10
-23.39696529903506
20
-6.7917941911472175
30
0
10
-23.423773250555826
20
-6.7810112357845043
30
0
10
-23.50214376824179
20
-6.7465761711899104
30
0
10
-23.570092507571083
20
-6.7152726604429196
30
0
10
-23.615830141017621
20
-6.6940927734751892
30
0
0
SPLINE
5
161
100
AcDbEntity
8
0
100
AcDbSpline
70
0
71
3
72
10
73
6
74
0
42
0.000000001
43
0.0000000001
44
0.0000000001
40
-0.32596543647269188
40
-0.32596543647269188
40
-0.32596543647269188
40
-0.32596543647269188
40
-0.22011188848095789
40
-0.077009031436567996
40
0
40
0
40
0
40
0
10
-23.615830141017621
20
-6.6940927734751892
30
0
10
-23.611690180764427
20
-6.6588775829880023
30
0
10
-23.61226931999726
20
-6.5759338626518371
30
0
10
-23.621358863651587
20
-6.4671844003588621
30
0
10
-23.637782689108128
20
-6.3956298737820259
30
0
10
-23.643528779878693
20
-6.3705955840641328
30
0
0
SPLINE
5
162
100
AcDbEntity
8
0
100
AcDbSpline
70
0
71
3
72
11
73
7
74
0
42
0.000000001
43
0.0000000001
44
0.0000000001
40
-0.2671477643520368
40
-0.2671477643520368
40
-0.2671477643520368
40
-0.2671477643520368
40
-0.17948181790986703
40
-0.097365479867766697
40
-0.046693804238453498
40
0
40
0
40
0
40
0
10
-23.643528779878693
20
-6.3705955840641622
30
0
10
-23.611863016870466
20
-6.3841251365212894
30
0
10
-23.558971918822976
20
-6.4256226163541452
30
0
10
-23.514032079966341
20
-6.5043178747225303
30
0
10
-23.532714320182439
20
-6.5735314159623623
30
0
10
-23.557692663144508
20
-6.5996098523372799
30
0
10
-23.569671588920531
20
-6.6121163526348843
30
0
0
SPLINE
5
163
100
AcDbEntity
8
0
100
AcDbSpline
70
0
71
3
72
11
73
7
74
0
42
0.000000001
43
0.0000000001
44
0.0000000001
40
-0.096009806494324196
40
-0.096009806494324196
40
-0.096009806494324196
40
-0.096009806494324196
40
-0.086246558398878098
40
-0.059694748457730699
40
-0.032497512981972898
40
-0.019941281194132202
40
-0.019941281194132202
40
-0.019941281194132202
40
-0.019941281194132202
10
-23.569671588926898
20
-6.6121163526287177
30
0
10
-23.56502565878543
20
-6.6125216719401427
30
0
10
-23.547681625410629
20
-6.6131617874799682
30
0
10
-23.516637196888038
20
-6.6045191103938086
30
0
10
-23.499907700730319
20
-6.5778546535577922
30
0
10
-23.486842839551855
20
-6.5478245021083552
30
0
10
-23.485100480927262
20
-6.5117020833358623
30
0
0
SPLINE
5
164
100
AcDbEntity
8
0
100
AcDbSpline
70
0
71
3
72
11
73
7
74
0
42
0.000000001
43
0.0000000001
44
0.0000000001
40
0.16181469542183879
40
0.16181469542183879
40
0.16181469542183879
40
0.16181469542183879
40
0.23498387129796741
40
0.32522504217708459
40
0.3859651684053087
40
0.42297077254566923
40
0.42297077254566923
40
0.42297077254566923
40
0.42297077254566923
10
-22.588438756269852
20
-6.1658464750278892
30
0
10
-22.612188919971121
20
-6.1601855517745463
30
0
10
-22.664623575343853
20
-6.1453614232259346
30
0
10
-22.735413052905869
20
-6.1216162034760515
30
0
10
-22.795548086881922
20
-6.1033990095871342
30
0
10
-22.824775943174927
20
-6.0888072343512221
30
0
10
-22.836143507318749
20
-6.0840356034249066
30
0
0
SPLINE
5
165
100
AcDbEntity
8
0
100
AcDbSpline
70
0
71
3
72
11
73
7
74
0
42
0.000000001
43
0.0000000001
44
0.0000000001
40
2.0436117963777329
40
2.0436117963777329
40
2.0436117963777329
40
2.0436117963777329
40
2.0573977150025717
40
2.1864793762859192
40
2.291492204926044
40
2.3475093193496051
40
2.3475093193496051
40
2.3475093193496051
40
2.3475093193496051
10
-22.836143507318749
20
-6.0840356034248781
30
0
10
-22.832184832674102
20
-6.081642516276176
30
0
10
-22.790349369557141
20
-6.0581768303380406
30
0
10
-22.703363168350855
20
-6.0431545453787825
30
0
10
-22.607372942088663
20
-6.0934471504068171
30
0
10
-22.590130837870785
20
-6.146651107482981
30
0
10
-22.588438756269852
20
-6.1658464750278892
30
0
0
SPLINE
5
166
100
AcDbEntity
8
0
100
AcDbSpline
70
0
71
3
72
12
73
8
74
0
42
0.000000001
43
0.0000000001
44
0.0000000001
40
-0.25245857390735299
40
-0.25245857390735299
40
-0.25245857390735299
40
-0.25245857390735299
40
-0.18547569815651291
40
-0.085472368064853199
40
-0.031234881046250003
40
-0.0051661615117065997
40
0
40
0
40
0
40
0
10
-23.805812591646596
20
-6.0912053596964455
30
0
10
-23.824047460580058
20
-6.0744799943281995
30
0
10
-23.874569064862268
20
-6.032759430830466
30
0
10
-23.95857211601265
20
-5.9798457429565826
30
0
10
-24.068846505037303
20
-5.964911145915563
30
0
10
-24.106147394276945
20
-5.9916262800613396
30
0
10
-24.108313892607605
20
-6.0052601317068621
30
0
10
-24.104751140888073
20
-6.0205225607022177
30
0
0
SPLINE
5
167
100
AcDbEntity
8
0
100
AcDbSpline
70
0
71
3
72
13
73
9
74
0
42
0.000000001
43
0.0000000001
44
0.0000000001
40
0
40
0
40
0
40
0
40
0.027442697996654299
40
0.070651463411178506
40
0.11107850465980001
40
0.14859238636123251
40
0.16837153496659851
40
0.1723482240625841
40
0.1723482240625841
40
0.1723482240625841
40
0.1723482240625841
10
-24.104751140888073
20
-6.0205225607022177
30
0
10
-24.130581142081734
20
-6.0222966088952736
30
0
10
-24.155748816758209
20
-6.0356095420996336
30
0
10
-24.16850030478281
20
-6.0410858105005483
30
0
10
-24.183034096496101
20
-6.0533384388409814
30
0
10
-24.192051860748052
20
-6.0688403044731132
30
0
10
-24.195306991214576
20
-6.0921419147395719
30
0
10
-24.186271552242378
20
-6.1199135983953985
30
0
10
-24.178368373103012
20
-6.1282845373214769
30
0
0
SPLINE
5
168
100
AcDbEntity
8
0
100
AcDbSpline
70
0
71
3
72
11
73
7
74
0
42
0.000000001
43
0.0000000001
44
0.0000000001
40
0.019941281194132202
40
0.019941281194132202
40
0.019941281194132202
40
0.019941281194132202
40
0.032497512981972898
40
0.059694748457730699
40
0.086246558398878098
40
0.096009806494324196
40
0.096009806494324196
40
0.096009806494324196
40
0.096009806494324196
10
-24.178368373103012
20
-6.1282845373214769
30
0
10
-24.228520722345426
20
-6.1536783110449962
30
0
10
-24.242635136279436
20
-6.2067824902138256
30
0
10
-24.236738282617303
20
-6.2514002632442063
30
0
10
-24.214033610772962
20
-6.2722813250272358
30
0
10
-24.194143903173828
20
-6.2757149311615441
30
0
10
-24.189646538351671
20
-6.276948892376323
30
0
0
SPLINE
5
169
100
AcDbEntity
8
0
100
AcDbSpline
70
0
71
3
72
12
73
8
74
0
42
0.000000001
43
0.0000000001
44
0.0000000001
40
0
40
0
40
0
40
0
40
0.046693804238453498
40
0.097365479867766697
40
0.17948181790986703
40
0.28663693805157542
40
0.38636084038027918
40
0.38636084038027918
40
0.38636084038027918
40
0.38636084038027918
10
-24.189646538359799
20
-6.2769488923798491
30
0
10
-24.209441931246424
20
-6.2534479577424946
30
0
10
-24.210876509465837
20
-6.1987062046412813
30
0
10
-24.170399015083603
20
-6.1613154566466184
30
0
10
-24.070655618061668
20
-6.1248600655307675
30
0
10
-23.980710487220218
20
-6.1351855094722056
30
0
10
-23.920321349953102
20
-6.16533980240966
30
0
10
-23.8951216512516
20
-6.1804211434323264
30
0
0
SPLINE
5
170
100
AcDbEntity
8
0
100
AcDbSpline
70
0
71
3
72
8
73
4
74
0
42
0.000000001
43
0.0000000001
44
0.0000000001
40
-0.73557603918960013
40
-0.73557603918960013
40
-0.73557603918960013
40
-0.73557603918960013
40
-0.66296245525539554
40
-0.66296245525539554
40
-0.66296245525539554
40
-0.66296245525539554
10
-23.895121651251717
20
-6.180421143432353
30
0
10
-23.91191293138127
20
-6.2007354570605031
30
0
10
-23.927371072220641
20
-6.2219578203913803
30
0
10
-23.941267876559486
20
-6.2438857444860911
30
0
0
SPLINE
5
171
100
AcDbEntity
8
0
100
AcDbSpline
70
0
71
3
72
12
73
8
74
0
42
0.000000001
43
0.0000000001
44
0.0000000001
40
-0.29836764348048261
40
-0.29836764348048261
40
-0.29836764348048261
40
-0.29836764348048261
40
-0.25873668890181462
40
-0.14740815788241191
40
-0.064435072888665401
40
-0.026136407399156202
40
-0.0106594254405227
40
-0.0106594254405227
40
-0.0106594254405227
40
-0.0106594254405227
10
-23.94126787655421
20
-6.2438857444885647
30
0
10
-23.952234394949759
20
-6.2403556252269947
30
0
10
-23.991213138936477
20
-6.2300764692190427
30
0
10
-24.033069439782924
20
-6.2253638819035331
30
0
10
-24.07459753933324
20
-6.2413970995229828
30
0
10
-24.109289144086123
20
-6.2710398950682
30
0
10
-24.122359662272967
20
-6.3152517739901404
30
0
10
-24.114818869914757
20
-6.3363537864519639
30
0
0
SPLINE
5
172
100
AcDbEntity
8
0
100
AcDbSpline
70
0
71
3
72
10
73
6
74
0
42
0.000000001
43
0.0000000001
44
0.0000000001
40
-0.10755625925550311
40
-0.10755625925550311
40
-0.10755625925550311
40
-0.10755625925550311
40
-0.089484093197522901
40
-0.050876576222851098
40
-0.0093594601165316992
40
-0.0093594601165316992
40
-0.0093594601165316992
40
-0.0093594601165316992
10
-24.114818869914757
20
-6.3363537864521069
30
0
10
-24.130474640995885
20
-6.3575493803095213
30
0
10
-24.138015433353647
20
-6.3881966951413878
30
0
10
-24.150585306286651
20
-6.4530071423072712
30
0
10
-24.105566832479209
20
-6.4816809558050599
30
0
10
-24.068882838533227
20
-6.4607907163981926
30
0
0
SPLINE
5
173
100
AcDbEntity
8
0
100
AcDbSpline
70
0
71
3
72
13
73
9
74
0
42
0.000000001
43
0.0000000001
44
0.0000000001
40
-1.0662530023578729
40
-1.0662530023578729
40
-1.0662530023578729
40
-1.0662530023578729
40
-1.0525688842865351
40
-1.0381916343772171
40
-1.0175894394961471
40
-0.99071790968607243
40
-0.92514983546833096
40
-0.85558348368624271
40
-0.85558348368624271
40
-0.85558348368624271
40
-0.85558348368624271
10
-24.068882838533227
20
-6.4607907163981926
30
0
10
-24.073426057979127
20
-6.460325670766891
30
0
10
-24.082742621313628
20
-6.4593720238807881
30
0
10
-24.098112199455837
20
-6.4525643847570517
30
0
10
-24.109055219439373
20
-6.4329019604789561
30
0
10
-24.102456101001227
20
-6.3940914891540066
30
0
10
-24.062131721966015
20
-6.3498059302702776
30
0
10
-24.015985092053533
20
-6.3449989396468274
30
0
10
-23.992043326864916
20
-6.3454226070645197
30
0
0
SPLINE
5
174
100
AcDbEntity
8
0
100
AcDbSpline
70
0
71
3
72
8
73
4
74
0
42
0.000000001
43
0.0000000001
44
0.0000000001
40
-0.5552921580251774
40
-0.5552921580251774
40
-0.5552921580251774
40
-0.5552921580251774
40
-0.34782665096924342
40
-0.34782665096924342
40
-0.34782665096924342
40
-0.34782665096924342
10
-23.992043326864859
20
-6.3454226070645197
30
0
10
-24.01708546453062
20
-6.4127794579740813
30
0
10
-24.026620096564621
20
-6.483444929081954
30
0
10
-24.015324983404067
20
-6.5526963743943014
30
0
0
SPLINE
5
175
100
AcDbEntity
8
0
100
AcDbSpline
70
0
71
3
72
10
73
6
74
0
42
0.000000001
43
0.0000000001
44
0.0000000001
40
-0.12895488890268519
40
-0.12895488890268519
40
-0.12895488890268519
40
-0.12895488890268519
40
-0.1123787981525257
40
-0.050045418293175999
40
-0.0088949931002092995
40
-0.0088949931002092995
40
-0.0088949931002092995
40
-0.0088949931002092995
10
-24.015324983404131
20
-6.5526963743942428
30
0
10
-24.02443824643467
20
-6.5528149465909413
30
0
10
-24.066225421176057
20
-6.5561869697080066
30
0
10
-24.116727833069721
20
-6.583865062091192
30
0
10
-24.139688741909477
20
-6.6382883367941607
30
0
10
-24.135084228957339
20
-6.6608353908575131
30
0
0
SPLINE
5
176
100
AcDbEntity
8
0
100
AcDbSpline
70
0
71
3
72
12
73
8
74
0
42
0.000000001
43
0.0000000001
44
0.0000000001
40
0.0233160110747145
40
0.0233160110747145
40
0.0233160110747145
40
0.0233160110747145
40
0.061487734850884698
40
0.1133302897542086
40
0.1538169210212548
40
0.19268407749979591
40
0.21233621096575339
40
0.21233621096575339
40
0.21233621096575339
40
0.21233621096575339
10
-24.135084228957339
20
-6.6608353908575131
30
0
10
-24.148765844596536
20
-6.6679974850627985
30
0
10
-24.170586189933829
20
-6.6915985551427033
30
0
10
-24.188339633057467
20
-6.7200450253105117
30
0
10
-24.19250088416533
20
-6.7575838683105038
30
0
10
-24.188676176770802
20
-6.7879715148775803
30
0
10
-24.166605301233691
20
-6.8166495727672753
30
0
10
-24.144588075256372
20
-6.825626823559432
30
0
0
SPLINE
5
177
100
AcDbEntity
8
0
100
AcDbSpline
70
0
71
3
72
10
73
6
74
0
42
0.000000001
43
0.0000000001
44
0.0000000001
40
0.015429522136234801
40
0.015429522136234801
40
0.015429522136234801
40
0.015429522136234801
40
0.094385805173617096
40
0.26219742275460239
40
0.30018202919668752
40
0.30018202919668752
40
0.30018202919668752
40
0.30018202919668752
10
-24.144588075256586
20
-6.8256268235594861
30
0
10
-24.166389877630248
20
-6.7929018381104651
30
0
10
-24.147606381799278
20
-6.708525334648284
30
0
10
-24.054297658029945
20
-6.6741162817561834
30
0
10
-23.987337975673196
20
-6.6710318950311338
30
0
10
-23.974850017383396
20
-6.671154951568937
30
0
0
SPLINE
5
178
100
AcDbEntity
8
0
100
AcDbSpline
70
0
71
3
72
15
73
11
74
0
42
0.000000001
43
0.0000000001
44
0.0000000001
40
-0.85286184175668045
40
-0.85286184175668045
40
-0.85286184175668045
40
-0.85286184175668045
40
-0.81793594367524114
40
-0.7696005943499048
40
-0.70964271124129441
40
-0.63520578026523022
40
-0.5437519427920503
40
-0.4943157213475497
40
-0.44137548627889689
40
-0.3960937170056173
40
-0.3960937170056173
40
-0.3960937170056173
40
-0.3960937170056173
10
-23.974850017383346
20
-6.671154951568937
30
0
10
-23.969119054960384
20
-6.6812961751309015
30
0
10
-23.955456784084369
20
-6.7054722441909265
30
0
10
-23.927708416392317
20
-6.7443940565900444
30
0
10
-23.885013669691048
20
-6.7886164679288301
30
0
10
-23.826214263926207
20
-6.8432550276146724
30
0
10
-23.753692581087108
20
-6.871955720225122
30
0
10
-23.682607035114369
20
-6.8482776455498922
30
0
10
-23.651065851668072
20
-6.8070976336353786
30
0
10
-23.636369279050427
20
-6.7775934119859329
30
0
10
-23.631143241505146
20
-6.763278202011838
30
0
0
SPLINE
5
179
100
AcDbEntity
8
0
100
AcDbSpline
70
0
71
3
72
10
73
6
74
0
42
0.000000001
43
0.0000000001
44
0.0000000001
40
0.5763024122106124
40
0.5763024122106124
40
0.5763024122106124
40
0.5763024122106124
40
0.64893824135827138
40
0.77216149222077979
40
0.91067081282829676
40
0.91067081282829676
40
0.91067081282829676
40
0.91067081282829676
10
-23.631143241505129
20
-6.7632782020118452
30
0
10
-23.593737220814262
20
-6.7765585047572889
30
0
10
-23.493662403134014
20
-6.8125309821719338
30
0
10
-23.369946973874161
20
-6.8564349051769833
30
0
10
-23.273073630980207
20
-6.8769616502400046
30
0
10
-23.224786576708198
20
-6.882383831635976
30
0
0
SPLINE
5
180
100
AcDbEntity
8
0
100
AcDbSpline
70
0
71
3
72
9
73
5
74
0
42
0.000000001
43
0.0000000001
44
0.0000000001
40
-2.7876058852089858
40
-2.7876058852089858
40
-2.7876058852089858
40
-2.7876058852089858
40
-2.582476130868169
40
-2.4417896526067282
40
-2.4417896526067282
40
-2.4417896526067282
40
-2.4417896526067282
10
-23.224786576708194
20
-6.8823838316359716
30
0
10
-23.149793199683906
20
-6.8957684079056163
30
0
10
-23.015105004010334
20
-6.8790195581168421
30
0
10
-22.930728868087048
20
-6.795894100638705
30
0
10
-22.903280950991867
20
-6.7568050578795873
30
0
0
SPLINE
5
181
100
AcDbEntity
8
0
100
AcDbSpline
70
0
71
3
72
10
73
6
74
0
42
0.000000001
43
0.0000000001
44
0.0000000001
40
-1.472710852156305
40
-1.472710852156305
40
-1.472710852156305
40
-1.472710852156305
40
-1.384300317426846
40
-0.68943434516545021
40
-0.55595302421953008
40
-0.55595302421953008
40
-0.55595302421953008
40
-0.55595302421953008
10
-22.903280950991764
20
-6.7568050578794736
30
0
10
-22.88040456811007
20
-6.7760665062543382
30
0
10
-22.6614057043023
20
-6.9290419942322341
30
0
10
-22.274630189353854
20
-6.9010490169114993
30
0
10
-22.065776905378357
20
-6.6924369778812842
30
0
10
-22.037346238867375
20
-6.655368384852081
30
0
0
SPLINE
5
182
100
AcDbEntity
8
0
100
AcDbSpline
70
0
71
3
72
12
73
8
74
0
42
0.000000001
43
0.0000000001
44
0.0000000001
40
-0.3300468424398072
40
-0.3300468424398072
40
-0.3300468424398072
40
-0.3300468424398072
40
-0.25873668890181462
40
-0.14740815788241191
40
-0.064435072888665401
40
-0.026136407399156202
40
-0.0106594254405227
40
-0.0106594254405227
40
-0.0106594254405227
40
-0.0106594254405227
10
-22.037346238860209
20
-6.6553683848576233
30
0
10
-22.044387896963258
20
-6.7014944004367987
30
0
10
-22.044060953174039
20
-6.7781380067476231
30
0
10
-22.01941074050637
20
-6.8251113335284535
30
0
10
-21.983425609065531
20
-6.8666502903278257
30
0
10
-21.916021719547416
20
-6.8776227624048971
30
0
10
-21.868261135100624
20
-6.8480781004856066
30
0
10
-21.862103435933928
20
-6.8294826057904592
30
0
0
SPLINE
5
183
100
AcDbEntity
8
0
100
AcDbSpline
70
0
71
3
72
10
73
6
74
0
42
0.000000001
43
0.0000000001
44
0.0000000001
40
-0.10755625925550311
40
-0.10755625925550311
40
-0.10755625925550311
40
-0.10755625925550311
40
-0.089484093197522901
40
-0.050876576222851098
40
-0.0093594601165316992
40
-0.0093594601165316992
40
-0.0093594601165316992
40
-0.0093594601165316992
10
-21.862103435933928
20
-6.8294826057903464
30
0
10
-21.83505368586555
20
-6.8295028777006461
30
0
10
-21.804433587380124
20
-6.8221001443354918
30
0
10
-21.766405379069852
20
-6.7993984461130452
30
0
10
-21.756920441011854
20
-6.750534530607224
30
0
10
-21.775246763682389
20
-6.7338119459085277
30
0
0
SPLINE
5
184
100
AcDbEntity
8
0
100
AcDbSpline
70
0
71
3
72
15
73
11
74
0
42
0.000000001
43
0.0000000001
44
0.0000000001
40
-2.2299268721688841
40
-2.2299268721688841
40
-2.2299268721688841
40
-2.2299268721688841
40
-2.2141469592164493
40
-2.1559395229002942
40
-2.1156345487083081
40
-2.0521293169823958
40
-1.9814984138487008
40
-1.9003118291334489
40
-1.7563762589283731
40
-1.7289227194881069
40
-1.7289227194881069
40
-1.7289227194881069
40
-1.7289227194881069
10
-21.775246763682389
20
-6.7338119459085277
30
0
10
-21.773912227613327
20
-6.7445359536326484
30
0
10
-21.790076654105984
20
-6.7788801764227582
30
0
10
-21.839676474747197
20
-6.7879860970608226
30
0
10
-21.898969163875108
20
-6.767311783364347
30
0
10
-21.9470257368198
20
-6.7282762032526611
30
0
10
-21.967535783486596
20
-6.6602641688194648
30
0
10
-21.973348655162564
20
-6.6021775637309323
30
0
10
-21.965854182387382
20
-6.5579436281625041
30
0
10
-21.961465612649821
20
-6.5289652724259923
30
0
10
-21.957341357040374
20
-6.4994685107751167
30
0
0
SPLINE
5
185
100
AcDbEntity
8
0
100
AcDbSpline
70
0
71
3
72
9
73
5
74
0
42
0.000000001
43
0.0000000001
44
0.0000000001
40
-0.78008109608763199
40
-0.78008109608763199
40
-0.78008109608763199
40
-0.78008109608763199
40
-0.74254552755225245
40
-0.64550192318911415
40
-0.64550192318911415
40
-0.64550192318911415
40
-0.64550192318911415
10
-21.957341357040715
20
-6.4994685107750296
30
0
10
-21.945462021018791
20
-6.5043915558681951
30
0
10
-21.902100636142002
20
-6.5200994165182493
30
0
10
-21.857177080341557
20
-6.528759241279956
30
0
10
-21.824648875730425
20
-6.5314420701763121
30
0
0
SPLINE
5
186
100
AcDbEntity
8
0
100
AcDbSpline
70
0
71
3
72
10
73
6
74
0
42
0.000000001
43
0.0000000001
44
0.0000000001
40
-0.49244754204914881
40
-0.49244754204914881
40
-0.49244754204914881
40
-0.49244754204914881
40
-0.39139438826271578
40
-0.21355277745582829
40
-0.15643136630861079
40
-0.15643136630861079
40
-0.15643136630861079
40
-0.15643136630861079
10
-21.824648875730425
20
-6.5314420701763121
30
0
10
-21.66835720944016
20
-6.5327641726197925
30
0
10
-21.551832272398091
20
-6.4770708177380936
30
0
10
-21.455084278321806
20
-6.4184603533879132
30
0
10
-21.394898397024917
20
-6.3685102586237994
30
0
10
-21.381960911897412
20
-6.3549419471716675
30
0
0
SPLINE
5
187
100
AcDbEntity
8
0
100
AcDbSpline
70
0
71
3
72
9
73
5
74
0
42
0.000000001
43
0.0000000001
44
0.0000000001
40
0.56789068482803273
40
0.56789068482803273
40
0.56789068482803273
40
0.56789068482803273
40
0.56991486737223263
40
0.58944041891846455
40
0.58944041891846455
40
0.58944041891846455
40
0.58944041891846455
10
-21.381960911897412
20
-6.3549419471717234
30
0
10
-21.380423250502076
20
-6.3539066324827465
30
0
10
-21.36345241890081
20
-6.3424585724504956
30
0
10
-21.339752698505439
20
-6.3262503826475278
30
0
10
-21.290333672659017
20
-6.2714378956376731
30
0
0
SPLINE
5
188
100
AcDbEntity
8
0
100
AcDbSpline
70
0
71
3
72
9
73
5
74
0
42
0.000000001
43
0.0000000001
44
0.0000000001
40
-0.042404314879401397
40
-0.042404314879401397
40
-0.042404314879401397
40
-0.042404314879401397
40
-0.034562795489387399
40
-0.0205051348034836
40
-0.0205051348034836
40
-0.0205051348034836
40
-0.0205051348034836
10
-21.290333672659017
20
-6.2714378956377592
30
0
10
-21.288301391500568
20
-6.2736416973900617
30
0
10
-21.281456346162148
20
-6.279381675036106
30
0
10
-21.270913330577514
20
-6.2840243831487461
30
0
10
-21.244594645226126
20
-6.2821382118345772
30
0
0
SPLINE
5
189
100
AcDbEntity
8
0
100
AcDbSpline
70
0
71
3
72
10
73
6
74
0
42
0.000000001
43
0.0000000001
44
0.0000000001
40
-0.099296183847028804
40
-0.099296183847028804
40
-0.099296183847028804
40
-0.099296183847028804
40
-0.072611178301129897
40
-0.037305807485716005
40
-0.0064051293640171999
40
-0.0064051293640171999
40
-0.0064051293640171999
40
-0.0064051293640171999
10
-21.244594645226126
20
-6.2821382118345772
30
0
10
-21.238966177417861
20
-6.3061653334735146
30
0
10
-21.231804681093418
20
-6.3281479479962126
30
0
10
-21.20149059533367
20
-6.3583643676551418
30
0
10
-21.15137515684944
20
-6.3553993773556812
30
0
10
-21.138516776481879
20
-6.3336541408697666
30
0
0
SPLINE
5
190
100
AcDbEntity
8
0
100
AcDbSpline
70
0
71
3
72
10
73
6
74
0
42
0.000000001
43
0.0000000001
44
0.0000000001
40
0.0051185278951529
40
0.0051185278951529
40
0.0051185278951529
40
0.0051185278951529
40
0.073472441293555193
40
0.2338092916888051
40
0.38341950393339591
40
0.38341950393339591
40
0.38341950393339591
40
0.38341950393339591
10
-21.138516776481879
20
-6.3336541408697666
30
0
10
-21.165551620202109
20
-6.3392548097212238
30
0
10
-21.221273154130234
20
-6.2437082046262029
30
0
10
-21.100365161166
20
-6.1115228708159597
30
0
10
-20.973505154103805
20
-6.0239535228453871
30
0
10
-20.851287404153034
20
-6.0274133789681761
30
0
0
SPLINE
5
191
100
AcDbEntity
8
0
100
AcDbSpline
70
0
71
3
72
13
73
9
74
0
42
0.000000001
43
0.0000000001
44
0.0000000001
40
-0.4404050581144085
40
-0.4404050581144085
40
-0.4404050581144085
40
-0.4404050581144085
40
-0.35497683372797378
40
-0.25873668890181462
40
-0.14740815788241191
40
-0.064435072888665401
40
-0.026136407399156202
40
-0.0106594254405227
40
-0.0106594254405227
40
-0.0106594254405227
40
-0.0106594254405227
10
-20.851287404153034
20
-6.027413378968232
30
0
10
-20.876861780431341
20
-6.0310152402640105
30
0
10
-20.930330296523824
20
-6.0478034196474786
30
0
10
-20.993549282432468
20
-6.0843977795748705
30
0
10
-21.030837713344674
20
-6.131361867781818
30
0
10
-21.05301392119679
20
-6.1753689096371271
30
0
10
-21.058849125486059
20
-6.2273290912147976
30
0
10
-21.030917645915338
20
-6.2573331820225775
30
0
10
-20.99736027137067
20
-6.269145760234478
30
0
0
SPLINE
5
192
100
AcDbEntity
8
0
100
AcDbSpline
70
0
71
3
72
10
73
6
74
0
42
0.000000001
43
0.0000000001
44
0.0000000001
40
-0.10755625925550311
40
-0.10755625925550311
40
-0.10755625925550311
40
-0.10755625925550311
40
-0.089484093197522901
40
-0.050876576222851098
40
-0.0093594601165316992
40
-0.0093594601165316992
40
-0.0093594601165316992
40
-0.0093594601165316992
10
-20.997360271370553
20
-6.2691457602345659
30
0
10
-20.994596822708328
20
-6.286306692901845
30
0
10
-20.978098157357977
20
-6.3144829850549913
30
0
10
-20.953501484310319
20
-6.3351644735231911
30
0
10
-20.90730635273065
20
-6.3315681049459007
30
0
10
-20.896507123465085
20
-6.3087875502332471
30
0
0
SPLINE
5
193
100
AcDbEntity
8
0
100
AcDbSpline
70
0
71
3
72
14
73
10
74
0
42
0.000000001
43
0.0000000001
44
0.0000000001
40
-2.2299268721688841
40
-2.2299268721688841
40
-2.2299268721688841
40
-2.2299268721688841
40
-2.2141469592164493
40
-2.1559395229002942
40
-2.1156345487083081
40
-2.0521293169823958
40
-1.9814984138487008
40
-1.9003118291334489
40
-1.764719247172164
40
-1.764719247172164
40
-1.764719247172164
40
-1.764719247172164
10
-20.896507123465085
20
-6.3087875502332471
30
0
10
-20.90520760256948
20
-6.3138835902922628
30
0
10
-20.940603504883139
20
-6.3126848007663465
30
0
10
-20.957399163180867
20
-6.2767151921213289
30
0
10
-20.963032792309718
20
-6.218565251021956
30
0
10
-20.95506771706107
20
-6.159503719202533
30
0
10
-20.902969806427219
20
-6.0996641108611822
30
0
10
-20.844009104246304
20
-6.0657801566250225
30
0
10
-20.76487758909002
20
-6.0547865069267024
30
0
10
-20.709602139418511
20
-6.0753569878089451
30
0
0
SPLINE
5
194
100
AcDbEntity
8
0
100
AcDbSpline
70
0
71
3
72
11
73
7
74
0
42
0.000000001
43
0.0000000001
44
0.0000000001
40
-0.23521431235077611
40
-0.23521431235077611
40
-0.23521431235077611
40
-0.23521431235077611
40
-0.14740815788241191
40
-0.064435072888665401
40
-0.026136407399156202
40
-0.0106594254405227
40
-0.0106594254405227
40
-0.0106594254405227
40
-0.0106594254405227
10
-20.709602139497516
20
-6.0753569877791023
30
0
10
-20.72951553693531
20
-6.0765817526565931
30
0
10
-20.766797743755426
20
-6.0845666996444692
30
0
10
-20.815931707259658
20
-6.1129920721282494
30
0
10
-20.845420263803021
20
-6.1582710133377088
30
0
10
-20.838947162979707
20
-6.1999563706304581
30
0
10
-20.817984731476141
20
-6.2199795446696413
30
0
0
SPLINE
5
195
100
AcDbEntity
8
0
100
AcDbSpline
70
0
71
3
72
10
73
6
74
0
42
0.000000001
43
0.0000000001
44
0.0000000001
40
-0.10755625925550311
40
-0.10755625925550311
40
-0.10755625925550311
40
-0.10755625925550311
40
-0.089484093197522901
40
-0.050876576222851098
40
-0.0093594601165316992
40
-0.0093594601165316992
40
-0.0093594601165316992
40
-0.0093594601165316992
10
-20.817984731476141
20
-6.2199795446697541
30
0
10
-20.824640006098655
20
-6.2377140845404844
30
0
10
-20.823308976146571
20
-6.2647592530500864
30
0
10
-20.817984731476141
20
-6.2957946934663891
30
0
10
-20.79003264465484
20
-6.3192929574879741
30
0
10
-20.771397892360142
20
-6.314415950743907
30
0
0
SPLINE
5
196
100
AcDbEntity
8
0
100
AcDbSpline
70
0
71
3
72
14
73
10
74
0
42
0.000000001
43
0.0000000001
44
0.0000000001
40
-2.2299268721688841
40
-2.2299268721688841
40
-2.2299268721688841
40
-2.2299268721688841
40
-2.2141469592164493
40
-2.1559395229002942
40
-2.1156345487083081
40
-2.0521293169823958
40
-1.9814984138487008
40
-1.9003118291334489
40
-1.8113208412082198
40
-1.8113208412082198
40
-1.8113208412082198
40
-1.8113208412082198
10
-20.771397892360142
20
-6.314415950743907
30
0
10
-20.7851520766352
20
-6.3042186046985051
30
0
10
-20.792694746179677
20
-6.2771734361889031
30
0
10
-20.784708399984424
20
-6.2381574519591672
30
0
10
-20.757266231427483
20
-6.1957723112191569
30
0
10
-20.71456061653998
20
-6.1542038445449094
30
0
10
-20.636641726699956
20
-6.1392499947070718
30
0
10
-20.580247988173941
20
-6.1473835292929513
30
0
10
-20.529121138025967
20
-6.1733725689672792
30
0
10
-20.50297257623242
20
-6.1977682412418034
30
0
0
SPLINE
5
197
100
AcDbEntity
8
0
100
AcDbSpline
70
0
71
3
72
9
73
5
74
0
42
0.000000001
43
0.0000000001
44
0.0000000001
40
-0.0318144295127517
40
-0.0318144295127517
40
-0.0318144295127517
40
-0.0318144295127517
40
-0.026136407399156202
40
-0.0106594254405227
40
-0.0106594254405227
40
-0.0106594254405227
40
-0.0106594254405227
10
-20.502972576232537
20
-6.1977682412419437
30
0
10
-20.506679266882891
20
-6.1984360752096972
30
0
10
-20.52124213694924
20
-6.2018194301513603
30
0
10
-20.539103533607321
20
-6.2089686754248552
30
0
10
-20.5649911903181
20
-6.2443955701838973
30
0
0
SPLINE
5
198
100
AcDbEntity
8
0
100
AcDbSpline
70
0
71
3
72
10
73
6
74
0
42
0.000000001
43
0.0000000001
44
0.0000000001
40
-0.10755625925550311
40
-0.10755625925550311
40
-0.10755625925550311
40
-0.10755625925550311
40
-0.089484093197522901
40
-0.050876576222851098
40
-0.0093594601165316992
40
-0.0093594601165316992
40
-0.0093594601165316992
40
-0.0093594601165316992
10
-20.564991190318207
20
-6.2443955701839533
30
0
10
-20.627884145243911
20
-6.2578628816723798
30
0
10
-20.671310266861731
20
-6.2847975046492897
30
0
10
-20.69826437256393
20
-6.317717605209098
30
0
10
-20.711741446225354
20
-6.3558749877597478
30
0
10
-20.703090979003715
20
-6.372389478463715
30
0
0
SPLINE
5
199
100
AcDbEntity
8
0
100
AcDbSpline
70
0
71
3
72
32
73
28
74
0
42
0.000000001
43
0.0000000001
44
0.0000000001
40
-2.2299268721688841
40
-2.2299268721688841
40
-2.2299268721688841
40
-2.2299268721688841
40
-2.2141469592164493
40
-2.1559395229002942
40
-2.1156345487083081
40
-2.0521293169823958
40
-1.9814984138487008
40
-1.9003118291334489
40
-1.7563762589283731
40
-1.6827981505370437
40
-1.6346809499478641
40
-1.5922475354719801
40
-1.5759372247019567
40
-1.5567180281606481
40
-1.5461153648073993
40
-1.532578581478959
40
-1.4898143461835589
40
-1.43409612535613
40
-1.3456681597712918
40
-1.2145453122687691
40
-1.0573657108478891
40
-0.77216149222077979
40
-0.64893824135827138
40
-0.50200406516578266
40
-0.26219742275460239
40
-0.094385805173617096
40
-0.015429522136234801
40
-0.015429522136234801
40
-0.015429522136234801
40
-0.015429522136234801
10
-20.703090978973357
20
-6.3723894784558723
30
0
10
-20.696705636115318
20
-6.3695553080659559
30
0
10
-20.674810210843468
20
-6.3446711426117153
30
0
10
-20.630769143790186
20
-6.3166074299996779
30
0
10
-20.502131704875747
20
-6.3021164076158556
30
0
10
-20.436591422350261
20
-6.3365264183351373
30
0
10
-20.360925199309239
20
-6.4416917938806781
30
0
10
-20.34036406180519
20
-6.5868028676683386
30
0
10
-20.410801276096212
20
-6.7418698676223254
30
0
10
-20.544269624543286
20
-6.7838898698681893
30
0
10
-20.61789941357415
20
-6.7717105438189389
30
0
10
-20.655421853264784
20
-6.7283638208182452
30
0
10
-20.643304367668286
20
-6.6949045283797224
30
0
10
-20.622460162956706
20
-6.6812609152014053
30
0
10
-20.633586061707781
20
-6.6606699171328616
30
0
10
-20.667229959572179
20
-6.6619409985671743
30
0
10
-20.690774515548128
20
-6.718715164873414
30
0
10
-20.666053905551276
20
-6.8025229871821997
30
0
10
-20.521854124454421
20
-6.8473828768068028
30
0
10
-20.350772682974711
20
-6.7672333315792201
30
0
10
-20.25808573351355
20
-6.5572643884404007
30
0
10
-20.270645486970352
20
-6.429826741873411
30
0
10
-20.313155453763219
20
-6.3207323851273278
30
0
10
-20.3575977447457
20
-6.2502555118276026
30
0
10
-20.400012150413662
20
-6.199984468927326
30
0
10
-20.414383862290261
20
-6.1055933263038886
30
0
10
-20.364583692577192
20
-6.0330009809864986
30
0
10
-20.314260714211056
20
-6.0492516560515952
30
0
0
SPLINE
5
200
100
AcDbEntity
8
0
100
AcDbSpline
70
0
71
3
72
10
73
6
74
0
42
0.000000001
43
0.0000000001
44
0.0000000001
40
0.0093594601165316992
40
0.0093594601165316992
40
0.0093594601165316992
40
0.0093594601165316992
40
0.050876576222851098
40
0.089484093197522901
40
0.10755625925550311
40
0.10755625925550311
40
0.10755625925550311
40
0.10755625925550311
10
-20.314260714211056
20
-6.0492516560515952
30
0
10
-20.315127872286102
20
-6.0348724356257852
30
0
10
-20.336036175778531
20
-6.018565581266941
30
0
10
-20.380794622361353
20
-6.0064840628987612
30
0
10
-20.405345168367042
20
-6.0156124942190408
30
0
10
-20.416764095469599
20
-6.0267385600942998
30
0
0
SPLINE
5
201
100
AcDbEntity
8
0
100
AcDbSpline
70
0
71
3
72
10
73
6
74
0
42
0.000000001
43
0.0000000001
44
0.0000000001
40
0.0106594254405227
40
0.0106594254405227
40
0.0106594254405227
40
0.0106594254405227
40
0.026136407399156202
40
0.064435072888665401
40
0.1107172315941649
40
0.1107172315941649
40
0.1107172315941649
40
0.1107172315941649
10
-20.416764095469823
20
-6.0267385600942998
30
0
10
-20.443314500000611
20
-6.0093365049537359
30
0
10
-20.507551017115809
20
-6.0241082059614381
30
0
10
-20.527203852214139
20
-6.0532368212797811
30
0
10
-20.530945852798819
20
-6.0788914574628876
30
0
10
-20.53094289368369
20
-6.092624390878866
30
0
0
SPLINE
5
202
100
AcDbEntity
8
0
100
AcDbSpline
70
0
71
3
72
14
73
10
74
0
42
0.000000001
43
0.0000000001
44
0.0000000001
40
-1.1835509444201915
40
-1.1835509444201915
40
-1.1835509444201915
40
-1.1835509444201915
40
-1.0573657108478891
40
-0.77216149222077979
40
-0.64893824135827138
40
-0.50200406516578266
40
-0.26219742275460239
40
-0.094385805173617096
40
-0.015429522136234801
40
-0.015429522136234801
40
-0.015429522136234801
40
-0.015429522136234801
10
-20.530942893684795
20
-6.092624390878866
30
0
10
-20.589093213146249
20
-6.0263435587430916
30
0
10
-20.745389909988386
20
-5.9545539341342018
30
0
10
-20.959472091623176
20
-5.931847075997764
30
0
10
-21.14470588628717
20
-6.0069600114029091
30
0
10
-21.264168280107469
20
-6.0686599145357283
30
0
10
-21.500819887186367
20
-6.1341326821863467
30
0
10
-21.654167245659551
20
-6.0733035903523795
30
0
10
-21.652447515068957
20
-5.9573882244916785
30
0
10
-21.622140091919732
20
-5.9627164411782996
30
0
0
SPLINE
5
203
100
AcDbEntity
8
0
100
AcDbSpline
70
0
71
3
72
12
73
8
74
0
42
0.000000001
43
0.0000000001
44
0.0000000001
40
-0.21233621096575339
40
-0.21233621096575339
40
-0.21233621096575339
40
-0.21233621096575339
40
-0.19268407749979591
40
-0.1538169210212548
40
-0.1133302897542086
40
-0.061487734850884698
40
-0.0233160110747145
40
-0.0233160110747145
40
-0.0233160110747145
40
-0.0233160110747145
10
-21.622140091919732
20
-5.9627164411782996
30
0
10
-21.629635628209481
20
-5.9485702509447673
30
0
10
-21.671010988529698
20
-5.9501267820088923
30
0
10
-21.680956009508812
20
-6.0003018096189589
30
0
10
-21.679714296138506
20
-6.0207700746536101
30
0
10
-21.670091724644752
20
-6.0672895049550961
30
0
10
-21.642471380543043
20
-6.0936510287748851
30
0
10
-21.630939568673853
20
-6.1045455616485214
30
0
0
SPLINE
5
204
100
AcDbEntity
8
0
100
AcDbSpline
70
0
71
3
72
12
73
8
74
0
42
0.000000001
43
0.0000000001
44
0.0000000001
40
0.0088949931002092995
40
0.0088949931002092995
40
0.0088949931002092995
40
0.0088949931002092995
40
0.050045418293175999
40
0.1123787981525257
40
0.28511905440017921
40
0.39407245546047709
40
0.44094302154004539
40
0.44094302154004539
40
0.44094302154004539
40
0.44094302154004539
10
-21.630939568674076
20
-6.1045455616485214
30
0
10
-21.641181582600321
20
-6.133893398110942
30
0
10
-21.61222901299141
20
-6.1923024039753463
30
0
10
-21.530951943071496
20
-6.2493373032688586
30
0
10
-21.406492098608737
20
-6.2244636051845399
30
0
10
-21.34778606317991
20
-6.199746697970637
30
0
10
-21.296764360490897
20
-6.1747785188145619
30
0
10
-21.260733064547928
20
-6.1566962209012228
30
0
0
SPLINE
5
205
100
AcDbEntity
8
0
100
AcDbSpline
70
0
71
3
72
8
73
4
74
0
42
0.000000001
43
0.0000000001
44
0.0000000001
40
-0.1160184366732306
40
-0.1160184366732306
40
-0.1160184366732306
40
-0.1160184366732306
40
-0.099521089367663906
40
-0.099521089367663906
40
-0.099521089367663906
40
-0.099521089367663906
10
-21.260733064547821
20
-6.1566962209012228
30
0
10
-21.272035290185837
20
-6.1716018649929492
30
0
10
-21.279839515298359
20
-6.1842711361915539
30
0
10
-21.285303068938443
20
-6.1953090057086913
30
0
0
SPLINE
5
206
100
AcDbEntity
8
0
100
AcDbSpline
70
0
71
3
72
15
73
11
74
0
42
0.000000001
43
0.0000000001
44
0.0000000001
40
1.725494427684916
40
1.725494427684916
40
1.725494427684916
40
1.725494427684916
40
1.7563762589283731
40
1.9003118291334489
40
1.9814984138487008
40
2.0521293169823958
40
2.1156345487083081
40
2.1559395229002942
40
2.2141469592164493
40
2.2299268721688841
40
2.2299268721688841
40
2.2299268721688841
40
2.2299268721688841
10
-21.285303068938557
20
-6.1953090057086078
30
0
10
-21.353278928927011
20
-6.2479347386900033
30
0
10
-21.414641162898192
20
-6.2976641259782138
30
0
10
-21.482174387101956
20
-6.3179644498931529
30
0
10
-21.546774595903457
20
-6.3241443757387232
30
0
10
-21.620078112313763
20
-6.306976335623558
30
0
10
-21.655584326293926
20
-6.2783617508572842
30
0
10
-21.677346838072818
20
-6.2314360114577712
30
0
10
-21.678464097255411
20
-6.1909460660239546
30
0
10
-21.650905980247323
20
-6.1662168860445226
30
0
10
-21.635779298793747
20
-6.1655282570512071
30
0
0
SPLINE
5
207
100
AcDbEntity
8
0
100
AcDbSpline
70
0
71
3
72
10
73
6
74
0
42
0.000000001
43
0.0000000001
44
0.0000000001
40
0.0093594601165316992
40
0.0093594601165316992
40
0.0093594601165316992
40
0.0093594601165316992
40
0.050876576222851098
40
0.089484093197522901
40
0.10755625925550311
40
0.10755625925550311
40
0.10755625925550311
40
0.10755625925550311
10
-21.635779298793747
20
-6.1655282570512071
30
0
10
-21.652680608039191
20
-6.150299777374002
30
0
10
-21.692409109440398
20
-6.1633351835526886
30
0
10
-21.705720954963905
20
-6.1890986445421117
30
0
10
-21.716182201566763
20
-6.2226843740899511
30
0
10
-21.715155454520175
20
-6.237736763915378
30
0
0
SPLINE
5
208
100
AcDbEntity
8
0
100
AcDbSpline
70
0
71
3
72
12
73
8
74
0
42
0.000000001
43
0.0000000001
44
0.0000000001
40
0.0106594254405227
40
0.0106594254405227
40
0.0106594254405227
40
0.0106594254405227
40
0.026136407399156202
40
0.064435072888665401
40
0.14740815788241191
40
0.25873668890181462
40
0.35217398109694259
40
0.35217398109694259
40
0.35217398109694259
40
0.35217398109694259
10
-21.715155454520175
20
-6.2377367639154917
30
0
10
-21.739460791629305
20
-6.246289392745366
30
0
10
-21.762762009725861
20
-6.2873728100689021
30
0
10
-21.757088030179482
20
-6.3560366785067535
30
0
10
-21.708548068568117
20
-6.4045414558883484
30
0
10
-21.654232457053013
20
-6.4213855012887811
30
0
10
-21.601066252851069
20
-6.4292466076592936
30
0
10
-21.574719960275957
20
-6.4274506866374113
30
0
0
SPLINE
5
209
100
AcDbEntity
8
0
100
AcDbSpline
70
0
71
3
72
11
73
7
74
0
42
0.000000001
43
0.0000000001
44
0.0000000001
40
0.49545960903212338
40
0.49545960903212338
40
0.49545960903212338
40
0.49545960903212338
40
0.58147498351979965
40
0.7057112923140556
40
0.8073031560531404
40
0.82891722959661784
40
0.82891722959661784
40
0.82891722959661784
40
0.82891722959661784
10
-21.574719960275957
20
-6.4274506866376688
30
0
10
-21.600230891315853
20
-6.4408465262251413
30
0
10
-21.664783857269637
20
-6.4685060399105083
30
0
10
-21.769661008157982
20
-6.480680446168221
30
0
10
-21.8524945580001
20
-6.4740109376683801
30
0
10
-21.892216641961337
20
-6.4631021414908352
30
0
10
-21.899120825581122
20
-6.4609622751165272
30
0
0
SPLINE
5
210
100
AcDbEntity
8
0
100
AcDbSpline
70
0
71
3
72
8
73
4
74
0
42
0.000000001
43
0.0000000001
44
0.0000000001
40
-0.043777088284490097
40
-0.043777088284490097
40
-0.043777088284490097
40
-0.043777088284490097
40
-0.0088949931002092995
40
-0.0088949931002092995
40
-0.0088949931002092995
40
-0.0088949931002092995
10
-21.899120825581228
20
-6.4609622751164988
30
0
10
-21.884741821261738
20
-6.4493530201776679
30
0
10
-21.873181318307839
20
-6.4337713734721973
30
0
10
-21.87076278789743
20
-6.4144148854308431
30
0
0
SPLINE
5
211
100
AcDbEntity
8
0
100
AcDbSpline
70
0
71
3
72
12
73
8
74
0
42
0.000000001
43
0.0000000001
44
0.0000000001
40
0.0233160110747145
40
0.0233160110747145
40
0.0233160110747145
40
0.0233160110747145
40
0.061487734850884698
40
0.1133302897542086
40
0.1538169210212548
40
0.19268407749979591
40
0.21127702839422061
40
0.21127702839422061
40
0.21127702839422061
40
0.21127702839422061
10
-21.87076278789743
20
-6.4144148854308431
30
0
10
-21.855508664421784
20
-6.4120078297823238
30
0
10
-21.827283020407663
20
-6.3966308665080032
30
0
10
-21.801359778862089
20
-6.3753618290233316
30
0
10
-21.785404186329625
20
-6.3411288067861022
30
0
10
-21.779368373095174
20
-6.3114363297476768
30
0
10
-21.790616048532801
20
-6.2781160300704197
30
0
10
-21.806234450748658
20
-6.2638105810418798
30
0
0
SPLINE
5
212
100
AcDbEntity
8
0
100
AcDbSpline
70
0
71
3
72
11
73
7
74
0
42
0.000000001
43
0.0000000001
44
0.0000000001
40
-1.9275825278798311
40
-1.9275825278798311
40
-1.9275825278798311
40
-1.9275825278798311
40
-1.6924516765068791
40
-1.425399984100481
40
-1.2814924492444599
40
-1.2154674029569321
40
-1.2154674029569321
40
-1.2154674029569321
40
-1.2154674029569321
10
-21.806234450748658
20
-6.2638105810418514
30
0
10
-21.740136800691399
20
-6.2123367445939968
30
0
10
-21.714195226053327
20
-5.9559241634800193
30
0
10
-22.022924340433409
20
-5.9297757267500648
30
0
10
-22.12865866145626
20
-6.058480860892371
30
0
10
-22.151668306761511
20
-6.125638069224423
30
0
10
-22.156483775496898
20
-6.1473053137115832
30
0
0
SPLINE
5
213
100
AcDbEntity
8
0
100
AcDbSpline
70
0
71
3
72
10
73
6
74
0
42
0.000000001
43
0.0000000001
44
0.0000000001
40
1.4627905086710382
40
1.4627905086710382
40
1.4627905086710382
40
1.4627905086710382
40
1.4898143461835589
40
1.532578581478959
40
1.5348454005124552
40
1.5348454005124552
40
1.5348454005124552
40
1.5348454005124552
10
-22.156483775497009
20
-6.1473053137117262
30
0
10
-22.167039135825238
20
-6.152429451737687
30
0
10
-22.192085543713908
20
-6.1712475972357632
30
0
10
-22.206820208828155
20
-6.2079341954498304
30
0
10
-22.197160359762211
20
-6.2303700191065943
30
0
10
-22.196625829457933
20
-6.2314678709438658
30
0
0
SPLINE
5
214
100
AcDbEntity
8
0
100
AcDbSpline
70
0
71
3
72
8
73
4
74
0
42
0.000000001
43
0.0000000001
44
0.0000000001
40
0.5045075218632018
40
0.5045075218632018
40
0.5045075218632018
40
0.5045075218632018
40
0.53514513916732986
40
0.53514513916732986
40
0.53514513916732986
40
0.53514513916732986
10
-22.196625829457922
20
-6.2314678709438791
30
0
10
-22.205291050934758
20
-6.2227368672984245
30
0
10
-22.213971463539096
20
-6.2136491756431784
30
0
10
-22.222610932915245
20
-6.2044134962154773
30
0
0
SPLINE
5
215
100
AcDbEntity
8
0
100
AcDbSpline
70
0
71
3
72
13
73
9
74
0
42
0.000000001
43
0.0000000001
44
0.0000000001
40
0.0048248580168243002
40
0.0048248580168243002
40
0.0048248580168243002
40
0.0048248580168243002
40
0.027442697996654299
40
0.070651463411178506
40
0.11107850465980001
40
0.14859238636123251
40
0.16837153496659851
40
0.1723482240625841
40
0.1723482240625841
40
0.1723482240625841
40
0.1723482240625841
10
-22.222610932915128
20
-6.2044134962156221
30
0
10
-22.214370561633238
20
-6.1970482569878556
30
0
10
-22.204433122949119
20
-6.1838665434370181
30
0
10
-22.194844320531839
20
-6.1694815737252355
30
0
10
-22.184786159382273
20
-6.1498342189092172
30
0
10
-22.18190108503666
20
-6.1338851060885835
30
0
10
-22.181561664525251
20
-6.115858249366668
30
0
10
-22.187006535226718
20
-6.0954492130635298
30
0
10
-22.200849235076358
20
-6.077759960111206
30
0
0
SPLINE
5
216
100
AcDbEntity
8
0
100
AcDbSpline
70
0
71
3
72
11
73
7
74
0
42
0.000000001
43
0.0000000001
44
0.0000000001
40
0.019941281194132202
40
0.019941281194132202
40
0.019941281194132202
40
0.019941281194132202
40
0.032497512981972898
40
0.059694748457730699
40
0.086246558398878098
40
0.096009806494324196
40
0.096009806494324196
40
0.096009806494324196
40
0.096009806494324196
10
-22.200849235076358
20
-6.077759960111206
30
0
10
-22.192785169430291
20
-6.0570393806801084
30
0
10
-22.198159327524877
20
-6.0171310613897457
30
0
10
-22.211215703190529
20
-5.9929562623373576
30
0
10
-22.229533096780301
20
-5.9659223528060883
30
0
10
-22.260493904413924
20
-5.9599272206026379
30
0
10
-22.277078113293324
20
-5.9626319007181916
30
0
0
SPLINE
5
217
100
AcDbEntity
8
0
100
AcDbSpline
70
0
71
3
72
11
73
7
74
0
42
0.000000001
43
0.0000000001
44
0.0000000001
40
0
40
0
40
0
40
0
40
0.046693804238453498
40
0.097365479867766697
40
0.17948181790986703
40
0.17948442583396829
40
0.17948442583396829
40
0.17948442583396829
40
0.17948442583396829
10
-22.277078113293324
20
-5.9626319007181916
30
0
10
-22.266843634675176
20
-5.9766019637050487
30
0
10
-22.245502796461441
20
-6.0057322071854591
30
0
10
-22.243881091176263
20
-6.0588250522000759
30
0
10
-22.27693595841561
20
-6.1022658196767008
30
0
10
-22.299091905402506
20
-6.121523590500491
30
0
10
-22.299093391121009
20
-6.1215248818750583
30
0
0
SPLINE
5
218
100
AcDbEntity
8
0
100
AcDbSpline
70
0
71
3
72
11
73
7
74
0
42
0.000000001
43
0.0000000001
44
0.0000000001
40
0.62880619057068798
40
0.62880619057068798
40
0.62880619057068798
40
0.62880619057068798
40
0.64893824135827138
40
0.77216149222077979
40
1.0573657108478891
40
1.1052288636592549
40
1.1052288636592549
40
1.1052288636592549
40
1.1052288636592549
10
-22.299093391120667
20
-6.1215248818754562
30
0
10
-22.304261190545954
20
-6.1161431730045166
30
0
10
-22.340406289536297
20
-6.0793280003995971
30
0
10
-22.436216679543783
20
-5.9970771036425372
30
0
10
-22.623816067813376
20
-5.9128044660069801
30
0
10
-22.851892873575672
20
-5.9638973902826526
30
0
10
-22.948812086796462
20
-6.0385890037501744
30
0
0
SPLINE
5
219
100
AcDbEntity
8
0
100
AcDbSpline
70
0
71
3
72
8
73
4
74
0
42
0.000000001
43
0.0000000001
44
0.0000000001
40
0.78595657761610327
40
0.78595657761610327
40
0.78595657761610327
40
0.78595657761610327
40
0.84787778082704679
40
0.84787778082704679
40
0.84787778082704679
40
0.84787778082704679
10
-22.948812086796352
20
-6.0385890037501744
30
0
10
-22.989237171339823
20
-6.0231951380177264
30
0
10
-23.048219881574937
20
-6.003515499707972
30
0
10
-23.149277104241161
20
-5.9785222538403167
30
0
0
SPLINE
5
220
100
AcDbEntity
8
0
100
AcDbSpline
70
0
71
3
72
9
73
5
74
0
42
0.000000001
43
0.0000000001
44
0.0000000001
40
-1.5095631240016532
40
-1.5095631240016532
40
-1.5095631240016532
40
-1.5095631240016532
40
-0.92917784733655662
40
-0.85105649362544711
40
-0.85105649362544711
40
-0.85105649362544711
40
-0.85105649362544711
10
-23.149277104241161
20
-5.9785222538403167
30
0
10
-23.334285657521487
20
-5.9093153112070933
30
0
10
-23.588846825743531
20
-5.9316230450537395
30
0
10
-23.783806693491211
20
-6.0730084676947476
30
0
10
-23.805812591647619
20
-6.091205359696529
30
0
0
ENDSEC
0
SECTION
2
OBJECTS
0
DICTIONARY
5
C
100
AcDbDictionary
3
ACAD_GROUP
350
D
3
ACAD_MLINESTYLE
350
17
0
DICTIONARY
5
D
100
AcDbDictionary
0
DICTIONARY
5
1A
330
C
100
AcDbDictionary
0
DICTIONARY
5
17
100
AcDbDictionary
0
ENDSEC
0
EOF
