  0
SECTION
  2
BLOCKS
  0
ENDSEC
  0
SECTION
  2
ENTITIES
  0
LINE
  8
0
 10
27
 20
31
 11
-13
 21
31
  0
LINE
  8
0
 10
-13
 20
31
 11
-13
 21
-9
  0
LINE
  8
0
 10
-13
 20
-9
 11
27
 21
-9
  0
LINE
  8
0
 10
27
 20
-9
 11
27
 21
31
  0
LINE
  8
0
 10
-12.95
 20
-8.95001
 11
-12.95
 21
30.95
  0
LINE
  8
0
 10
-12.95
 20
30.95
 11
26.95
 21
30.95
  0
LINE
  8
0
 10
26.95
 20
30.95
 11
26.95
 21
-8.95001
  0
LINE
  8
0
 10
26.95
 20
-8.95001
 11
-12.95
 21
-8.95001
  0
LINE
  8
0
 10
0.367218
 20
17.0226
 11
0.693161
 21
17.0812
  0
LINE
  8
0
 10
0.693161
 20
17.0812
 11
1.01067
 21
17.1754
  0
LINE
  8
0
 10
1.01067
 20
17.1754
 11
1.31584
 21
17.304
  0
LINE
  8
0
 10
1.31584
 20
17.304
 11
1.60498
 21
17.4655
  0
LINE
  8
0
 10
1.60498
 20
17.4655
 11
1.87457
 21
17.6578
  0
LINE
  8
0
 10
1.87457
 20
17.6578
 11
2.12131
 21
17.8787
  0
LINE
  8
0
 10
2.12131
 20
17.8787
 11
2.34221
 21
18.1254
  0
LINE
  8
0
 10
2.34221
 20
18.1254
 11
2.53455
 21
18.395
  0
LINE
  8
0
 10
2.53455
 20
18.395
 11
2.69601
 21
18.6842
  0
LINE
  8
0
 10
2.69601
 20
18.6842
 11
2.82463
 21
18.9893
  0
LINE
  8
0
 10
2.82463
 20
18.9893
 11
2.91881
 21
19.3068
  0
LINE
  8
0
 10
2.91881
 20
19.3068
 11
2.97743
 21
19.6328
  0
LINE
  8
0
 10
2.97743
 20
19.6328
 11
2.99977
 21
19.9632
  0
LINE
  8
0
 10
2.99977
 20
19.9632
 11
2.98555
 21
20.294
  0
LINE
  8
0
 10
2.98555
 20
20.294
 11
2.93495
 21
20.6213
  0
LINE
  8
0
 10
2.93495
 20
20.6213
 11
2.84857
 21
20.941
  0
LINE
  8
0
 10
2.84857
 20
20.941
 11
2.72749
 21
21.2493
  0
LINE
  8
0
 10
2.72749
 20
21.2493
 11
2.57318
 21
21.5423
  0
LINE
  8
0
 10
2.57318
 20
21.5423
 11
2.3875
 21
21.8165
  0
LINE
  8
0
 10
2.3875
 20
21.8165
 11
2.17273
 21
22.0686
  0
LINE
  8
0
 10
2.17273
 20
22.0686
 11
1.93149
 21
22.2955
  0
LINE
  8
0
 10
1.93149
 20
22.2955
 11
1.6667
 21
22.4944
  0
LINE
  8
0
 10
1.6667
 20
22.4944
 11
1.38161
 21
22.6629
  0
LINE
  8
0
 10
1.38161
 20
22.6629
 11
1.07968
 21
22.799
  0
LINE
  8
0
 10
1.07968
 20
22.799
 11
0.764587
 21
22.9009
  0
LINE
  8
0
 10
0.764587
 20
22.9009
 11
0.440186
 21
22.9675
  0
LINE
  8
0
 10
0.440186
 20
22.9675
 11
0.110413
 21
22.998
  0
LINE
  8
0
 10
0.110413
 20
22.998
 11
-0.220688
 21
22.9919
  0
LINE
  8
0
 10
-0.220688
 20
22.9919
 11
-0.549118
 21
22.9493
  0
LINE
  8
0
 10
-0.549118
 20
22.9493
 11
-0.87085
 21
22.8708
  0
LINE
  8
0
 10
-0.87085
 20
22.8708
 11
-1.18196
 21
22.7573
  0
LINE
  8
0
 10
-1.18196
 20
22.7573
 11
-1.47868
 21
22.6103
  0
LINE
  8
0
 10
-1.47868
 20
22.6103
 11
-1.75739
 21
22.4314
  0
LINE
  8
0
 10
-1.75739
 20
22.4314
 11
-2.02827
 21
22.2104
  0
LINE
  8
0
 10
-2.02827
 20
22.2104
 11
-2.25955
 21
21.9734
  0
LINE
  8
0
 10
-2.25955
 20
21.9734
 11
-2.4633
 21
21.7123
  0
LINE
  8
0
 10
-2.4633
 20
21.7123
 11
-2.63702
 21
21.4304
  0
LINE
  8
0
 10
-2.63702
 20
21.4304
 11
-2.77863
 21
21.131
  0
LINE
  8
0
 10
-2.77863
 20
21.131
 11
-2.88635
 21
20.8179
  0
LINE
  8
0
 10
-2.88635
 20
20.8179
 11
-2.95892
 21
20.4947
  0
LINE
  8
0
 10
-2.95892
 20
20.4947
 11
-2.99542
 21
20.1656
  0
LINE
  8
0
 10
-2.99542
 20
20.1656
 11
-2.99542
 21
19.8344
  0
LINE
  8
0
 10
-2.99542
 20
19.8344
 11
-2.95892
 21
19.5053
  0
LINE
  8
0
 10
-2.95892
 20
19.5053
 11
-2.88635
 21
19.1821
  0
LINE
  8
0
 10
-2.88635
 20
19.1821
 11
-2.77863
 21
18.869
  0
LINE
  8
0
 10
-2.77863
 20
18.869
 11
-2.63702
 21
18.5696
  0
LINE
  8
0
 10
-2.63702
 20
18.5696
 11
-2.4633
 21
18.2877
  0
LINE
  8
0
 10
-2.4633
 20
18.2877
 11
-2.25955
 21
18.0266
  0
LINE
  8
0
 10
-2.25955
 20
18.0266
 11
-2.02827
 21
17.7896
  0
LINE
  8
0
 10
-2.02827
 20
17.7896
 11
-1.77228
 21
17.5795
  0
LINE
  8
0
 10
-1.77228
 20
17.5795
 11
-1.49467
 21
17.3989
  0
LINE
  8
0
 10
-1.49467
 20
17.3989
 11
-1.19887
 21
17.25
  0
LINE
  8
0
 10
-1.19887
 20
17.25
 11
-0.888443
 21
17.1346
  0
LINE
  8
0
 10
-0.888443
 20
17.1346
 11
-0.5672
 21
17.0541
  0
LINE
  8
0
 10
-0.5672
 20
17.0541
 11
-0.294037
 21
17.0145
  0
LINE
  8
0
 10
-0.294037
 20
17.0145
 11
0.0368042
 21
17.0002
  0
LINE
  8
0
 10
0.0368042
 20
17.0002
 11
0.367218
 21
17.0226
  0
LINE
  8
0
 10
-0.372635
 20
17.1241
 11
-0.704636
 21
17.1869
  0
LINE
  8
0
 10
-0.704636
 20
17.1869
 11
-1.02707
 21
17.288
  0
LINE
  8
0
 10
-1.02707
 20
17.288
 11
-1.33556
 21
17.4259
  0
LINE
  8
0
 10
-1.33556
 20
17.4259
 11
-1.62592
 21
17.5987
  0
LINE
  8
0
 10
-1.62592
 20
17.5987
 11
-1.8942
 21
17.8041
  0
LINE
  8
0
 10
-1.8942
 20
17.8041
 11
-2.13676
 21
18.0393
  0
LINE
  8
0
 10
-2.13676
 20
18.0393
 11
-2.35031
 21
18.3012
  0
LINE
  8
0
 10
-2.35031
 20
18.3012
 11
-2.53197
 21
18.5861
  0
LINE
  8
0
 10
-2.53197
 20
18.5861
 11
-2.67924
 21
18.8902
  0
LINE
  8
0
 10
-2.67924
 20
18.8902
 11
-2.79015
 21
19.2094
  0
LINE
  8
0
 10
-2.79015
 20
19.2094
 11
-2.86316
 21
19.5393
  0
LINE
  8
0
 10
-2.86316
 20
19.5393
 11
-2.89732
 21
19.8755
  0
LINE
  8
0
 10
-2.89732
 20
19.8755
 11
-2.89214
 21
20.2133
  0
LINE
  8
0
 10
-2.89214
 20
20.2133
 11
-2.84769
 21
20.5483
  0
LINE
  8
0
 10
-2.84769
 20
20.5483
 11
-2.76459
 21
20.8758
  0
LINE
  8
0
 10
-2.76459
 20
20.8758
 11
-2.64394
 21
21.1914
  0
LINE
  8
0
 10
-2.64394
 20
21.1914
 11
-2.48741
 21
21.4909
  0
LINE
  8
0
 10
-2.48741
 20
21.4909
 11
-2.2971
 21
21.7701
  0
LINE
  8
0
 10
-2.2971
 20
21.7701
 11
-2.07561
 21
22.0253
  0
LINE
  8
0
 10
-2.07561
 20
22.0253
 11
-1.82594
 21
22.253
  0
LINE
  8
0
 10
-1.82594
 20
22.253
 11
-1.55148
 21
22.4501
  0
LINE
  8
0
 10
-1.55148
 20
22.4501
 11
-1.25597
 21
22.6139
  0
LINE
  8
0
 10
-1.25597
 20
22.6139
 11
-0.94339
 21
22.7422
  0
LINE
  8
0
 10
-0.94339
 20
22.7422
 11
-0.618011
 21
22.8334
  0
LINE
  8
0
 10
-0.618011
 20
22.8334
 11
-0.284241
 21
22.886
  0
LINE
  8
0
 10
-0.284241
 20
22.886
 11
0.0533752
 21
22.8995
  0
LINE
  8
0
 10
0.0533752
 20
22.8995
 11
0.390274
 21
22.8736
  0
LINE
  8
0
 10
0.390274
 20
22.8736
 11
0.721878
 21
22.8087
  0
LINE
  8
0
 10
0.721878
 20
22.8087
 11
1.04369
 21
22.7057
  0
LINE
  8
0
 10
1.04369
 20
22.7057
 11
1.35132
 21
22.5659
  0
LINE
  8
0
 10
1.35132
 20
22.5659
 11
1.64061
 21
22.3913
  0
LINE
  8
0
 10
1.64061
 20
22.3913
 11
1.90764
 21
22.1842
  0
LINE
  8
0
 10
1.90764
 20
22.1842
 11
2.14876
 21
21.9475
  0
LINE
  8
0
 10
2.14876
 20
21.9475
 11
2.3607
 21
21.6844
  0
LINE
  8
0
 10
2.3607
 20
21.6844
 11
2.54059
 21
21.3983
  0
LINE
  8
0
 10
2.54059
 20
21.3983
 11
2.686
 21
21.0933
  0
LINE
  8
0
 10
2.686
 20
21.0933
 11
2.79494
 21
20.7735
  0
LINE
  8
0
 10
2.79494
 20
20.7735
 11
2.86594
 21
20.4431
  0
LINE
  8
0
 10
2.86594
 20
20.4431
 11
2.89803
 21
20.1067
  0
LINE
  8
0
 10
2.89803
 20
20.1067
 11
2.89078
 21
19.7689
  0
LINE
  8
0
 10
2.89078
 20
19.7689
 11
2.84427
 21
19.4342
  0
LINE
  8
0
 10
2.84427
 20
19.4342
 11
2.75916
 21
19.1072
  0
LINE
  8
0
 10
2.75916
 20
19.1072
 11
2.63658
 21
18.7924
  0
LINE
  8
0
 10
2.63658
 20
18.7924
 11
2.47821
 21
18.4939
  0
LINE
  8
0
 10
2.47821
 20
18.4939
 11
2.28619
 21
18.2158
  0
LINE
  8
0
 10
2.28619
 20
18.2158
 11
2.06314
 21
17.962
  0
LINE
  8
0
 10
2.06314
 20
17.962
 11
1.81209
 21
17.7359
  0
LINE
  8
0
 10
1.81209
 20
17.7359
 11
1.53642
 21
17.5405
  0
LINE
  8
0
 10
1.53642
 20
17.5405
 11
1.2399
 21
17.3784
  0
LINE
  8
0
 10
1.2399
 20
17.3784
 11
0.926544
 21
17.252
  0
LINE
  8
0
 10
0.926544
 20
17.252
 11
0.600616
 21
17.1629
  0
LINE
  8
0
 10
0.600616
 20
17.1629
 11
0.301941
 21
17.1158
  0
LINE
  8
0
 10
0.301941
 20
17.1158
 11
-0.0355835
 21
17.1002
  0
LINE
  8
0
 10
-0.0355835
 20
17.1002
 11
-0.372635
 21
17.1241
  0
LINE
  8
0
 10
17.3672
 20
17.0226
 11
17.6932
 21
17.0812
  0
LINE
  8
0
 10
17.6932
 20
17.0812
 11
18.0107
 21
17.1754
  0
LINE
  8
0
 10
18.0107
 20
17.1754
 11
18.3158
 21
17.304
  0
LINE
  8
0
 10
18.3158
 20
17.304
 11
18.605
 21
17.4655
  0
LINE
  8
0
 10
18.605
 20
17.4655
 11
18.8746
 21
17.6578
  0
LINE
  8
0
 10
18.8746
 20
17.6578
 11
19.1213
 21
17.8787
  0
LINE
  8
0
 10
19.1213
 20
17.8787
 11
19.3422
 21
18.1254
  0
LINE
  8
0
 10
19.3422
 20
18.1254
 11
19.5345
 21
18.395
  0
LINE
  8
0
 10
19.5345
 20
18.395
 11
19.696
 21
18.6842
  0
LINE
  8
0
 10
19.696
 20
18.6842
 11
19.8246
 21
18.9893
  0
LINE
  8
0
 10
19.8246
 20
18.9893
 11
19.9188
 21
19.3068
  0
LINE
  8
0
 10
19.9188
 20
19.3068
 11
19.9774
 21
19.6328
  0
LINE
  8
0
 10
19.9774
 20
19.6328
 11
19.9998
 21
19.9632
  0
LINE
  8
0
 10
19.9998
 20
19.9632
 11
19.9855
 21
20.294
  0
LINE
  8
0
 10
19.9855
 20
20.294
 11
19.935
 21
20.6213
  0
LINE
  8
0
 10
19.935
 20
20.6213
 11
19.8486
 21
20.941
  0
LINE
  8
0
 10
19.8486
 20
20.941
 11
19.7275
 21
21.2493
  0
LINE
  8
0
 10
19.7275
 20
21.2493
 11
19.5732
 21
21.5423
  0
LINE
  8
0
 10
19.5732
 20
21.5423
 11
19.3875
 21
21.8165
  0
LINE
  8
0
 10
19.3875
 20
21.8165
 11
19.1727
 21
22.0686
  0
LINE
  8
0
 10
19.1727
 20
22.0686
 11
18.9315
 21
22.2955
  0
LINE
  8
0
 10
18.9315
 20
22.2955
 11
18.6667
 21
22.4944
  0
LINE
  8
0
 10
18.6667
 20
22.4944
 11
18.3816
 21
22.6629
  0
LINE
  8
0
 10
18.3816
 20
22.6629
 11
18.0797
 21
22.799
  0
LINE
  8
0
 10
18.0797
 20
22.799
 11
17.7646
 21
22.9009
  0
LINE
  8
0
 10
17.7646
 20
22.9009
 11
17.4402
 21
22.9675
  0
LINE
  8
0
 10
17.4402
 20
22.9675
 11
17.1104
 21
22.998
  0
LINE
  8
0
 10
17.1104
 20
22.998
 11
16.7793
 21
22.9919
  0
LINE
  8
0
 10
16.7793
 20
22.9919
 11
16.4509
 21
22.9493
  0
LINE
  8
0
 10
16.4509
 20
22.9493
 11
16.1292
 21
22.8708
  0
LINE
  8
0
 10
16.1292
 20
22.8708
 11
15.818
 21
22.7573
  0
LINE
  8
0
 10
15.818
 20
22.7573
 11
15.5213
 21
22.6103
  0
LINE
  8
0
 10
15.5213
 20
22.6103
 11
15.2426
 21
22.4314
  0
LINE
  8
0
 10
15.2426
 20
22.4314
 11
14.9717
 21
22.2104
  0
LINE
  8
0
 10
14.9717
 20
22.2104
 11
14.7404
 21
21.9734
  0
LINE
  8
0
 10
14.7404
 20
21.9734
 11
14.5367
 21
21.7123
  0
LINE
  8
0
 10
14.5367
 20
21.7123
 11
14.363
 21
21.4304
  0
LINE
  8
0
 10
14.363
 20
21.4304
 11
14.2214
 21
21.131
  0
LINE
  8
0
 10
14.2214
 20
21.131
 11
14.1136
 21
20.8179
  0
LINE
  8
0
 10
14.1136
 20
20.8179
 11
14.0411
 21
20.4947
  0
LINE
  8
0
 10
14.0411
 20
20.4947
 11
14.0046
 21
20.1656
  0
LINE
  8
0
 10
14.0046
 20
20.1656
 11
14.0046
 21
19.8344
  0
LINE
  8
0
 10
14.0046
 20
19.8344
 11
14.0411
 21
19.5053
  0
LINE
  8
0
 10
14.0411
 20
19.5053
 11
14.1136
 21
19.1821
  0
LINE
  8
0
 10
14.1136
 20
19.1821
 11
14.2214
 21
18.869
  0
LINE
  8
0
 10
14.2214
 20
18.869
 11
14.363
 21
18.5696
  0
LINE
  8
0
 10
14.363
 20
18.5696
 11
14.5367
 21
18.2877
  0
LINE
  8
0
 10
14.5367
 20
18.2877
 11
14.7404
 21
18.0266
  0
LINE
  8
0
 10
14.7404
 20
18.0266
 11
14.9717
 21
17.7896
  0
LINE
  8
0
 10
14.9717
 20
17.7896
 11
15.2277
 21
17.5795
  0
LINE
  8
0
 10
15.2277
 20
17.5795
 11
15.5053
 21
17.3989
  0
LINE
  8
0
 10
15.5053
 20
17.3989
 11
15.8011
 21
17.25
  0
LINE
  8
0
 10
15.8011
 20
17.25
 11
16.1116
 21
17.1346
  0
LINE
  8
0
 10
16.1116
 20
17.1346
 11
16.4328
 21
17.0541
  0
LINE
  8
0
 10
16.4328
 20
17.0541
 11
16.706
 21
17.0145
  0
LINE
  8
0
 10
16.706
 20
17.0145
 11
17.0368
 21
17.0002
  0
LINE
  8
0
 10
17.0368
 20
17.0002
 11
17.3672
 21
17.0226
  0
LINE
  8
0
 10
16.6274
 20
17.1241
 11
16.2954
 21
17.1869
  0
LINE
  8
0
 10
16.2954
 20
17.1869
 11
15.9729
 21
17.288
  0
LINE
  8
0
 10
15.9729
 20
17.288
 11
15.6644
 21
17.4259
  0
LINE
  8
0
 10
15.6644
 20
17.4259
 11
15.3741
 21
17.5987
  0
LINE
  8
0
 10
15.3741
 20
17.5987
 11
15.1058
 21
17.8041
  0
LINE
  8
0
 10
15.1058
 20
17.8041
 11
14.8632
 21
18.0393
  0
LINE
  8
0
 10
14.8632
 20
18.0393
 11
14.6497
 21
18.3012
  0
LINE
  8
0
 10
14.6497
 20
18.3012
 11
14.468
 21
18.5861
  0
LINE
  8
0
 10
14.468
 20
18.5861
 11
14.3208
 21
18.8902
  0
LINE
  8
0
 10
14.3208
 20
18.8902
 11
14.2099
 21
19.2094
  0
LINE
  8
0
 10
14.2099
 20
19.2094
 11
14.1368
 21
19.5393
  0
LINE
  8
0
 10
14.1368
 20
19.5393
 11
14.1027
 21
19.8755
  0
LINE
  8
0
 10
14.1027
 20
19.8755
 11
14.1079
 21
20.2133
  0
LINE
  8
0
 10
14.1079
 20
20.2133
 11
14.1523
 21
20.5483
  0
LINE
  8
0
 10
14.1523
 20
20.5483
 11
14.2354
 21
20.8758
  0
LINE
  8
0
 10
14.2354
 20
20.8758
 11
14.3561
 21
21.1914
  0
LINE
  8
0
 10
14.3561
 20
21.1914
 11
14.5126
 21
21.4909
  0
LINE
  8
0
 10
14.5126
 20
21.4909
 11
14.7029
 21
21.7701
  0
LINE
  8
0
 10
14.7029
 20
21.7701
 11
14.9244
 21
22.0253
  0
LINE
  8
0
 10
14.9244
 20
22.0253
 11
15.1741
 21
22.253
  0
LINE
  8
0
 10
15.1741
 20
22.253
 11
15.4485
 21
22.4501
  0
LINE
  8
0
 10
15.4485
 20
22.4501
 11
15.744
 21
22.6139
  0
LINE
  8
0
 10
15.744
 20
22.6139
 11
16.0566
 21
22.7422
  0
LINE
  8
0
 10
16.0566
 20
22.7422
 11
16.382
 21
22.8334
  0
LINE
  8
0
 10
16.382
 20
22.8334
 11
16.7158
 21
22.886
  0
LINE
  8
0
 10
16.7158
 20
22.886
 11
17.0534
 21
22.8995
  0
LINE
  8
0
 10
17.0534
 20
22.8995
 11
17.3903
 21
22.8736
  0
LINE
  8
0
 10
17.3903
 20
22.8736
 11
17.7219
 21
22.8087
  0
LINE
  8
0
 10
17.7219
 20
22.8087
 11
18.0437
 21
22.7057
  0
LINE
  8
0
 10
18.0437
 20
22.7057
 11
18.3513
 21
22.5659
  0
LINE
  8
0
 10
18.3513
 20
22.5659
 11
18.6406
 21
22.3913
  0
LINE
  8
0
 10
18.6406
 20
22.3913
 11
18.9076
 21
22.1842
  0
LINE
  8
0
 10
18.9076
 20
22.1842
 11
19.1488
 21
21.9475
  0
LINE
  8
0
 10
19.1488
 20
21.9475
 11
19.3607
 21
21.6844
  0
LINE
  8
0
 10
19.3607
 20
21.6844
 11
19.5406
 21
21.3983
  0
LINE
  8
0
 10
19.5406
 20
21.3983
 11
19.686
 21
21.0933
  0
LINE
  8
0
 10
19.686
 20
21.0933
 11
19.7949
 21
20.7735
  0
LINE
  8
0
 10
19.7949
 20
20.7735
 11
19.8659
 21
20.4431
  0
LINE
  8
0
 10
19.8659
 20
20.4431
 11
19.898
 21
20.1067
  0
LINE
  8
0
 10
19.898
 20
20.1067
 11
19.8908
 21
19.7689
  0
LINE
  8
0
 10
19.8908
 20
19.7689
 11
19.8443
 21
19.4342
  0
LINE
  8
0
 10
19.8443
 20
19.4342
 11
19.7592
 21
19.1072
  0
LINE
  8
0
 10
19.7592
 20
19.1072
 11
19.6366
 21
18.7924
  0
LINE
  8
0
 10
19.6366
 20
18.7924
 11
19.4782
 21
18.4939
  0
LINE
  8
0
 10
19.4782
 20
18.4939
 11
19.2862
 21
18.2158
  0
LINE
  8
0
 10
19.2862
 20
18.2158
 11
19.0631
 21
17.962
  0
LINE
  8
0
 10
19.0631
 20
17.962
 11
18.8121
 21
17.7359
  0
LINE
  8
0
 10
18.8121
 20
17.7359
 11
18.5364
 21
17.5405
  0
LINE
  8
0
 10
18.5364
 20
17.5405
 11
18.2399
 21
17.3784
  0
LINE
  8
0
 10
18.2399
 20
17.3784
 11
17.9265
 21
17.252
  0
LINE
  8
0
 10
17.9265
 20
17.252
 11
17.6006
 21
17.1629
  0
LINE
  8
0
 10
17.6006
 20
17.1629
 11
17.3019
 21
17.1158
  0
LINE
  8
0
 10
17.3019
 20
17.1158
 11
16.9644
 21
17.1002
  0
LINE
  8
0
 10
16.9644
 20
17.1002
 11
16.6274
 21
17.1241
  0
LINE
  8
0
 10
0.367218
 20
-2.97743
 11
0.693161
 21
-2.91881
  0
LINE
  8
0
 10
0.693161
 20
-2.91881
 11
1.01067
 21
-2.82463
  0
LINE
  8
0
 10
1.01067
 20
-2.82463
 11
1.31584
 21
-2.69601
  0
LINE
  8
0
 10
1.31584
 20
-2.69601
 11
1.60498
 21
-2.53455
  0
LINE
  8
0
 10
1.60498
 20
-2.53455
 11
1.87457
 21
-2.34221
  0
LINE
  8
0
 10
1.87457
 20
-2.34221
 11
2.12131
 21
-2.12131
  0
LINE
  8
0
 10
2.12131
 20
-2.12131
 11
2.34221
 21
-1.87457
  0
LINE
  8
0
 10
2.34221
 20
-1.87457
 11
2.53455
 21
-1.60498
  0
LINE
  8
0
 10
2.53455
 20
-1.60498
 11
2.69601
 21
-1.31584
  0
LINE
  8
0
 10
2.69601
 20
-1.31584
 11
2.82463
 21
-1.01067
  0
LINE
  8
0
 10
2.82463
 20
-1.01067
 11
2.91881
 21
-0.693161
  0
LINE
  8
0
 10
2.91881
 20
-0.693161
 11
2.97743
 21
-0.367218
  0
LINE
  8
0
 10
2.97743
 20
-0.367218
 11
2.99977
 21
-0.0368042
  0
LINE
  8
0
 10
2.99977
 20
-0.0368042
 11
2.98555
 21
0.294037
  0
LINE
  8
0
 10
2.98555
 20
0.294037
 11
2.93495
 21
0.621323
  0
LINE
  8
0
 10
2.93495
 20
0.621323
 11
2.84857
 21
0.94104
  0
LINE
  8
0
 10
2.84857
 20
0.94104
 11
2.72749
 21
1.24928
  0
LINE
  8
0
 10
2.72749
 20
1.24928
 11
2.57318
 21
1.5423
  0
LINE
  8
0
 10
2.57318
 20
1.5423
 11
2.3875
 21
1.81653
  0
LINE
  8
0
 10
2.3875
 20
1.81653
 11
2.17273
 21
2.06862
  0
LINE
  8
0
 10
2.17273
 20
2.06862
 11
1.93149
 21
2.2955
  0
LINE
  8
0
 10
1.93149
 20
2.2955
 11
1.6667
 21
2.4944
  0
LINE
  8
0
 10
1.6667
 20
2.4944
 11
1.38161
 21
2.66292
  0
LINE
  8
0
 10
1.38161
 20
2.66292
 11
1.07968
 21
2.79897
  0
LINE
  8
0
 10
1.07968
 20
2.79897
 11
0.764587
 21
2.90092
  0
LINE
  8
0
 10
0.764587
 20
2.90092
 11
0.440186
 21
2.96753
  0
LINE
  8
0
 10
0.440186
 20
2.96753
 11
0.110413
 21
2.99796
  0
LINE
  8
0
 10
0.110413
 20
2.99796
 11
-0.220688
 21
2.99187
  0
LINE
  8
0
 10
-0.220688
 20
2.99187
 11
-0.549118
 21
2.94931
  0
LINE
  8
0
 10
-0.549118
 20
2.94931
 11
-0.87085
 21
2.87082
  0
LINE
  8
0
 10
-0.87085
 20
2.87082
 11
-1.18196
 21
2.75734
  0
LINE
  8
0
 10
-1.18196
 20
2.75734
 11
-1.47868
 21
2.61026
  0
LINE
  8
0
 10
-1.47868
 20
2.61026
 11
-1.75739
 21
2.43137
  0
LINE
  8
0
 10
-1.75739
 20
2.43137
 11
-2.02827
 21
2.21045
  0
LINE
  8
0
 10
-2.02827
 20
2.21045
 11
-2.25955
 21
1.97342
  0
LINE
  8
0
 10
-2.25955
 20
1.97342
 11
-2.4633
 21
1.71234
  0
LINE
  8
0
 10
-2.4633
 20
1.71234
 11
-2.63702
 21
1.43039
  0
LINE
  8
0
 10
-2.63702
 20
1.43039
 11
-2.77863
 21
1.13101
  0
LINE
  8
0
 10
-2.77863
 20
1.13101
 11
-2.88635
 21
0.817856
  0
LINE
  8
0
 10
-2.88635
 20
0.817856
 11
-2.95892
 21
0.494736
  0
LINE
  8
0
 10
-2.95892
 20
0.494736
 11
-2.99542
 21
0.165573
  0
LINE
  8
0
 10
-2.99542
 20
0.165573
 11
-2.99542
 21
-0.165573
  0
LINE
  8
0
 10
-2.99542
 20
-0.165573
 11
-2.95892
 21
-0.494736
  0
LINE
  8
0
 10
-2.95892
 20
-0.494736
 11
-2.88635
 21
-0.817856
  0
LINE
  8
0
 10
-2.88635
 20
-0.817856
 11
-2.77863
 21
-1.13101
  0
LINE
  8
0
 10
-2.77863
 20
-1.13101
 11
-2.63702
 21
-1.43039
  0
LINE
  8
0
 10
-2.63702
 20
-1.43039
 11
-2.4633
 21
-1.71234
  0
LINE
  8
0
 10
-2.4633
 20
-1.71234
 11
-2.25955
 21
-1.97342
  0
LINE
  8
0
 10
-2.25955
 20
-1.97342
 11
-2.02827
 21
-2.21045
  0
LINE
  8
0
 10
-2.02827
 20
-2.21045
 11
-1.77228
 21
-2.42053
  0
LINE
  8
0
 10
-1.77228
 20
-2.42053
 11
-1.49467
 21
-2.60114
  0
LINE
  8
0
 10
-1.49467
 20
-2.60114
 11
-1.19887
 21
-2.75003
  0
LINE
  8
0
 10
-1.19887
 20
-2.75003
 11
-0.888443
 21
-2.86542
  0
LINE
  8
0
 10
-0.888443
 20
-2.86542
 11
-0.5672
 21
-2.94588
  0
LINE
  8
0
 10
-0.5672
 20
-2.94588
 11
-0.294037
 21
-2.98555
  0
LINE
  8
0
 10
-0.294037
 20
-2.98555
 11
0.0368042
 21
-2.99977
  0
LINE
  8
0
 10
0.0368042
 20
-2.99977
 11
0.367218
 21
-2.97743
  0
LINE
  8
0
 10
-0.372635
 20
-2.87595
 11
-0.704636
 21
-2.81308
  0
LINE
  8
0
 10
-0.704636
 20
-2.81308
 11
-1.02707
 21
-2.71202
  0
LINE
  8
0
 10
-1.02707
 20
-2.71202
 11
-1.33556
 21
-2.57414
  0
LINE
  8
0
 10
-1.33556
 20
-2.57414
 11
-1.62592
 21
-2.40132
  0
LINE
  8
0
 10
-1.62592
 20
-2.40132
 11
-1.8942
 21
-2.19589
  0
LINE
  8
0
 10
-1.8942
 20
-2.19589
 11
-2.13676
 21
-1.96066
  0
LINE
  8
0
 10
-2.13676
 20
-1.96066
 11
-2.35031
 21
-1.69881
  0
LINE
  8
0
 10
-2.35031
 20
-1.69881
 11
-2.53197
 21
-1.41389
  0
LINE
  8
0
 10
-2.53197
 20
-1.41389
 11
-2.67924
 21
-1.10977
  0
LINE
  8
0
 10
-2.67924
 20
-1.10977
 11
-2.79015
 21
-0.790588
  0
LINE
  8
0
 10
-2.79015
 20
-0.790588
 11
-2.86316
 21
-0.460678
  0
LINE
  8
0
 10
-2.86316
 20
-0.460678
 11
-2.89732
 21
-0.124512
  0
LINE
  8
0
 10
-2.89732
 20
-0.124512
 11
-2.89214
 21
0.213333
  0
LINE
  8
0
 10
-2.89214
 20
0.213333
 11
-2.84769
 21
0.548294
  0
LINE
  8
0
 10
-2.84769
 20
0.548294
 11
-2.76459
 21
0.875809
  0
LINE
  8
0
 10
-2.76459
 20
0.875809
 11
-2.64394
 21
1.19144
  0
LINE
  8
0
 10
-2.64394
 20
1.19144
 11
-2.48741
 21
1.49089
  0
LINE
  8
0
 10
-2.48741
 20
1.49089
 11
-2.2971
 21
1.7701
  0
LINE
  8
0
 10
-2.2971
 20
1.7701
 11
-2.07561
 21
2.02528
  0
LINE
  8
0
 10
-2.07561
 20
2.02528
 11
-1.82594
 21
2.25298
  0
LINE
  8
0
 10
-1.82594
 20
2.25298
 11
-1.55148
 21
2.45007
  0
LINE
  8
0
 10
-1.55148
 20
2.45007
 11
-1.25597
 21
2.61391
  0
LINE
  8
0
 10
-1.25597
 20
2.61391
 11
-0.94339
 21
2.74225
  0
LINE
  8
0
 10
-0.94339
 20
2.74225
 11
-0.618011
 21
2.83337
  0
LINE
  8
0
 10
-0.618011
 20
2.83337
 11
-0.284241
 21
2.88603
  0
LINE
  8
0
 10
-0.284241
 20
2.88603
 11
0.0533752
 21
2.89951
  0
LINE
  8
0
 10
0.0533752
 20
2.89951
 11
0.390274
 21
2.87361
  0
LINE
  8
0
 10
0.390274
 20
2.87361
 11
0.721878
 21
2.8087
  0
LINE
  8
0
 10
0.721878
 20
2.8087
 11
1.04369
 21
2.70567
  0
LINE
  8
0
 10
1.04369
 20
2.70567
 11
1.35132
 21
2.5659
  0
LINE
  8
0
 10
1.35132
 20
2.5659
 11
1.64061
 21
2.3913
  0
LINE
  8
0
 10
1.64061
 20
2.3913
 11
1.90764
 21
2.18423
  0
LINE
  8
0
 10
1.90764
 20
2.18423
 11
2.14876
 21
1.94751
  0
LINE
  8
0
 10
2.14876
 20
1.94751
 11
2.3607
 21
1.68436
  0
LINE
  8
0
 10
2.3607
 20
1.68436
 11
2.54059
 21
1.39833
  0
LINE
  8
0
 10
2.54059
 20
1.39833
 11
2.686
 21
1.09331
  0
LINE
  8
0
 10
2.686
 20
1.09331
 11
2.79494
 21
0.773453
  0
LINE
  8
0
 10
2.79494
 20
0.773453
 11
2.86594
 21
0.4431
  0
LINE
  8
0
 10
2.86594
 20
0.4431
 11
2.89803
 21
0.106735
  0
LINE
  8
0
 10
2.89803
 20
0.106735
 11
2.89078
 21
-0.231064
  0
LINE
  8
0
 10
2.89078
 20
-0.231064
 11
2.84427
 21
-0.56575
  0
LINE
  8
0
 10
2.84427
 20
-0.56575
 11
2.75916
 21
-0.892761
  0
LINE
  8
0
 10
2.75916
 20
-0.892761
 11
2.63658
 21
-1.20764
  0
LINE
  8
0
 10
2.63658
 20
-1.20764
 11
2.47821
 21
-1.50612
  0
LINE
  8
0
 10
2.47821
 20
-1.50612
 11
2.28619
 21
-1.78416
  0
LINE
  8
0
 10
2.28619
 20
-1.78416
 11
2.06314
 21
-2.03798
  0
LINE
  8
0
 10
2.06314
 20
-2.03798
 11
1.81209
 21
-2.26413
  0
LINE
  8
0
 10
1.81209
 20
-2.26413
 11
1.53642
 21
-2.45955
  0
LINE
  8
0
 10
1.53642
 20
-2.45955
 11
1.2399
 21
-2.62157
  0
LINE
  8
0
 10
1.2399
 20
-2.62157
 11
0.926544
 21
-2.74799
  0
LINE
  8
0
 10
0.926544
 20
-2.74799
 11
0.600616
 21
-2.83711
  0
LINE
  8
0
 10
0.600616
 20
-2.83711
 11
0.301941
 21
-2.88423
  0
LINE
  8
0
 10
0.301941
 20
-2.88423
 11
-0.0355835
 21
-2.89978
  0
LINE
  8
0
 10
-0.0355835
 20
-2.89978
 11
-0.372635
 21
-2.87595
  0
LINE
  8
0
 10
17.3672
 20
-2.97743
 11
17.6932
 21
-2.91881
  0
LINE
  8
0
 10
17.6932
 20
-2.91881
 11
18.0107
 21
-2.82463
  0
LINE
  8
0
 10
18.0107
 20
-2.82463
 11
18.3158
 21
-2.69601
  0
LINE
  8
0
 10
18.3158
 20
-2.69601
 11
18.605
 21
-2.53455
  0
LINE
  8
0
 10
18.605
 20
-2.53455
 11
18.8746
 21
-2.34221
  0
LINE
  8
0
 10
18.8746
 20
-2.34221
 11
19.1213
 21
-2.12131
  0
LINE
  8
0
 10
19.1213
 20
-2.12131
 11
19.3422
 21
-1.87457
  0
LINE
  8
0
 10
19.3422
 20
-1.87457
 11
19.5345
 21
-1.60498
  0
LINE
  8
0
 10
19.5345
 20
-1.60498
 11
19.696
 21
-1.31584
  0
LINE
  8
0
 10
19.696
 20
-1.31584
 11
19.8246
 21
-1.01067
  0
LINE
  8
0
 10
19.8246
 20
-1.01067
 11
19.9188
 21
-0.693161
  0
LINE
  8
0
 10
19.9188
 20
-0.693161
 11
19.9774
 21
-0.367218
  0
LINE
  8
0
 10
19.9774
 20
-0.367218
 11
19.9998
 21
-0.0368042
  0
LINE
  8
0
 10
19.9998
 20
-0.0368042
 11
19.9855
 21
0.294037
  0
LINE
  8
0
 10
19.9855
 20
0.294037
 11
19.935
 21
0.621323
  0
LINE
  8
0
 10
19.935
 20
0.621323
 11
19.8486
 21
0.94104
  0
LINE
  8
0
 10
19.8486
 20
0.94104
 11
19.7275
 21
1.24928
  0
LINE
  8
0
 10
19.7275
 20
1.24928
 11
19.5732
 21
1.5423
  0
LINE
  8
0
 10
19.5732
 20
1.5423
 11
19.3875
 21
1.81653
  0
LINE
  8
0
 10
19.3875
 20
1.81653
 11
19.1727
 21
2.06862
  0
LINE
  8
0
 10
19.1727
 20
2.06862
 11
18.9315
 21
2.2955
  0
LINE
  8
0
 10
18.9315
 20
2.2955
 11
18.6667
 21
2.4944
  0
LINE
  8
0
 10
18.6667
 20
2.4944
 11
18.3816
 21
2.66292
  0
LINE
  8
0
 10
18.3816
 20
2.66292
 11
18.0797
 21
2.79897
  0
LINE
  8
0
 10
18.0797
 20
2.79897
 11
17.7646
 21
2.90092
  0
LINE
  8
0
 10
17.7646
 20
2.90092
 11
17.4402
 21
2.96753
  0
LINE
  8
0
 10
17.4402
 20
2.96753
 11
17.1104
 21
2.99796
  0
LINE
  8
0
 10
17.1104
 20
2.99796
 11
16.7793
 21
2.99187
  0
LINE
  8
0
 10
16.7793
 20
2.99187
 11
16.4509
 21
2.94931
  0
LINE
  8
0
 10
16.4509
 20
2.94931
 11
16.1292
 21
2.87082
  0
LINE
  8
0
 10
16.1292
 20
2.87082
 11
15.818
 21
2.75734
  0
LINE
  8
0
 10
15.818
 20
2.75734
 11
15.5213
 21
2.61026
  0
LINE
  8
0
 10
15.5213
 20
2.61026
 11
15.2426
 21
2.43137
  0
LINE
  8
0
 10
15.2426
 20
2.43137
 11
14.9717
 21
2.21045
  0
LINE
  8
0
 10
14.9717
 20
2.21045
 11
14.7404
 21
1.97342
  0
LINE
  8
0
 10
14.7404
 20
1.97342
 11
14.5367
 21
1.71234
  0
LINE
  8
0
 10
14.5367
 20
1.71234
 11
14.363
 21
1.43039
  0
LINE
  8
0
 10
14.363
 20
1.43039
 11
14.2214
 21
1.13101
  0
LINE
  8
0
 10
14.2214
 20
1.13101
 11
14.1136
 21
0.817856
  0
LINE
  8
0
 10
14.1136
 20
0.817856
 11
14.0411
 21
0.494736
  0
LINE
  8
0
 10
14.0411
 20
0.494736
 11
14.0046
 21
0.165573
  0
LINE
  8
0
 10
14.0046
 20
0.165573
 11
14.0046
 21
-0.165573
  0
LINE
  8
0
 10
14.0046
 20
-0.165573
 11
14.0411
 21
-0.494736
  0
LINE
  8
0
 10
14.0411
 20
-0.494736
 11
14.1136
 21
-0.817856
  0
LINE
  8
0
 10
14.1136
 20
-0.817856
 11
14.2214
 21
-1.13101
  0
LINE
  8
0
 10
14.2214
 20
-1.13101
 11
14.363
 21
-1.43039
  0
LINE
  8
0
 10
14.363
 20
-1.43039
 11
14.5367
 21
-1.71234
  0
LINE
  8
0
 10
14.5367
 20
-1.71234
 11
14.7404
 21
-1.97342
  0
LINE
  8
0
 10
14.7404
 20
-1.97342
 11
14.9717
 21
-2.21045
  0
LINE
  8
0
 10
14.9717
 20
-2.21045
 11
15.2277
 21
-2.42053
  0
LINE
  8
0
 10
15.2277
 20
-2.42053
 11
15.5053
 21
-2.60114
  0
LINE
  8
0
 10
15.5053
 20
-2.60114
 11
15.8011
 21
-2.75003
  0
LINE
  8
0
 10
15.8011
 20
-2.75003
 11
16.1116
 21
-2.86542
  0
LINE
  8
0
 10
16.1116
 20
-2.86542
 11
16.4328
 21
-2.94588
  0
LINE
  8
0
 10
16.4328
 20
-2.94588
 11
16.706
 21
-2.98555
  0
LINE
  8
0
 10
16.706
 20
-2.98555
 11
17.0368
 21
-2.99977
  0
LINE
  8
0
 10
17.0368
 20
-2.99977
 11
17.3672
 21
-2.97743
  0
LINE
  8
0
 10
16.6274
 20
-2.87595
 11
16.2954
 21
-2.81308
  0
LINE
  8
0
 10
16.2954
 20
-2.81308
 11
15.9729
 21
-2.71202
  0
LINE
  8
0
 10
15.9729
 20
-2.71202
 11
15.6644
 21
-2.57414
  0
LINE
  8
0
 10
15.6644
 20
-2.57414
 11
15.3741
 21
-2.40132
  0
LINE
  8
0
 10
15.3741
 20
-2.40132
 11
15.1058
 21
-2.19589
  0
LINE
  8
0
 10
15.1058
 20
-2.19589
 11
14.8632
 21
-1.96066
  0
LINE
  8
0
 10
14.8632
 20
-1.96066
 11
14.6497
 21
-1.69881
  0
LINE
  8
0
 10
14.6497
 20
-1.69881
 11
14.468
 21
-1.41389
  0
LINE
  8
0
 10
14.468
 20
-1.41389
 11
14.3208
 21
-1.10977
  0
LINE
  8
0
 10
14.3208
 20
-1.10977
 11
14.2099
 21
-0.790588
  0
LINE
  8
0
 10
14.2099
 20
-0.790588
 11
14.1368
 21
-0.460678
  0
LINE
  8
0
 10
14.1368
 20
-0.460678
 11
14.1027
 21
-0.124512
  0
LINE
  8
0
 10
14.1027
 20
-0.124512
 11
14.1079
 21
0.213333
  0
LINE
  8
0
 10
14.1079
 20
0.213333
 11
14.1523
 21
0.548294
  0
LINE
  8
0
 10
14.1523
 20
0.548294
 11
14.2354
 21
0.875809
  0
LINE
  8
0
 10
14.2354
 20
0.875809
 11
14.3561
 21
1.19144
  0
LINE
  8
0
 10
14.3561
 20
1.19144
 11
14.5126
 21
1.49089
  0
LINE
  8
0
 10
14.5126
 20
1.49089
 11
14.7029
 21
1.7701
  0
LINE
  8
0
 10
14.7029
 20
1.7701
 11
14.9244
 21
2.02528
  0
LINE
  8
0
 10
14.9244
 20
2.02528
 11
15.1741
 21
2.25298
  0
LINE
  8
0
 10
15.1741
 20
2.25298
 11
15.4485
 21
2.45007
  0
LINE
  8
0
 10
15.4485
 20
2.45007
 11
15.744
 21
2.61391
  0
LINE
  8
0
 10
15.744
 20
2.61391
 11
16.0566
 21
2.74225
  0
LINE
  8
0
 10
16.0566
 20
2.74225
 11
16.382
 21
2.83337
  0
LINE
  8
0
 10
16.382
 20
2.83337
 11
16.7158
 21
2.88603
  0
LINE
  8
0
 10
16.7158
 20
2.88603
 11
17.0534
 21
2.89951
  0
LINE
  8
0
 10
17.0534
 20
2.89951
 11
17.3903
 21
2.87361
  0
LINE
  8
0
 10
17.3903
 20
2.87361
 11
17.7219
 21
2.8087
  0
LINE
  8
0
 10
17.7219
 20
2.8087
 11
18.0437
 21
2.70567
  0
LINE
  8
0
 10
18.0437
 20
2.70567
 11
18.3513
 21
2.5659
  0
LINE
  8
0
 10
18.3513
 20
2.5659
 11
18.6406
 21
2.3913
  0
LINE
  8
0
 10
18.6406
 20
2.3913
 11
18.9076
 21
2.18423
  0
LINE
  8
0
 10
18.9076
 20
2.18423
 11
19.1488
 21
1.94751
  0
LINE
  8
0
 10
19.1488
 20
1.94751
 11
19.3607
 21
1.68436
  0
LINE
  8
0
 10
19.3607
 20
1.68436
 11
19.5406
 21
1.39833
  0
LINE
  8
0
 10
19.5406
 20
1.39833
 11
19.686
 21
1.09331
  0
LINE
  8
0
 10
19.686
 20
1.09331
 11
19.7949
 21
0.773453
  0
LINE
  8
0
 10
19.7949
 20
0.773453
 11
19.8659
 21
0.4431
  0
LINE
  8
0
 10
19.8659
 20
0.4431
 11
19.898
 21
0.106735
  0
LINE
  8
0
 10
19.898
 20
0.106735
 11
19.8908
 21
-0.231064
  0
LINE
  8
0
 10
19.8908
 20
-0.231064
 11
19.8443
 21
-0.56575
  0
LINE
  8
0
 10
19.8443
 20
-0.56575
 11
19.7592
 21
-0.892761
  0
LINE
  8
0
 10
19.7592
 20
-0.892761
 11
19.6366
 21
-1.20764
  0
LINE
  8
0
 10
19.6366
 20
-1.20764
 11
19.4782
 21
-1.50612
  0
LINE
  8
0
 10
19.4782
 20
-1.50612
 11
19.2862
 21
-1.78416
  0
LINE
  8
0
 10
19.2862
 20
-1.78416
 11
19.0631
 21
-2.03798
  0
LINE
  8
0
 10
19.0631
 20
-2.03798
 11
18.8121
 21
-2.26413
  0
LINE
  8
0
 10
18.8121
 20
-2.26413
 11
18.5364
 21
-2.45955
  0
LINE
  8
0
 10
18.5364
 20
-2.45955
 11
18.2399
 21
-2.62157
  0
LINE
  8
0
 10
18.2399
 20
-2.62157
 11
17.9265
 21
-2.74799
  0
LINE
  8
0
 10
17.9265
 20
-2.74799
 11
17.6006
 21
-2.83711
  0
LINE
  8
0
 10
17.6006
 20
-2.83711
 11
17.3019
 21
-2.88423
  0
LINE
  8
0
 10
17.3019
 20
-2.88423
 11
16.9644
 21
-2.89978
  0
LINE
  8
0
 10
16.9644
 20
-2.89978
 11
16.6274
 21
-2.87595
  0
ENDSEC
  0
SECTION
  2
OBJECTS
  0
DICTIONARY
  0
ENDSEC
  0
EOF
